<?xml version="1.0" encoding="utf-8"?>
<!-- Generator: Adobe Illustrator 27.5.0, SVG Export Plug-In . SVG Version: 6.00 Build 0)  -->
<svg version="1.1" xmlns="http://www.w3.org/2000/svg" xmlns:xlink="http://www.w3.org/1999/xlink" x="0px" y="0px"
	 viewBox="0 0 1100 800" style="enable-background:new 0 0 1100 800;" xml:space="preserve">
<g id="Bg">
	<rect x="0" style="fill:#FFFFFF;" width="1100" height="800"/>
</g>
<g id="shadow">
	<path style="fill:#F7F7F7;" d="M289.755,766.248c-19.432-0.449-38.863-0.791-58.287-0.876
		c-34.617-0.151-79.991,7.321-105.829-21.13c-13.01-14.325-8.729-42.893,11.908-47.958c5.84-1.433,12.127-1.276,17.605-3.716
		c5.479-2.44,9.82-9.084,6.779-14.158c-1.554-2.594-4.546-3.984-7.415-5.074c-18.141-6.891-38.248-7.766-56.296-14.887
		c-42.882-16.921-35.478-50.932,3.505-61.91c35.057-9.872,74.045-8.507,110.189-9.175c211.536-3.911,423.642-8.557,634.006,4.63
		c45.368,2.844,90.473,6.435,135.646,9.784c20.673,1.53,46.547,5.522,46.629,14.468c0.057,6.229-13.591,10.874-27.043,13.305
		c-23.559,4.258-54.315,7.962-49.862,21.892c1.624,5.081,9.293,9.743,19.944,12.125c8.227,1.84,17.69,2.326,26.609,3.433
		c8.919,1.107,18.063,3.141,21.814,6.765c10.098,9.76-15.333,15.569-33.235,16.459c-21.441,1.067-38.923,7.927-31.531,18.277
		c5.149,7.21,21.906,12.086,27.002,19.302c2.049,2.902,2.046,6.024,0.684,8.999c-13.609,29.719-84.703,27.171-111.198,29.396
		c-49.016,4.116-98.252,4.902-147.422,5.271c-111.541,0.836-223.084-0.56-334.602-2.728
		C356.169,768.097,322.96,767.016,289.755,766.248z"/>
</g>
<g id="Object">
	<g>
		<path style="fill:none;" d="M327.888,294.579c-0.857,1.18-1.154,3.189-1.164,5.52C327.112,298.259,327.5,296.419,327.888,294.579z
			"/>
		<polygon style="fill:#292949;" points="253.241,701.005 252.489,703.392 249.994,711.317 263.348,724.232 273.768,718.802 
			268.338,708.383 267.749,707.813 267.193,708.671 		"/>
		<path style="fill:#292949;" d="M325.338,491.952c-7.45,1.41-15.046,3.425-21.687,7.216c-3.113,1.777-5.794,3.954-8.479,6.152
			l-0.586,89.48l-42.124,105.777l0.777,0.427l1.743-5.537l12.765,12.345l77.277-119.175l4.082-14.549L335.14,490.28
			C331.857,490.765,328.586,491.319,325.338,491.952z"/>
		<polygon style="fill:#292949;" points="253.241,701.005 267.193,708.671 267.749,707.813 254.984,695.468 		"/>
		<path style="fill:#292949;" d="M356.061,549.306l-6.953,24.783l1.59,9.538l9.705,126.161h0.089v-1.829h15.544l19.716-134.899
			l-0.955-82.558c-3.605-0.376-19.941-2.022-31.334-2.263L356.061,549.306z"/>
		<path style="fill:#292949;" d="M363.463,488.238c-1.516-0.032-2.95-0.041-4.248-0.016c-8.041,0.15-16.098,0.879-24.075,2.058
			l13.968,83.809l6.953-24.783L363.463,488.238z"/>
		<polygon style="fill:#292949;" points="360.491,709.787 360.491,716.267 377.107,724.575 385.415,716.267 377.107,707.959 
			376.035,707.959 375.768,709.787 		"/>
		<polygon style="fill:#292949;" points="360.491,709.787 375.768,709.787 376.035,707.959 360.491,707.959 		"/>
		<path style="fill:#DD957C;" d="M348.134,328.845c0.592-2.173,1.203-4.281,3.068-5.373c1.695-0.992,3.846-0.705,5.702-1.349
			c3.494-1.214,4.999-5.228,6.07-8.769c0.931-3.078,1.861-6.157,2.792-9.235c0.419-1.386,0.836-2.815,1.108-4.251
			c-5.312-1.985-10.279-5.623-15.827-7.013c-6.223-1.56-17.585-3.863-22.84,1.346c-0.114,0.113-0.219,0.241-0.318,0.378
			c-0.388,1.84-0.776,3.68-1.164,5.52c-0.023,5.196,1.381,11.987,1.205,14.75c-0.756-0.252-1.491-0.595-2.208-0.999
			c1.62,2.625,5.01,4.261,8.052,5.458c-0.701,3.754-1.1,7.565-1.195,11.383c0.182,0.025,0.365,0.05,0.547,0.075
			c5.053-0.65,10.124-1.117,14.557-1.849C347.833,328.89,347.983,328.869,348.134,328.845z"/>
		<path style="fill:#292949;" d="M325.186,307.387c0.513-2.43,1.025-4.859,1.538-7.288c0.01-2.331,0.308-4.34,1.164-5.52
			c0.231-1.095,0.462-2.19,0.693-3.285c0.391-1.855,0.805-3.765,1.88-5.327c1.885-2.742,5.389-3.842,8.685-4.29
			c8.414-1.143,17.457,1.004,23.737,6.718c1.671,1.521,3.167,3.33,3.849,5.484c0.615,1.941,0.523,3.971,0.141,5.99
			c1.188,0.444,2.393,0.807,3.625,1.042c4.853,0.925,11.17-1.239,15.414-3.609c5.236-2.927,7.955-11.921,11.133-16.731
			c0.871-1.318,1.803-2.586,2.838-3.77c2.241-2.564,4.966-4.732,6.799-7.602c1.833-2.87,2.586-6.824,0.616-9.602
			c-1.272-1.793-3.407-2.744-5.491-3.441c-6.867-2.299-14.354-2.713-21.433-1.186c-6.742,1.454-12.824,4.049-19.456,1.291
			c-6.231-2.592-10.83-1.799-17.519,0.314c-7.239,2.286-16.854,2.534-23.455,5.895c-2.756,1.404-4.998,3.673-6.773,6.206
			c-6.151,8.775-6.64,21.168-1.199,30.4c1.221,2.071,2.703,3.978,4.266,5.804c2.703,3.157,5.847,6.924,9.481,8.971
			c-0.466-0.755-0.793-1.589-0.914-2.522C324.637,310.012,324.912,308.684,325.186,307.387z"/>
		<path style="fill:#41352B;" d="M326.724,300.099c-0.513,2.43-1.025,4.859-1.538,7.288c-0.274,1.298-0.549,2.625-0.379,3.94
			c0.12,0.933,0.448,1.766,0.914,2.522c0.718,0.404,1.452,0.748,2.208,0.999C328.104,312.086,326.701,305.295,326.724,300.099z"/>
		<path style="fill:#292949;" d="M366.732,293.878c-0.682-2.154-2.178-3.964-3.849-5.484c-6.28-5.714-15.323-7.861-23.737-6.718
			c-3.297,0.448-6.8,1.549-8.685,4.29c-1.074,1.562-1.488,3.472-1.88,5.327c-0.231,1.095-0.462,2.19-0.693,3.285
			c0.099-0.136,0.204-0.264,0.318-0.378c5.255-5.209,16.617-2.906,22.84-1.346c5.547,1.39,10.515,5.028,15.827,7.013
			C367.255,297.85,367.347,295.819,366.732,293.878z"/>
		<polygon style="fill:#DD957C;" points="255.447,294.865 258.702,288.108 257.62,286.691 255.822,287.952 256.918,281.569 
			254.299,277.013 247.339,276.322 241.23,280.18 241.277,287.163 245.481,294.325 246.382,297.146 256.261,297.078 		"/>
		<path style="fill:#8CABEF;" d="M313.1,336.576l-40.309,8.287l-12.468-47.813l-4.062,0.028l2.121,5.77l-9.357,2.578l-2.643-8.281
			l-3.547,0.024l8.341,76.568l41.177,8.266c1.993-8.575,4.317-17.177,6.283-21.786C301.888,352.595,306.107,341.902,313.1,336.576z"
			/>
		<polygon style="fill:#8CABEF;" points="258.382,302.849 256.261,297.078 246.382,297.146 249.025,305.427 		"/>
		<path style="fill:#8CABEF;" d="M458.967,459.03c-2.562-3.692-11.266-6.164-15.188-8.432c-8.762-5.067-17.183-10.851-24.599-17.797
			c-10.54-9.873-18.317-21.983-23.185-35.623c-2.457-6.885-4.229-14.001-5.692-21.162c-0.793-3.879-1.488-7.778-2.14-11.683
			c-1.411-8.447-2.539-17.165-5.772-25.247c-1.8-4.498-4.295-9.12-3.479-13.895c-10.394,4.132-20.253,2.024-30.777,3.656
			c-0.357,1.308-0.707,2.639-1.321,3.787c-4.563-0.623-9.125-1.245-13.688-1.868c-5.656,0.727-11.29,1.684-15.986,3.51
			c-1.443,0.561-2.785,1.346-4.04,2.302l5.083-1.045l-10.809,49.489l-15.022-3.016c-1.878,8.082-3.462,16.14-4.171,20.806
			c-1.768,11.651-3.405,23.325-4.678,35.043c-1.421,13.076-2.397,26.211-2.603,39.368c-0.023,1.462-0.24,5.556-0.341,10.461
			c-0.212,10.323,0.092,24.235,3.809,24.744c0.697,0.095,1.364-0.272,1.973-0.627c3.269-1.905,6.052-4.204,8.831-6.479l0.163-24.915
			l7.578-24.067l27.204,3.812l-0.447-2.683l64.854,9.549l0.272,23.486c0.468,0.049,0.733,0.077,0.733,0.077
			c6.927-1.242,13.545-3.788,20.18-6.149c11.4-4.056,23.042-7.63,33.739-13.312C452.882,469.294,462.351,463.906,458.967,459.03z"/>
		<path style="fill:#8CABEF;" d="M325.338,491.952c3.248-0.633,6.518-1.187,9.801-1.672l-5.022-30.13l-27.204-3.812l-7.578,24.067
			l-0.163,24.915c2.685-2.198,5.366-4.375,8.479-6.152C310.292,495.377,317.889,493.362,325.338,491.952z"/>
		<path style="fill:#8CABEF;" d="M329.671,457.466l0.447,2.683l36.135,5.063l-2.791,23.026c11.393,0.241,27.729,1.888,31.334,2.263
			l-0.272-23.486L329.671,457.466z"/>
		<path style="fill:#8CABEF;" d="M359.214,488.222c1.299-0.024,2.732-0.016,4.248,0.016l2.791-23.026l-36.135-5.063l5.022,30.13
			C343.116,489.101,351.174,488.371,359.214,488.222z"/>
		<path style="fill:#8CABEF;" d="M348.134,328.845c-0.151,0.023-0.301,0.045-0.452,0.07c-4.433,0.732-9.504,1.199-14.557,1.849
			c4.563,0.623,9.125,1.245,13.688,1.868C347.427,331.485,347.777,330.153,348.134,328.845z"/>
		<path style="fill:#8CABEF;" d="M318.183,335.531l-5.083,1.045c-6.993,5.326-11.212,16.018-14.465,23.643
			c-1.966,4.608-4.29,13.211-6.283,21.786l15.022,3.016L318.183,335.531z"/>
	</g>
	<g>
		<path style="fill:#D67086;" d="M603.58,232.608c0.4-0.158,0.802-0.31,1.207-0.457c-0.084,0.023-0.526,0.152-1.255,0.406
			C603.548,232.574,603.564,232.591,603.58,232.608z"/>
		<path style="fill:#D67086;" d="M730.915,318.332c2.526-30.797-20.385-57.815-51.183-60.354
			c-4.159-0.343-10.584,1.412-14.232-1.114c-3.046-2.11-3.876-6.627-6.12-9.426c-2.741-3.415-5.94-6.46-9.489-9.025
			c-7.156-5.171-15.677-8.3-24.474-9.025c-7.186-0.592-14.132,0.416-20.497,2.714c-0.036,0.012-0.069,0.03-0.106,0.04
			c-0.002,0.001-0.021,0.006-0.027,0.008c-0.405,0.147-0.807,0.299-1.207,0.457c-0.016-0.017-0.032-0.034-0.048-0.051
			c-5.113,1.781-23.983,9.702-27.117,30.164c10.7,0.509,21.094,5.478,28.163,14.428c8.463-7.07,20.047-9.555,30.687-6.461
			c8.542,2.483,15.606,8.145,19.89,15.941c4.284,7.796,5.276,16.794,2.793,25.336c-0.225,0.773-0.962,1.259-1.734,1.195
			c-0.11-0.009-0.22-0.029-0.33-0.061c-0.884-0.257-1.391-1.181-1.135-2.064c4.614-15.87-4.543-32.535-20.413-37.149
			c-10.116-2.941-21.177-0.29-28.875,6.914c-0.671,0.628-1.725,0.594-2.354-0.078c-0.08-0.086-0.149-0.178-0.208-0.275
			c-11.215-15.555-32.987-19.115-48.572-7.926c-0.747,0.536-1.787,0.366-2.324-0.382c-0.536-0.747-0.366-1.788,0.382-2.324
			c6.273-4.503,13.461-6.818,20.654-7.109c2.939-20.949,20.807-29.959,27.957-32.756c-10.731-10.466-25.019-17.41-41.125-18.737
			c-23.825-1.964-45.747,8.835-59.066,26.677c-3.905-1.189-7.991-1.995-12.225-2.344c-20.821-1.716-41.397,8.184-53.075,25.505
			c-2.945,4.368-5.039,9.017-6.845,13.941c-0.243,0.664-0.519,1.253-0.821,1.787c12.338-3.5,29.314-5.474,47.24,1.032
			c0.865,0.314,1.311,1.269,0.997,2.133c-0.313,0.865-1.266,1.312-2.134,0.997c-37.371-13.563-71.121,11.054-71.457,11.304
			c-0.256,0.19-0.549,0.296-0.845,0.322c-4.362,2.899-8.435,6.206-11.996,10.217c-10.571,11.911-17.048,27.117-18.356,42.986
			c-3.358,40.742,26.948,76.492,67.691,79.849c4.593,0.378,9.68-1.841,14.023,0.034c-1.877-6.809-2.562-15.218,0.843-23.739
			c0.341-0.854,1.311-1.271,2.164-0.928c0.854,0.341,1.27,1.31,0.929,2.164c-7.033,17.599,5.632,35.51,5.761,35.689
			c0.156,0.217,0.246,0.461,0.286,0.708c2.204,3.249,4.669,5.856,8.033,8.318c9.158,6.7,20.151,10.819,31.462,11.751
			c9.581,0.79,18.826-0.659,27.233-3.898c0.102-0.081,0.212-0.155,0.336-0.212c25.862-11.898,31.741-39.036,31.797-39.309
			c0.186-0.901,1.061-1.482,1.966-1.295c0.901,0.185,1.481,1.064,1.296,1.965c-0.216,1.051-4.989,23.245-25.384,37.009
			c10.427,14.144,26.665,23.888,45.553,25.445c9.193,0.758,18.956-1.155,27.929-3.862c9.464-2.855,15.036,11.313,18.056,17.46
			c4.447,9.051,6.393,19.903,13.141,27.701c9.727,11.242,21.919,2.903,24.178-9.72c1.292-7.219,1.675-14.554,1.402-21.875
			c-0.134-3.602-0.548-7.769,1.343-11.028c2.259-3.894,5.903-2.962,9.835-3.565c7.555-1.159,14.816-4.025,21.138-8.318
			c12.853-8.729,21.225-23.051,22.501-38.537c0.494-5.996-0.071-11.831-1.513-17.338c-2.613,0.883-7.913,2.29-15.027,2.206
			c-1.114-0.013-2.301-0.065-3.552-0.168c-9.135-0.753-21.716-4.237-34.993-15.33c-0.705-0.59-0.8-1.64-0.21-2.346
			c0.591-0.706,1.64-0.8,2.346-0.21c27.37,22.869,51.626,12.24,51.867,12.129c0.159-0.072,0.324-0.109,0.489-0.129
			c17.083-6.411,29.84-22.204,31.438-41.595C757.259,345.197,747.017,327.364,730.915,318.332z M540.168,387.404
			c-0.187,0.049-0.374,0.064-0.556,0.049c-0.685-0.057-1.292-0.537-1.475-1.241c-4.888-18.779-23.999-30.146-42.788-25.577
			c-0.075,0.026-0.156,0.04-0.236,0.055c-0.108,0.027-0.217,0.048-0.325,0.076c-0.889,0.232-1.8-0.302-2.031-1.192
			c-0.127-0.488-0.018-0.979,0.249-1.363c-2.22-14.705-11.947-27.43-25.604-33.376c-21.944-9.553-47.574,0.526-57.128,22.473
			c-0.367,0.843-1.348,1.23-2.192,0.862c-0.843-0.367-1.229-1.348-0.862-2.191c10.287-23.63,37.881-34.486,61.512-24.197
			c14.494,6.31,24.878,19.711,27.461,35.254c20.011-3.973,39.964,8.341,45.168,28.338
			C541.592,386.264,541.058,387.173,540.168,387.404z M681.223,362.461c-0.633,0.667-1.687,0.694-2.354,0.06
			c-7.636-7.257-17.639-11.103-28.173-10.836c-10.531,0.269-20.327,4.623-27.583,12.259c-7.256,7.637-11.104,17.642-10.836,28.173
			c0.023,0.92-0.703,1.684-1.622,1.707c-0.061,0.002-0.121,0-0.181-0.005c-0.837-0.069-1.504-0.759-1.526-1.617
			c-0.292-11.42,3.882-22.271,11.751-30.552c7.869-8.282,18.492-13.003,29.912-13.295c11.421-0.293,22.271,3.882,30.552,11.751
			C681.829,360.74,681.857,361.794,681.223,362.461z"/>
	</g>
	<g>
		<path style="fill:none;" d="M824.471,322.389c-2.37,2.284-5.058,4.124-7.991,5.343c-0.106,2.234-0.35,4.796-1.035,6.309
			c3.263,0.227,6.417,0.487,9.313,0.676c0.034-2.269,0.06-4.532,0.089-6.786C824.87,326.069,824.734,324.22,824.471,322.389z"/>
		<polygon style="fill:#292949;" points="841.607,699.832 840.963,700.274 834.673,708.513 842.449,714.941 855.773,705.797 
			855.029,698.463 854.806,696.253 841.87,700.711 		"/>
		<path style="fill:#292949;" d="M804.681,573.457l1.179,7.204l35.747,119.171l12.68-8.703l0.519,5.124l0.721-0.248l-18.513-122.701
			C826.237,573.484,815.459,573.529,804.681,573.457z"/>
		<polygon style="fill:#292949;" points="841.607,699.832 841.87,700.711 854.806,696.253 854.286,691.13 		"/>
		<path style="fill:#292949;" d="M759.661,570.778l18.501,132.708h13.208v1.629h0.075l2.345-131.774
			c-1.649-0.024-3.297-0.038-4.946-0.068C779.358,573.101,769.391,572.5,759.661,570.778z"/>
		<polygon style="fill:#292949;" points="778.162,703.486 777.251,703.486 770.191,710.887 777.251,718.288 791.37,710.887 
			791.37,705.115 778.389,705.115 		"/>
		<polygon style="fill:#292949;" points="778.162,703.486 778.389,705.115 791.37,705.115 791.37,703.486 		"/>
		<path style="fill:#474EBB;" d="M800.316,485.097l0.037-13.294l3.589,0.161c-0.589-1.657-1.025-3.365-1.292-5.076
			c-1.102-7.065,0.06-14.212,1.655-21.232l-10.86,11.264l-44.839-33.326c-4.566,20.488-7.095,41.391-9.607,62.242
			c-2.44,20.252-0.992,48.859-13.51,66.156c-0.687,0.95-1.471,1.975-1.397,3.145c0.086,1.365,1.294,2.356,2.425,3.123
			c9.834,6.672,21.313,10.423,33.144,12.516l-9.997-71.707L800.316,485.097z"/>
		<path style="fill:#474EBB;" d="M811.744,366.218l8.127,15.73c4.06-15.395,4.654-31.459,4.888-47.232
			c-2.896-0.188-6.05-0.448-9.313-0.676c-0.169,0.374-0.364,0.687-0.591,0.911c-1.866,1.837-8.161,0.564-10.623,0.145
			c-0.683-0.116-1.398-0.268-1.915-0.728c-0.194-0.172-0.345-0.446-0.468-0.784c-7.731,0.169-14.858,1.367-19.301,5.045
			c-0.297,0.246-0.582,0.503-0.854,0.771c-8.201,8.08-13.409,25.272-17.775,35.769c-4.002,9.624-7.473,19.468-10.416,29.467
			l30.554,17.762L811.744,366.218z"/>
		<path style="fill:#474EBB;" d="M897.615,546.054c-12.809-10.987-21.195-22.378-26.42-36.32c-2.451-0.754-5.054-2.244-7.767-2.858
			c-2.89-0.653-6.057-0.271-9.242,0.246l-17.212,65.919l0.04,0.263c0.079-0.001,0.158-0.002,0.237-0.003
			c21.248-0.358,43.779-1.61,61.304-13.631c1.775-1.217,3.595-2.706,4.082-4.802C903.443,551.393,900.324,548.377,897.615,546.054z"
			/>
		<path style="fill:#474EBB;" d="M793.795,573.041l-0.005,0.299c3.63,0.053,7.261,0.093,10.891,0.117l-4.283-26.173L793.795,573.041
			z"/>
		<path style="fill:#474EBB;" d="M803.942,471.965l-3.589-0.161l-0.037,13.294l10.308-2.844
			C807.618,479.55,805.342,475.902,803.942,471.965z"/>
		<path style="fill:#474EBB;" d="M854.186,507.122c-5.131,0.833-10.307,2.019-14.442-0.199c-5.238-2.81-5.808-9.883-7.93-15.436
			c-2.122-5.552-10.271-10.114-13.38-5.048c-0.776-0.184-1.527-0.423-2.255-0.709l-15.779,61.554l4.283,26.173
			c10.778,0.072,21.556,0.028,32.333-0.152l-0.04-0.263L854.186,507.122z"/>
		<path style="fill:#474EBB;" d="M800.398,547.284l-0.253-1.547l0.171-60.64l-50.652,13.974l9.997,71.707
			c9.73,1.722,19.697,2.324,29.184,2.495c1.648,0.03,3.297,0.044,4.946,0.068l0.005-0.299L800.398,547.284z"/>
		<path style="fill:#474EBB;" d="M800.316,485.097l-0.171,60.64l0.253,1.547l15.779-61.554c-2.052-0.806-3.912-2-5.553-3.476
			L800.316,485.097z"/>
		<path style="fill:#DD957C;" d="M815.445,334.041c0.685-1.513,0.93-4.075,1.035-6.309c-4.32,1.795-9.172,2.24-14.334,0.744
			c-0.313-0.09-0.617-0.201-0.923-0.306c0.122,1.999,0.172,4.179,0.624,5.415C806.312,333.487,810.975,333.73,815.445,334.041z"/>
		<path style="fill:#DD957C;" d="M804.23,335.097c2.462,0.419,8.758,1.692,10.623-0.145c0.228-0.224,0.422-0.537,0.591-0.911
			c-4.47-0.311-9.133-0.555-13.598-0.457c0.124,0.338,0.275,0.612,0.468,0.784C802.832,334.829,803.547,334.981,804.23,335.097z"/>
		<path style="fill:#292949;" d="M792.099,272.482c-0.041-0.141-0.084-0.281-0.119-0.424c-0.75-3.035-0.12-6.244,1.316-9.053
			c-0.547-0.318-1.101-0.624-1.671-0.901c-6.408,3.625-10.878,10.478-11.613,17.803c-0.527,5.254,0.885,10.646,3.773,15.059
			c0.133-2.688,0.433-5.374,0.839-8.022C785.628,280.391,788.373,275.633,792.099,272.482z"/>
		<path style="fill:#DD957C;" d="M814.893,321.392l-1.857,2.249c2.05-0.064,3.576,0.152,3.559,0.562
			c-0.034,0.789-0.046,2.091-0.114,3.529c2.933-1.218,5.621-3.058,7.991-5.343c-1.033-7.195-4.126-14.095-8.164-20.193
			c-5.066-7.65-11.572-14.217-17.983-20.781c-0.098-0.1-0.196-0.202-0.294-0.302c-5.738,4.441-9.659,11.291-10.174,18.55
			c-1.572-1.365-2.933-2.957-4.071-4.696c-0.276,5.563,0.171,11.133,1.935,16.391c2.512,7.489,8.069,14.258,15.503,16.811
			c-0.09-1.474-0.219-2.846-0.581-3.658C805.393,323.472,810.143,322.432,814.893,321.392z"/>
		<path style="fill:#DD957C;" d="M816.48,327.732c0.068-1.437,0.08-2.739,0.114-3.529c0.018-0.411-1.509-0.626-3.559-0.562
			l1.857-2.249c-4.75,1.04-9.5,2.079-14.25,3.12c0.362,0.812,0.491,2.184,0.581,3.658c0.306,0.105,0.61,0.216,0.923,0.306
			C807.309,329.972,812.161,329.527,816.48,327.732z"/>
		<path style="fill:#DD957C;" d="M787.857,299.663c0.515-7.26,4.436-14.109,10.174-18.55c-2.469-2.538-4.955-5.261-5.931-8.631
			c-3.726,3.15-6.471,7.908-7.475,14.463c-0.406,2.648-0.705,5.334-0.839,8.022C784.924,296.707,786.284,298.299,787.857,299.663z"
			/>
		<polygon style="fill:#DD957C;" points="735.011,400.068 732.404,393.081 730.643,392.882 730.309,395.04 726.485,389.861 
			721.414,388.603 716.128,393.12 714.69,400.158 719.732,404.931 727.763,406.845 731.886,408.866 735.698,400.368 		"/>
		<path style="fill:#474EBB;" d="M753.501,404.637l-15.638-9.091l-2.164,4.823l7.059,3.089l-4.591,8.487l-6.281-3.079l-0.775,1.727
			l17.495,13.003c0.439-1.97,0.89-3.937,1.368-5.898C751.043,413.315,752.227,408.963,753.501,404.637z"/>
		<path style="fill:#474EBB;" d="M804.305,445.657c0.388-1.706,0.8-3.405,1.213-5.093c4.679-19.132,8.826-38.491,14.058-57.478
			c0.104-0.378,0.194-0.758,0.294-1.137l-8.127-15.73l-27.689,56.18l-30.554-17.762c-1.273,4.326-2.458,8.678-3.527,13.06
			c-0.479,1.962-0.929,3.929-1.368,5.898l44.839,33.326L804.305,445.657z"/>
		<polygon style="fill:#474EBB;" points="742.758,403.457 735.698,400.368 731.886,408.866 738.167,411.944 		"/>
		<path style="fill:#292949;" d="M799.905,268.456c11.688-3.105,26.67,3.28,33,16.324c5.641,11.625,1.237,28.291-8.434,37.61
			c0.263,1.831,0.399,3.68,0.375,5.541c-0.029,2.254-0.055,4.517-0.089,6.786c2.328,0.152,4.494,0.257,6.404,0.257
			c2.746,28.917,8.047,57.796,14.534,86.079c5.606,24.441,16.293,48.267,21.05,72.674c1.116,5.727,2.583,11.028,4.449,16.006
			c3.137,0.965,6.027,0.724,8.583-4.111c-3.5-3.165-3.402-8.451,0.24-11.655c3.467-3.05,8.311-3.91,12.337-6.172
			c10.303-5.788,13.251-19.913,10.062-31.293c-3.189-11.38-11.009-20.772-18.195-30.155c-17.634-23.026-24.674-55.943-23.891-84.659
			c0.521-19.098,2.34-38.729-3.63-56.876c-7.062-21.464-24.218-34.014-46.406-32.703c-6.321,0.374-11.206,3.015-15.221,8.12
			c-0.676,0.86-1.276,1.794-1.778,2.777C795.775,264.448,798.012,266.299,799.905,268.456z"/>
		<path style="fill:#292949;" d="M845.696,421.053c-6.487-28.283-11.788-57.162-14.534-86.079c-1.91,0-4.076-0.105-6.404-0.257
			c-0.234,15.772-0.828,31.837-4.888,47.232l16,30.97l-31.565,32.738c-1.595,7.02-2.757,14.167-1.655,21.232
			c0.267,1.711,0.703,3.419,1.292,5.076l50.755,2.283l2.256,22.272l-2.768,10.602c3.185-0.517,6.353-0.899,9.242-0.246
			c2.713,0.613,5.316,2.103,7.767,2.858c-1.866-4.978-3.333-10.279-4.449-16.006C861.989,469.32,851.302,445.494,845.696,421.053z"
			/>
		<path style="fill:#292949;" d="M854.697,474.248l-50.755-2.283c1.4,3.937,3.675,7.585,6.682,10.288l6.935-1.913l-1.382,5.389
			c0.728,0.286,1.48,0.526,2.255,0.709c3.109-5.066,11.258-0.504,13.38,5.048c2.122,5.553,2.692,12.626,7.93,15.436
			c4.135,2.218,9.312,1.033,14.442,0.199l2.768-10.602L854.697,474.248z"/>
		<path style="fill:#292949;" d="M810.624,482.253c1.642,1.476,3.501,2.67,5.553,3.476l1.382-5.389L810.624,482.253z"/>
		<path style="fill:#292949;" d="M791.98,272.058c0.035,0.143,0.079,0.283,0.119,0.424c2.289-1.936,4.948-3.267,7.806-4.026
			c-1.893-2.157-4.131-4.007-6.609-5.451C791.859,265.814,791.229,269.023,791.98,272.058z"/>
		<path style="fill:#292949;" d="M832.905,284.78c-6.33-13.043-21.312-19.429-33-16.324c2.253,2.566,4.023,5.555,5.138,8.783
			l0.728-0.199c-2.808,0.875-5.422,2.279-7.741,4.073c0.098,0.101,0.196,0.202,0.294,0.302c6.411,6.564,12.917,13.131,17.983,20.781
			c4.038,6.098,7.131,12.998,8.164,20.193C834.142,313.071,838.546,296.404,832.905,284.78z"/>
		<path style="fill:#292949;" d="M805.043,277.239c-1.115-3.228-2.885-6.217-5.138-8.783c-2.858,0.759-5.517,2.09-7.806,4.026
			c0.976,3.37,3.462,6.093,5.931,8.631c2.319-1.795,4.933-3.198,7.741-4.073L805.043,277.239z"/>
		<path style="fill:#292949;" d="M819.87,381.948c-0.1,0.379-0.189,0.759-0.294,1.137c-5.232,18.987-9.379,38.346-14.058,57.478
			c-0.413,1.688-0.825,3.387-1.213,5.093l31.565-32.738L819.87,381.948z"/>
	</g>
	<g>
		<g>
			<g>
				<path style="fill:#353A85;" d="M328.585,203.268c12.216-40.028-10.329-82.381-50.358-94.597
					c-40.029-12.217-82.596,10.542-94.675,50.613c-5.998,19.897-3.416,40.35,5.619,57.377c7.034,13.254,10.618,28.065,10.136,43.062
					l-0.752,23.398l47.51,14.5l11.783-18.782c8.146-12.985,19.709-23.415,33.3-30.504
					C308.532,239.268,322.409,223.502,328.585,203.268z"/>
				<path style="fill:#BABCBE;" d="M225.982,319.164l-23.164-7.07c-6.563-2.003-10.699-8.563-9.196-14.827l5.289-24.332
					l52.565,15.675l-9.586,23.389C239.64,318.034,232.545,321.167,225.982,319.164z"/>
			</g>
			<path style="fill:#A0A0A0;" d="M243.6,297.521c-14.846-3.846-29.324-9.085-44.175-12.91c-1.319-0.34-1.801,1.589-0.537,2.021
				c14.517,4.963,29.498,8.542,44.023,13.484C244.54,300.672,245.288,297.959,243.6,297.521z"/>
			<path style="fill:#A0A0A0;" d="M241.658,303.887c-14.846-3.846-29.324-9.085-44.175-12.91c-1.319-0.34-1.801,1.59-0.537,2.021
				c14.517,4.963,29.498,8.542,44.023,13.484C242.597,307.037,243.346,304.324,241.658,303.887z"/>
		</g>
		<g>
			<path style="fill:#8CABEF;" d="M295.384,73.619c-1.425,4.671-9.033,20.703-12.097,19.768c-3.063-0.935-0.422-18.484,1.003-23.154
				c1.425-4.671,5.064-7.699,8.128-6.764C295.482,64.405,296.809,68.949,295.384,73.619z"/>
			<path style="fill:#8CABEF;" d="M356.628,120.501c-4.471,1.963-19.503,11.396-18.215,14.329
				c1.287,2.933,18.406-1.746,22.877-3.708c4.471-1.963,7.053-5.931,5.765-8.864C365.768,119.325,361.099,118.538,356.628,120.501z"
				/>
			<path style="fill:#8CABEF;" d="M360.697,203.652c-4.813-0.826-21.677-6.353-21.135-9.509c0.541-3.157,18.283-2.748,23.096-1.922
				c4.813,0.826,8.276,4.054,7.734,7.211S365.51,204.478,360.697,203.652z"/>
			<path style="fill:#8CABEF;" d="M215.351,71.288c2.798,4.002,10.73,19.877,8.106,21.712c-2.625,1.835-14.813-11.064-17.611-15.066
				c-2.798-4.002-2.939-8.734-0.314-10.569C208.156,65.53,212.553,67.286,215.351,71.288z"/>
			<path style="fill:#8CABEF;" d="M159.345,129.079c4.454,2.003,21.53,6.834,22.843,3.912c1.313-2.921-13.633-12.488-18.087-14.491
				c-4.454-2.003-9.129-1.258-10.442,1.663C152.346,123.085,154.892,127.077,159.345,129.079z"/>
		</g>
		<g>
			<path style="fill:#FFFFFF;" d="M276.126,227.597c-1.809-2.415-2.939-5.198-3.492-8.109c3.619-2.443,6.109-6.454,7.828-10.363
				c1.051-2.39,1.893-4.851,2.694-7.334c0.772-2.393,1.079-4.533-0.5-6.651c-1.409-1.889-4.201-1.424-5.99-0.554
				c-2.064,1.004-3.589,3.214-4.832,5.062c-2.51,3.733-3.833,8.152-4.327,12.587c-0.172,1.547-0.2,3.108-0.098,4.661
				c-1.274,0.491-2.635,0.773-4.048,0.792c-4.347,0.059-6.656-3.14-7.459-7.075c-0.132-0.647-0.238-1.322-0.321-2.016
				c0.566-0.739,1.118-1.483,1.647-2.223c2.572-3.6,4.598-7.574,6.22-11.683c1.345-3.405,2.717-7.546-0.01-10.638
				c-0.877-0.994-2.243-0.862-3.209-0.128c-6.984,5.31-9.464,14.421-9.156,22.958c-1.484,1.791-3.099,3.472-4.805,5.057
				c-1.877,1.743-5.222,4.295-7.945,3.01c-2.534-1.196-3.639-5.172-4.329-7.634c-0.506-1.804-0.772-3.648-0.859-5.506
				c0.608-0.783,1.195-1.585,1.76-2.404c2.22-3.22,3.987-6.744,5.419-10.378c1.196-3.033,2.629-7.37-0.317-9.897
				c-0.857-0.735-2.332-1.135-3.212-0.128c-5.012,5.733-7.808,12.846-8.075,20.461c-0.009,0.258-0.006,0.517-0.008,0.776
				c-3.664,4.62-8.283,8.523-13.351,11.494c-2.275,1.334-0.405,4.896,1.929,3.623c4.453-2.43,8.477-5.504,11.987-9.103
				c0.279,1.43,0.654,2.839,1.121,4.207c1.282,3.753,3.186,7.481,7.116,8.916c3.67,1.34,7.659-0.872,10.513-2.982
				c1.37-1.013,2.653-2.18,3.861-3.435c0.939,3.47,2.87,6.584,6.307,8.183c3.163,1.471,6.677,1.422,9.938,0.435
				c0.763,3.184,2.071,6.239,3.849,8.968C274.005,233.661,278.354,230.57,276.126,227.597z M260.388,189.751
				c-0.377,1.783-1.432,3.804-1.85,4.827c-0.763,1.868-1.681,3.671-2.699,5.417C256.515,196.155,257.977,192.452,260.388,189.751z
				 M273.987,205.84c0.687-1.762,1.705-3.391,2.824-4.908c0.507-0.687,1.076-1.304,1.722-1.862c0.05-0.044,0.263-0.194,0.471-0.319
				c-0.016,0.125-0.016,0.306-0.077,0.551c-1.11,4.468-2.922,9.103-5.571,12.878c-0.328,0.468-0.687,0.91-1.066,1.33
				C272.463,210.874,273.042,208.261,273.987,205.84z"/>
			<path style="fill:#FFFFFF;" d="M283.502,218.195c-14.886,21.169-30.14,42.098-45.926,62.606c-1.89,2.455,1.864,5.459,3.748,3.003
				c15.766-20.552,30.978-41.504,45.444-62.992C288.259,218.595,285.061,215.978,283.502,218.195z"/>
			<path style="fill:#FFFFFF;" d="M213.862,195.316c-1.167,25.853-2.775,51.701-5.057,77.48c-0.273,3.086,4.507,3.6,4.775,0.517
				c2.242-25.806,3.801-51.65,4.443-77.546C218.088,193.095,213.984,192.608,213.862,195.316z"/>
		</g>
	</g>
	<path style="fill:#DD957C;" d="M410.641,285.641l3.551-9.447c0,0,5.165-5.259,7.748-5.259l7.748,2.704v13.678l-9.524,4.145
		L410.641,285.641z"/>
	<polygon style="fill:#3B3387;" points="738.849,104.449 686.294,172.114 715.637,184.22 689.614,250.34 748.896,181.369 
		717.583,163.479 	"/>
	<polygon style="fill:#3B3387;" points="781.979,178.496 729.087,233.035 751.722,246.38 712.293,304.163 770.191,244.952 
		755.426,226.638 	"/>
</g>
</svg>
