<?xml version="1.0" encoding="utf-8"?>
<!-- Generator: Adobe Illustrator 27.5.0, SVG Export Plug-In . SVG Version: 6.00 Build 0)  -->
<svg version="1.1" xmlns="http://www.w3.org/2000/svg" xmlns:xlink="http://www.w3.org/1999/xlink" x="0px" y="0px"
	 viewBox="0 0 500 500" style="enable-background:new 0 0 500 500;" xml:space="preserve">
<g id="BACKGROUND">
	<rect x="0.096" style="fill:#EEEBE4;" width="499.808" height="500"/>
</g>
<g id="OBJECTS">
	<g>
		<path style="fill:#FFFFFF;" d="M85.764,50.428v219.165h328.472v-109.49h-30.039c0.967,2.734,1.499,5.674,1.499,8.74
			c0,14.472-11.732,26.205-26.205,26.205c-14.472,0-26.205-11.732-26.205-26.205c0-3.066,0.531-6.006,1.499-8.74h-30.039v-30.039
			c0.012-0.004,0.024-0.01,0.036-0.014c2.728,0.962,5.651,1.513,8.708,1.513c14.472,0,26.205-11.732,26.205-26.205
			c0-14.473-11.732-26.205-26.205-26.205c-3.057,0-5.98,0.551-8.708,1.513c-0.012-0.005-0.024-0.01-0.036-0.015V50.613
			L85.764,50.428z"/>
		<g>
			<g>
				<g>
					<path style="fill:#D6D3CC;" d="M203.998,78.969c14.472,0,26.205,11.732,26.205,26.205c0,14.472-11.732,26.205-26.205,26.205
						c-3.058,0-5.98-0.551-8.708-1.513c-0.012,0.004-0.024,0.01-0.036,0.014v30.039h109.49V50.428h-109.49v30.039
						c0.012,0.004,0.024,0.01,0.036,0.015C198.018,79.52,200.94,78.969,203.998,78.969z"/>
				</g>
			</g>
			<g>
				<g>
					
						<ellipse transform="matrix(0.7071 -0.7071 0.7071 0.7071 17.4485 252.4711)" style="fill:#D6D3CC;" cx="313.484" cy="105.173" rx="26.205" ry="26.205"/>
				</g>
			</g>
		</g>
		<g>
			<g>
				<g>
					<path style="fill:#BFBCB5;" d="M203.998,188.643c14.472,0,26.205,11.732,26.205,26.205c0,14.472-11.732,26.205-26.205,26.205
						c-3.058,0-5.98-0.551-8.708-1.513c-0.012,0.004-0.024,0.01-0.036,0.014v30.039h109.49v-109.49h-109.49v30.039
						c0.012,0.004,0.024,0.01,0.036,0.015C198.018,189.193,200.94,188.643,203.998,188.643z"/>
				</g>
				<g>
					
						<ellipse transform="matrix(0.4122 -0.9111 0.9111 0.4122 9.0512 316.7524)" style="fill:#BFBCB5;" cx="249.999" cy="151.362" rx="26.205" ry="26.205"/>
				</g>
				<g>
					
						<ellipse transform="matrix(0.9873 -0.1589 0.1589 0.9873 -30.1539 52.5373)" style="fill:#BFBCB5;" cx="313.484" cy="214.847" rx="26.205" ry="26.205"/>
				</g>
			</g>
		</g>
		<g>
			<rect x="85.764" y="160.103" style="fill:#D6D3CC;" width="109.49" height="109.49"/>
			<g>
				
					<ellipse transform="matrix(0.7071 -0.7071 0.7071 0.7071 -65.8756 143.6882)" style="fill:#D6D3CC;" cx="140.509" cy="151.363" rx="26.205" ry="26.205"/>
			</g>
			<g>
				<g>
					
						<ellipse transform="matrix(0.7071 -0.7071 0.7071 0.7071 -92.172 207.1734)" style="fill:#D6D3CC;" cx="203.994" cy="214.848" rx="26.205" ry="26.205"/>
				</g>
			</g>
		</g>
	</g>
	<g>
		<g>
			<g>
				<path style="fill:#13B88D;" d="M205.91,188.124c-2.695-13.198,5.87-26.081,19.111-28.681
					c11.812-2.32,23.836,4.707,27.691,16.111c1.263,3.736,1.507,7.483,1.011,11.05c0.009,0.009,0.012,0.011,0.021,0.02l27.268-5.569
					l-20.298-99.388l-99.388,20.299l20.298,99.388l27.268-5.569c0.005-0.012,0.007-0.015,0.012-0.027
					C207.521,193.457,206.478,190.903,205.91,188.124z"/>
				
					<ellipse transform="matrix(0.5675 -0.8234 0.8234 0.5675 21.5036 208.7006)" style="fill:#13B88D;" cx="209.399" cy="83.882" rx="24.278" ry="24.278"/>
				
					<ellipse transform="matrix(0.4823 -0.876 0.876 0.4823 30.6734 311.3857)" style="fill:#13B88D;" cx="278.796" cy="129.74" rx="24.278" ry="24.278"/>
			</g>
		</g>
		<g>
			<g>
				<path style="fill:#D45538;" d="M219.437,124.978l1.732-9.226l11.947,1.283l-0.746-13.13l3.421-1.2
					c0,0-5.104-13.898-5.106-13.895c-4.537,4.498-9.26,2.501-14.338,4.459c-5.429,2.097-6.679,11.104-8.265,15.516
					c-0.718,1.996-5.876,14.914-4.221,16.151C203.866,124.941,213.322,132.008,219.437,124.978z"/>
				<path style="fill:#562923;" d="M220.872,93.732c-0.451,1.384-1.459,2.537-1.911,3.921c-1.779-1.413-3.342-2.075-4.764-0.293
					c-0.661,0.828-1.117,4.501,4.473,6.519c0.102,4.286-1.492,10.279-9.271,9.084c-17.005-2.613-11.624-45.821,1.011-35.948
					c1.054-1.381,3.058-4.033,8.253-3.008c5.905,1.164,14.381,4.91,19.559,1.947C242.28,77.501,245.667,101.607,220.872,93.732z"/>
			</g>
			<g>
				<path style="fill:#D45538;" d="M241.549,177.784c8.003-1.932,23.243-8.516,30.2-15.91c0.168-1.29,0.453-2.564,0.848-3.803
					c0.171-0.537,0.38-1.092,0.806-1.461c0.34-0.295,0.782-0.439,1.211-0.576c0.79-0.252,1.579-0.505,2.369-0.757
					c0.237-0.076,0.491-0.152,0.729-0.081c0.356,0.105,0.55,0.517,0.52,0.887c-0.03,0.37-0.075,0.939-0.288,1.243
					c0.701-0.014,1.392,0.422,1.679,1.062c0.288,0.64,0.448,1.414-0.028,1.929c0.543,0.525,1.101,2.437,0.371,2.63
					c0.521,0.043,0.494,0.85,0.181,1.269c-0.963,1.288-2.691,1.47-4.297,1.545c-39.346,33.466-43.963,28.091-43.963,28.091
					c-4.747-7.774-4.747-17.037-4.747-17.037c0.564,0,9.601-3.244,13.724-3.929C241.025,174.502,240.839,176.321,241.549,177.784z"
					/>
				<path style="fill:#0A3039;" d="M243.548,176.75c-1.541-13.9-3.876-28.595-9.327-41.474c-7.381,6.069-15.421,39.016-9.464,49.471
					C230.472,183.612,238.966,180.348,243.548,176.75z"/>
				<path style="fill:#2E4F62;" d="M225.545,175.718c2.523-0.814,13.95-3.768,17.208-5.573c0.43,2.161,1.538,4.365,1.524,6.569
					c-1.234,1.629-15.046,8.766-18.533,8.032C224.952,184.579,224.837,178.714,225.545,175.718z"/>
			</g>
			<g>
				<path style="fill:#072026;" d="M188.619,122.127c-11.883,2.789-31.887,31.748-31.721,36.055
					c0.18,4.647,16.448,17.887,21.133,20.873C182.496,160.549,186.202,141.009,188.619,122.127z"/>
				<path style="fill:none;stroke:#0A2E36;stroke-width:0.75;stroke-miterlimit:10;" d="M172.574,153.394
					c3.841,4.224,7.681,8.448,11.522,12.672"/>
			</g>
			<g>
				<path style="fill:#0A3039;" d="M183.867,423.649l-0.059-9.662l-8.88-0.498l-1.38,17.631h6.11l0.465-2.789l2.499,2.789h16.826
					C200.045,422.305,183.867,423.649,183.867,423.649z"/>
				<path style="fill:#0A3039;" d="M235.193,423.649l-2.333-9.662l-8.88-0.498l0.894,17.631h6.109l0.465-2.789l2.499,2.789h16.826
					C251.371,422.305,235.193,423.649,235.193,423.649z"/>
				<path style="fill:#525963;" d="M225.736,227.316l8.973,188.155h-12.053l-22.735-139.61l-14.873,139.61H172.48
					c0,0,2.168-126.974,1.342-135.61c-0.826-8.636-8.284-30.232-1.342-52.545H225.736z"/>
				<path style="fill:none;stroke:#5B626E;stroke-width:0.75;stroke-miterlimit:10;" d="M199.922,275.861c0,0-0.143-3.142,0-6.549"
					/>
				<path style="fill:none;stroke:#5B626E;stroke-width:0.75;stroke-miterlimit:10;" d="M171.523,230.768
					c0,0,24.236,26.427,54.469,2.523"/>
				<path style="fill:none;stroke:#5B626E;stroke-width:0.75;stroke-miterlimit:10;" d="M187.261,249.669
					c0.185,3.449,0.379,6.945,1.441,10.232c1.063,3.287,3.113,6.397,6.176,7.995c2.362,1.232,5.099,1.47,7.754,1.686
					c2.188,0.178,4.377,0.355,6.565,0.533"/>
				<path style="fill:none;stroke:#5B626E;stroke-width:0.75;stroke-miterlimit:10;" d="M199.922,269.313"/>
				
					<line style="fill:none;stroke:#5B626E;stroke-width:0.75;stroke-miterlimit:10;" x1="217.148" y1="239.008" x2="230.813" y2="415.471"/>
				
					<line style="fill:none;stroke:#5B626E;stroke-width:0.75;stroke-miterlimit:10;" x1="194.879" y1="267.895" x2="181.779" y2="415.471"/>
				<path style="fill:none;stroke:#5B626E;stroke-width:0.75;stroke-miterlimit:10;" d="M218.86,261.124
					c0,0,5.578-1.056,7.526-11.455"/>
			</g>
			<g>
				<path style="fill:#2E4F62;" d="M224.707,123.122l1.039,9.827l-27.971-7.511l1.678-8.399
					C199.453,117.038,207.543,116.709,224.707,123.122z"/>
				<path style="fill:#0A3039;" d="M188.619,122.127c0,0-21.869,41.837-16.139,105.189c0,0,29.253,20.321,53.256,0
					c0,0-2.463-65.743,8.485-92.04C234.221,135.275,212.157,119.736,188.619,122.127z"/>
				<path style="fill:none;stroke:#0E434F;stroke-width:0.75;stroke-miterlimit:10;" d="M225.357,199.682
					c0,0-4.691,9.318-11.691,16.151"/>
				<path style="fill:none;stroke:#0E434F;stroke-width:0.75;stroke-miterlimit:10;" d="M206.328,131.092
					c-10.875,22.66-15.062,53.684-11.307,78.536c-4.904-0.559-11.108-0.653-11.62,1.081c-0.397,1.345,12.229,3.388,12.091,4.396
					c-0.564,3.711-10.176,1.497-10.055,3.523c0.415,2.116,8.939,1.893,11.968,2.016c0,0,0.305,7.121,0.825,11.005"/>
				<path style="fill:none;stroke:#0E434F;stroke-width:0.75;stroke-miterlimit:10;" d="M226.772,175.349
					c-1.272-11.925,0.735-24.72,4.041-36.249"/>
				<path style="fill:none;stroke:#115563;stroke-width:0.75;stroke-miterlimit:10;" d="M175.497,194.859
					c14.427-10.447,26.987-23.466,36.911-38.259"/>
				<path style="fill:none;stroke:#115563;stroke-width:0.75;stroke-miterlimit:10;" d="M184.73,199.682
					c7.336-5.447,14.85-11.083,19.654-18.855"/>
			</g>
		</g>
	</g>
	<line style="fill:none;stroke:#4E505D;stroke-miterlimit:10;" x1="62.139" y1="431.12" x2="437.861" y2="431.12"/>
</g>
<g id="DESIGNED_BY_FREEPIK">
	<g>
		<g id="XMLID_319_">
			<g id="XMLID_338_">
				<path id="XMLID_346_" style="fill:#1C1C1B;" d="M261.442,464.892c-0.49,0.502-0.91,1.054-1.255,1.646l-0.527-0.273
					c-0.076-0.337-0.396-0.569-0.746-0.528c-0.375,0.044-0.643,0.384-0.599,0.759c0.044,0.375,0.384,0.643,0.758,0.599
					c0.074-0.009,0.144-0.029,0.208-0.059l0.511,0.265c-0.284,0.627-0.49,1.289-0.611,1.975l0.845,0.149
					c0.26-1.479,0.962-2.839,2.029-3.932L261.442,464.892z"/>
				<path id="XMLID_345_" style="fill:#1C1C1B;" d="M267.656,462.285c-0.194,0-0.386,0.007-0.577,0.019l-0.083-0.709
					c0.212-0.169,0.335-0.44,0.301-0.73c-0.052-0.445-0.456-0.763-0.901-0.711c-0.445,0.052-0.763,0.455-0.711,0.901
					c0.034,0.288,0.214,0.522,0.458,0.638l0.083,0.707c-0.808,0.132-1.589,0.376-2.332,0.732l0.37,0.774
					c1.058-0.506,2.199-0.762,3.392-0.762c0.562,0,1.124,0.06,1.67,0.178l0.182-0.839
					C268.903,462.352,268.279,462.285,267.656,462.285z"/>
				<path id="XMLID_344_" style="fill:#1C1C1B;" d="M275.133,465.17c0.375-0.046,0.641-0.387,0.595-0.761
					c-0.046-0.375-0.387-0.641-0.761-0.595c-0.35,0.043-0.606,0.344-0.6,0.689l-0.471,0.411c-0.473-0.487-1.007-0.92-1.594-1.29
					l-0.458,0.726c1.284,0.809,2.288,1.955,2.903,3.313l0.782-0.354c-0.284-0.627-0.643-1.214-1.067-1.75l0.455-0.397
					C274.986,465.175,275.059,465.179,275.133,465.17z"/>
				<path id="XMLID_343_" style="fill:#1C1C1B;" d="M267.036,473.845c-0.437,0.026-0.878,0.039-1.31,0.039
					c-0.997,0-1.962-0.069-2.807-0.203c-0.442-0.07-0.958-0.176-1.438-0.331c1.185,2.107,3.476,3.539,6.102,3.539
					c3.233,0,5.959-2.17,6.737-5.1c-0.772,0.509-1.705,0.935-2.784,1.271C270.201,473.478,268.643,473.749,267.036,473.845z"/>
				<path id="XMLID_339_" style="fill:#1C1C1B;" d="M267.656,464.002c-3.796,0-6.884,3.019-6.884,6.73
					c0,0.482,0.052,0.962,0.155,1.428c0.763,0.547,3.064,1.008,6.055,0.828c3.261-0.196,5.998-1.084,7.556-2.444
					c-0.006-0.221-0.023-0.442-0.051-0.659C274.056,466.531,271.12,464.002,267.656,464.002z M265.211,471.38
					c-1.155,0-2.095-0.94-2.095-2.095c0-1.155,0.94-2.095,2.095-2.095c1.155,0,2.095,0.94,2.095,2.095
					C267.306,470.44,266.366,471.38,265.211,471.38z M270.576,470.351c-0.849,0-1.54-0.691-1.54-1.54
					c0-0.849,0.691-1.541,1.54-1.541c0.849,0,1.541,0.691,1.541,1.541C272.116,469.66,271.425,470.351,270.576,470.351z"/>
			</g>
			<path id="XMLID_336_" style="fill:#1C1C1B;" d="M285.779,466.116c-0.334-0.131-0.912-0.35-1.565-0.269
				c-0.624,0.078-0.956,0.386-0.956,1.14v0.981h2.523v1.945h-2.523v6.177h-2.188v-6.177h-1.517v-1.945h1.517v-1.006
				c0-1.902,1.014-3.151,2.908-3.151c0.728,0,1.31,0.138,1.8,0.349L285.779,466.116z"/>
			<path id="XMLID_334_" style="fill:#1C1C1B;" d="M291.104,469.89c-0.2-0.034-0.405-0.052-0.596-0.052
				c-1.014,0-1.71,0.62-1.71,1.827v4.425h-2.188v-8.122h2.12v0.888c0.511-0.763,1.291-1.106,2.288-1.106
				c0.469,0,0.96,0.144,1.239,0.381L291.104,469.89z"/>
			<path id="XMLID_331_" style="fill:#1C1C1B;" d="M299.786,472.017c0,0.251-0.017,0.553-0.042,0.738h-5.758
				c0.235,1.173,1.056,1.685,2.087,1.685c0.704,0,1.467-0.285,2.053-0.779l1.282,1.408c-0.922,0.846-2.095,1.232-3.461,1.232
				c-2.489,0-4.216-1.693-4.216-4.249c0-2.556,1.676-4.3,4.107-4.3C298.177,467.75,299.778,469.485,299.786,472.017z
				 M293.995,471.262h3.595c-0.201-1.039-0.83-1.626-1.768-1.626C294.791,469.636,294.187,470.257,293.995,471.262z"/>
			<path id="XMLID_328_" style="fill:#1C1C1B;" d="M308.453,472.017c0,0.251-0.017,0.553-0.042,0.738h-5.758
				c0.235,1.173,1.056,1.685,2.087,1.685c0.704,0,1.467-0.285,2.053-0.779l1.282,1.408c-0.922,0.846-2.095,1.232-3.461,1.232
				c-2.489,0-4.216-1.693-4.216-4.249c0-2.556,1.676-4.3,4.107-4.3C306.843,467.75,308.444,469.485,308.453,472.017z
				 M302.661,471.262h3.596c-0.201-1.039-0.83-1.626-1.768-1.626C303.457,469.636,302.854,470.257,302.661,471.262z"/>
			<path id="XMLID_325_" style="fill:#1C1C1B;" d="M317.903,472.025c0,2.439-1.693,4.275-3.931,4.275
				c-1.09,0-1.861-0.428-2.389-1.056v4.199h-2.179v-11.474h2.137v0.897c0.528-0.662,1.307-1.115,2.422-1.115
				C316.21,467.75,317.903,469.586,317.903,472.025z M311.475,472.025c0,1.282,0.846,2.238,2.087,2.238
				c1.291,0,2.095-0.997,2.095-2.238c0-1.24-0.805-2.238-2.095-2.238C312.321,469.787,311.475,470.742,311.475,472.025z"/>
			<path id="XMLID_322_" style="fill:#1C1C1B;" d="M321.418,465.311c0,0.788-0.612,1.391-1.4,1.391
				c-0.788,0-1.391-0.603-1.391-1.391c0-0.788,0.604-1.408,1.391-1.408C320.806,463.903,321.418,464.524,321.418,465.311z
				 M321.124,476.09h-2.188v-8.122h2.188V476.09z"/>
			<path id="XMLID_320_" style="fill:#1C1C1B;" d="M324.775,470.86l3.059-2.892h2.682l-3.939,3.822l3.964,4.3h-2.69l-3.076-3.285
				v3.285h-2.188v-12.069h2.188V470.86z"/>
		</g>
		<g>
			<path style="fill:#1C1C1B;" d="M175.729,476.016v-1.194c-0.597,0.813-1.576,1.393-2.704,1.393c-2.09,0-3.566-1.592-3.566-4.196
				c0-2.555,1.46-4.213,3.566-4.213c1.078,0,2.057,0.531,2.704,1.41v-4.263h1.244v11.064H175.729z M175.729,473.843v-3.633
				c-0.448-0.697-1.41-1.294-2.405-1.294c-1.609,0-2.571,1.327-2.571,3.102c0,1.775,0.962,3.085,2.571,3.085
				C174.319,475.104,175.281,474.54,175.729,473.843z"/>
			<path style="fill:#1C1C1B;" d="M178.582,472.002c0-2.322,1.659-4.197,3.948-4.197c2.422,0,3.848,1.891,3.848,4.296v0.316h-6.486
				c0.1,1.509,1.161,2.77,2.886,2.77c0.912,0,1.841-0.365,2.471-1.012l0.597,0.813c-0.796,0.796-1.874,1.227-3.185,1.227
				C180.29,476.215,178.582,474.507,178.582,472.002z M182.513,468.834c-1.709,0-2.555,1.443-2.621,2.67h5.258
				C185.134,470.31,184.337,468.834,182.513,468.834z"/>
			<path style="fill:#1C1C1B;" d="M187.273,474.955l0.647-0.895c0.531,0.614,1.543,1.145,2.637,1.145
				c1.228,0,1.891-0.581,1.891-1.377c0-1.94-4.96-0.746-4.96-3.716c0-1.244,1.078-2.306,2.985-2.306c1.36,0,2.323,0.514,2.969,1.161
				l-0.581,0.863c-0.481-0.581-1.36-1.012-2.389-1.012c-1.095,0-1.775,0.547-1.775,1.261c0,1.758,4.96,0.597,4.96,3.716
				c0,1.344-1.078,2.422-3.151,2.422C189.197,476.215,188.086,475.817,187.273,474.955z"/>
			<path style="fill:#1C1C1B;" d="M195.053,466.031c0-0.464,0.382-0.846,0.829-0.846c0.465,0,0.846,0.381,0.846,0.846
				c0,0.465-0.381,0.829-0.846,0.829C195.434,466.86,195.053,466.495,195.053,466.031z M195.268,476.016v-8.012h1.244v8.012H195.268
				z"/>
			<path style="fill:#1C1C1B;" d="M198.569,478.073l0.63-0.929c0.663,0.796,1.46,1.095,2.604,1.095c1.327,0,2.571-0.647,2.571-2.405
				v-1.145c-0.581,0.813-1.559,1.427-2.687,1.427c-2.09,0-3.566-1.559-3.566-4.147c0-2.571,1.46-4.163,3.566-4.163
				c1.078,0,2.04,0.531,2.687,1.41v-1.211h1.244v7.78c0,2.654-1.858,3.483-3.815,3.483
				C200.443,479.267,199.514,479.002,198.569,478.073z M204.374,473.711v-3.5c-0.432-0.697-1.393-1.294-2.389-1.294
				c-1.609,0-2.571,1.277-2.571,3.052c0,1.758,0.962,3.052,2.571,3.052C202.981,475.021,203.943,474.408,204.374,473.711z"/>
			<path style="fill:#1C1C1B;" d="M213.099,476.016v-5.242c0-1.41-0.713-1.858-1.791-1.858c-0.979,0-1.908,0.597-2.372,1.244v5.855
				h-1.244v-8.012h1.244v1.161c0.564-0.663,1.658-1.36,2.853-1.36c1.675,0,2.555,0.846,2.555,2.588v5.623H213.099z"/>
			<path style="fill:#1C1C1B;" d="M215.952,472.002c0-2.322,1.659-4.197,3.948-4.197c2.422,0,3.848,1.891,3.848,4.296v0.316h-6.486
				c0.099,1.509,1.161,2.77,2.886,2.77c0.912,0,1.841-0.365,2.472-1.012l0.597,0.813c-0.796,0.796-1.874,1.227-3.185,1.227
				C217.66,476.215,215.952,474.507,215.952,472.002z M219.883,468.834c-1.708,0-2.555,1.443-2.621,2.67h5.258
				C222.503,470.31,221.707,468.834,219.883,468.834z"/>
			<path style="fill:#1C1C1B;" d="M231.146,476.016v-1.194c-0.597,0.813-1.576,1.393-2.704,1.393c-2.09,0-3.566-1.592-3.566-4.196
				c0-2.555,1.46-4.213,3.566-4.213c1.078,0,2.057,0.531,2.704,1.41v-4.263h1.244v11.064H231.146z M231.146,473.843v-3.633
				c-0.448-0.697-1.41-1.294-2.405-1.294c-1.609,0-2.571,1.327-2.571,3.102c0,1.775,0.962,3.085,2.571,3.085
				C229.736,475.104,230.697,474.54,231.146,473.843z"/>
			<path style="fill:#1C1C1B;" d="M238.327,476.016v-11.064h1.244v4.263c0.647-0.879,1.609-1.41,2.704-1.41
				c2.09,0,3.566,1.659,3.566,4.213c0,2.604-1.476,4.196-3.566,4.196c-1.128,0-2.107-0.581-2.704-1.393v1.194H238.327z
				 M241.96,475.104c1.626,0,2.588-1.31,2.588-3.085c0-1.775-0.962-3.102-2.588-3.102c-0.979,0-1.957,0.597-2.388,1.294v3.633
				C240.003,474.54,240.981,475.104,241.96,475.104z"/>
			<path style="fill:#1C1C1B;" d="M247.201,478.023c0.182,0.083,0.481,0.133,0.68,0.133c0.547,0,0.912-0.182,1.194-0.846
				l0.531-1.211l-3.351-8.095h1.344l2.671,6.569l2.654-6.569h1.36l-4.014,9.637c-0.481,1.161-1.294,1.609-2.356,1.625
				c-0.265,0-0.68-0.05-0.912-0.116L247.201,478.023z"/>
		</g>
	</g>
</g>
</svg>
