<?xml version="1.0" encoding="utf-8"?>
<!-- Generator: Adobe Illustrator 27.5.0, SVG Export Plug-In . SVG Version: 6.00 Build 0)  -->
<svg version="1.1" xmlns="http://www.w3.org/2000/svg" xmlns:xlink="http://www.w3.org/1999/xlink" x="0px" y="0px"
	 viewBox="0 0 500 500" style="enable-background:new 0 0 500 500;" xml:space="preserve">
<g id="BACKGROUND">
	<rect style="fill:#EFD4D3;" width="500" height="500"/>
</g>
<g id="OBJECTS">
	<g>
		<g>
			<g>
				<path style="fill:#E8C4C4;" d="M0,152.462c0.711-0.052,1.428-0.08,2.152-0.08c6.255,0,12.049,1.967,16.801,5.315
					c2.79,1.966,7.62,1.803,9.207-2.649c5.622-16.777,21.467-28.867,40.137-28.867c20.248,0,37.173,14.219,41.339,33.216
					c0.786,3.772,3.587,6.24,9.043,5.37c1.497-0.303,3.046-0.463,4.633-0.463c10.391,0,19.186,6.814,22.17,16.217
					c0.786,2.493,3.238,3.268,5.708,1.793c2.476-1.661,5.455-2.629,8.661-2.629c8.117,0,14.781,6.211,15.504,14.14H0V152.462z"/>
				<path style="fill:#DBAFAF;" d="M34.901,175.353c-4.484-8.081-9.79-13.693-17.203-18.197l0.259-0.427
					c7.492,4.551,12.853,10.22,17.382,18.381L34.901,175.353z"/>
				<path style="fill:#DBAFAF;" d="M98.448,178.532l-0.419-0.271c7.885-12.178,19.831-13.641,19.951-13.655l0.056,0.497
					C117.918,165.116,106.2,166.561,98.448,178.532z"/>
				<path style="fill:#DBAFAF;" d="M83.773,184.219l-0.355-0.352c4.071-4.118,9.451-6.272,14.766-5.903
					c4.51,0.312,8.439,2.418,11.062,5.929l-0.401,0.299c-2.535-3.393-6.334-5.428-10.696-5.729
					C92.979,178.105,87.743,180.205,83.773,184.219z"/>
			</g>
			<g>
				<path style="fill:#E8C4C4;" d="M500,161.664c-3.027-0.599-6.155-0.917-9.358-0.917c-14.923,0-28.248,6.816-37.046,17.503
					c-4.221,5.128-10.983,7.594-17.446,6.063c-2.72-0.644-5.556-0.986-8.473-0.986c-14.682,0-27.345,8.624-33.21,21.083
					c-2.154,4.575-6.99,7.277-12.025,6.815c-0.689-0.063-1.386-0.096-2.091-0.096c-9.879,0-18.266,6.297-21.429,15.088H500V161.664z
					"/>
				<path style="fill:#DBAFAF;" d="M459.61,196.736c-0.098-0.092-9.961-9.257-22.865-12.038l0.105-0.489
					c13.044,2.812,23.003,12.07,23.102,12.163L459.61,196.736z"/>
				<path style="fill:#DBAFAF;" d="M448.478,201.501l-0.375-0.331c2.921-3.315,7.641-5.207,12.632-5.063
					c4.588,0.133,8.607,1.983,11.027,5.075l-0.393,0.308c-2.329-2.974-6.21-4.754-10.648-4.883
					C455.899,196.472,451.301,198.295,448.478,201.501z"/>
			</g>
		</g>
		<g>
			<g>
				<path style="fill:#FFFFFF;" d="M310.386,88.027c-2.99-8.31-10.918-14.263-20.258-14.263c-0.667,0-1.326,0.031-1.977,0.09
					c-4.761,0.437-9.333-2.118-11.369-6.443c-5.544-11.778-17.515-19.931-31.395-19.931c-2.758,0-5.439,0.323-8.011,0.932
					c-6.11,1.447-12.503-0.884-16.493-5.732c-8.317-10.103-20.914-16.547-35.022-16.547c-19.961,0-36.903,12.894-42.966,30.807
					c-1.71,5.05-6.761,8.032-12.066,7.492c-0.885-0.09-1.783-0.136-2.692-0.136c-13.654,0-24.87,10.414-26.153,23.732H310.386z"/>
				<path style="fill:#FFFFFF;" d="M33.213,88.027c0.53-6.621,6.06-11.832,12.817-11.832c0.751,0,1.488,0.064,2.204,0.188
					c4.175,0.721,8.338-0.776,11.366-3.741c3.077-3.013,7.288-4.871,11.937-4.871c9.434,0,17.082,7.648,17.082,17.082
					c0,1.086-0.112,2.144-0.306,3.174H33.213z"/>
				<path style="fill:#EFD4D3;" d="M150.147,76.339c-5.537-8.912-17.538-11.531-17.659-11.556l0.128-0.607
					c0.124,0.026,12.38,2.696,18.057,11.836L150.147,76.339z"/>
				<path style="fill:#EFD4D3;" d="M215.249,60.21l-0.425-0.452c0.094-0.088,9.524-8.854,21.875-11.517l0.131,0.606
					C224.651,51.473,215.341,60.123,215.249,60.21z"/>
				<path style="fill:#EFD4D3;" d="M225.667,64.71c-2.656-3.015-6.978-4.733-11.516-4.602c-4.175,0.121-7.824,1.793-10.012,4.588
					l-0.488-0.382c2.302-2.941,6.122-4.699,10.482-4.826c4.741-0.129,9.224,1.662,11.999,4.812L225.667,64.71z"/>
				<path style="fill:#EFD4D3;" d="M58.202,83.469c-2.939-5.61-9.099-6.653-9.161-6.663l0.098-0.612
					c0.065,0.01,6.53,1.105,9.611,6.987L58.202,83.469z"/>
				<path style="fill:#FFFFFF;" d="M399.276,79.222c-0.25,0-0.497,0.008-0.743,0.024c-2.775,0.183-5.454-0.924-7.165-3.115
					c-2.716-3.478-6.945-5.715-11.701-5.715c-4.041,0-7.703,1.616-10.378,4.235c-2.688,2.632-6.444,3.751-10.167,3.207
					c-0.532-0.078-1.077-0.118-1.631-0.118c-5.875,0-10.683,4.53-11.144,10.287h42.007h5.898h15.945
					C409.108,82.994,404.635,79.222,399.276,79.222z"/>
				<path style="fill:#EFD4D3;" d="M367.748,83.9c-1.579-4.053-6.482-5.602-6.531-5.617l0.182-0.593
					c0.213,0.065,5.24,1.655,6.927,5.984L367.748,83.9z"/>
				<path style="fill:#EFD4D3;" d="M390.411,82.677l-0.491-0.379c0.1-0.131,2.534-3.207,8.604-3.363l0.016,0.62
					C392.785,79.703,390.434,82.647,390.411,82.677z"/>
			</g>
		</g>
		<g>
			<g>
				<path style="fill:#D85B6B;" d="M442.861,324.257c-1.359-2.22-3.775-3.573-6.377-3.573h-52.292H115.799H63.507
					c-2.603,0-5.018,1.353-6.377,3.573l-38.831,63.432c-1.669,2.726,0.293,6.226,3.489,6.226h94.011h268.393h93.774
					c3.299,0,5.325-3.614,3.602-6.428L442.861,324.257z"/>
				<path style="fill:#5E1F3C;" d="M477.621,390.853H22.133c-2.006,0-3.759-1.364-4.262-3.317l0.601-0.155
					c0.439,1.706,1.91,2.852,3.661,2.852h455.488c1.245,0,2.383-0.569,3.124-1.561c0.742-0.995,0.978-2.285,0.631-3.451l0.594-0.176
					c0.402,1.352,0.13,2.847-0.728,3.997C480.384,390.193,479.064,390.853,477.621,390.853z"/>
			</g>
			<g>
				<rect x="236.331" y="152.764" style="fill:#F39170;" width="27.207" height="46.87"/>
				<path style="fill:#E87556;" d="M263.538,179.971c-7.356,5.444-16.44,7.437-27.207,6.07v-33.277h27.207V179.971z"/>
				<polygon style="fill:#F39170;" points="226.416,188.764 273.453,188.764 278.154,207.797 263.276,216.223 235.365,212.668 
					231.283,202.493 				"/>
				<path style="fill:#FFFFFF;" d="M325.791,341.34l9.579,2.61c0,0,7.855-5.55,14.72,3.076c9.517,17.103,23.735,19.33,27.087,23.652
					c3.035,3.47,0.907,8.798-4.976,7.994l-60.321-8.244L325.791,341.34z"/>
				<path style="fill:#5E1F3C;" d="M335.697,242.685c-3.669,5.843-22.698,15.642-38.009,17.114l2.006-9.339l14.675-9.339h9.881
					L335.697,242.685z"/>
				<path style="fill:#5E1F3C;" d="M163.373,242.504c3.723,6.075,23.03,16.264,38.566,17.794l-2.035-9.71l-14.89-9.71h-10.026
					L163.373,242.504z"/>
				<path style="fill:#5E1F3C;" d="M363.96,291.073c-20.507-5.95-44.109-10.577-69.586-14.402h-44.439h-44.438
					c-25.29,3.295-48.772,7.666-69.459,13.703c-30.67,8.407-28.015,49.055,5.272,52.043l108.626,12.414l114.751-12.783
					C397.196,338.473,393.622,299.664,363.96,291.073z"/>
				<path style="fill:#FFFFFF;" d="M273.453,188.764h-5.828c-11.405,7.736-24.439,8.23-35.498,0h-5.71
					c-17.224,0-30.506,15.317-28.23,32.555l7.31,55.352c14.07,2.951,26.006,28.514,44.439,28.422
					c16.552-0.083,27.297-25.471,44.438-28.422l7.31-55.352C303.959,204.081,290.677,188.764,273.453,188.764z"/>
				<g>
					<path style="fill:#F39170;" d="M200.871,253.327l-6.651-16.548l-18.315,1.506l-6.955,13.387l-0.25,0.48
						c-22.971,4.63-59.504,19.682-59.504,19.682l2.527,20.854c0,0,55.667-6.618,74.87-15.036c0.273-0.164,0.555-0.379,0.84-0.619
						l0,0C193.101,272.267,200.871,253.327,200.871,253.327z"/>
					<polygon style="fill:#5E1F3C;" points="170.871,256.776 168.441,252.305 168.959,251.999 171.389,256.471 					"/>
				</g>
				<path style="fill:#FFFFFF;" d="M224.791,188.809c-21.154,0.409-40.72,8.348-61.417,53.695
					c7.445-0.789,32.452,10.26,38.566,17.794L224.791,188.809z"/>
				<g>
					<path style="fill:#F39170;" d="M298.189,255.164l6.555-15.916l18.051,1.448l6.855,12.876l0.246,0.462
						c22.639,4.452,59.981,19.077,59.981,19.077l-3.826,19.91c0,0-54.864-6.365-73.789-14.461c-0.269-0.157-0.547-0.365-0.828-0.595
						l0,0C305.848,273.38,298.189,255.164,298.189,255.164z"/>
					<polygon style="fill:#5E1F3C;" points="327.759,258.491 327.244,258.179 329.639,253.879 330.154,254.19 					"/>
				</g>
				<path style="fill:#FFFFFF;" d="M274.385,188.809c20.848,0.393,40.914,10.262,61.313,53.876
					c-7.338-0.759-31.983,9.868-38.009,17.114l-25.423-68.801L274.385,188.809z"/>
				<path style="fill:#5E1F3C;" d="M138.202,342.016l177.95,31.125c8.974-11.681,10.719-27.215,7.268-45.517L138.202,342.016z"/>
				
					<rect x="200.34" y="223.067" transform="matrix(0.9914 -0.1309 0.1309 0.9914 -29.6902 28.3343)" style="fill:#5E1F3C;" width="0.621" height="33.818"/>
				
					<rect x="282.126" y="240.297" transform="matrix(0.1302 -0.9915 0.9915 0.1302 21.53 505.7571)" style="fill:#5E1F3C;" width="33.817" height="0.62"/>
				<g>
					<path style="fill:#F39170;" d="M117.542,265.995c-1.884-1.395-4.15-2.31-6.72-2.795c-4.212-0.794-8.578-0.447-12.72,0.574
						l-6.618,1.409c-4.538,1.179-1.742,6.261,3.971,5.123c0,0,7.78-0.935,7.699,2.846c-8.079,1.635-15.617,3.782-22.718,6.342
						c-3.809,1.436-2.35,6.18,1.837,5.421c-2.457,0.681-4.405,2.082-3.666,4.426c0.858,2.583,3.757,1.742,6.8,0.941
						c0,0-2.438,0.436-1.627,3.436c0.715,2.44,3.223,1.763,4.977,1.443c-1.711,1.701-0.639,4.895,3.461,4.13
						c3.351-0.34,9.307-1.455,12.587-2.213c6.205-1.434,13.16-2.851,16.754-8.699C125.613,281.781,123.871,270.682,117.542,265.995z
						"/>
					<path style="fill:#5E1F3C;" d="M110.663,279.926c-2.085,0-3.811-0.551-5.148-1.65c-2.405-1.976-2.649-4.973-2.658-5.1
						l0.594-0.047c0.002,0.028,0.239,2.863,2.439,4.665c1.674,1.372,4.038,1.812,7.023,1.314l0.095,0.612
						C112.182,279.857,111.399,279.926,110.663,279.926z"/>
					<polygon style="fill:#5E1F3C;" points="82.338,285.218 82.208,284.612 97.118,281.143 97.248,281.749 					"/>
					<polygon style="fill:#5E1F3C;" points="85.466,290.586 85.347,289.979 98.313,287.214 98.432,287.821 					"/>
					<polygon style="fill:#5E1F3C;" points="88.813,295.465 88.7,294.857 100.842,292.417 100.955,293.026 					"/>
					<path style="fill:#5E1F3C;" d="M118.67,291.851l-0.42-0.446c0.036-0.036,3.572-3.668,3.993-7.237l0.592,0.083
						C122.388,288.034,118.821,291.696,118.67,291.851z"/>
				</g>
				<g>
					<path style="fill:#F39170;" d="M383.455,268.263c1.857-1.342,4.09-2.222,6.623-2.688c4.151-0.764,8.454-0.43,12.536,0.552
						l6.523,1.356c4.473,1.134,1.717,6.022-3.914,4.927c0,0-7.667-0.899-7.587,2.737c7.963,1.572,15.391,3.638,22.39,6.1
						c3.754,1.382,2.316,5.944-1.81,5.214c2.421,0.655,4.342,2.002,3.613,4.256c-0.846,2.484-3.703,1.676-6.702,0.905
						c0,0,2.403,0.419,1.604,3.304c-0.705,2.346-3.177,1.696-4.905,1.388c1.686,1.636,0.63,4.708-3.411,3.972
						c-3.303-0.328-9.173-1.399-12.405-2.128c-6.115-1.379-12.969-2.742-16.512-8.366
						C375.501,283.446,377.217,272.771,383.455,268.263z"/>
					<path style="fill:#5E1F3C;" d="M390.236,281.673c-0.727,0-1.497-0.066-2.31-0.199l0.092-0.612
						c2.98,0.485,5.329,0.045,6.981-1.31c2.109-1.732,2.339-4.403,2.34-4.43l0.594,0.049c-0.009,0.119-0.245,2.958-2.558,4.862
						C394.047,281.124,392.325,281.673,390.236,281.673z"/>
					<polygon style="fill:#5E1F3C;" points="418.152,286.763 403.456,283.426 403.583,282.821 418.279,286.157 					"/>
					<polygon style="fill:#5E1F3C;" points="415.068,291.926 402.289,289.267 402.406,288.658 415.185,291.317 					"/>
					<polygon style="fill:#5E1F3C;" points="411.771,296.619 399.803,294.272 399.913,293.663 411.881,296.01 					"/>
					<path style="fill:#5E1F3C;" d="M381.003,292.177c-0.173-0.122-4.233-3.039-5.278-6.563l0.569-0.182
						c0.983,3.315,5.004,6.204,5.044,6.233L381.003,292.177z"/>
				</g>
				<path style="fill:#EFD4D3;" d="M376.595,370.06c0.219,0.207,0.417,0.417,0.584,0.633c2.979,3.407,0.974,8.589-4.665,8.018
					C372.749,375.391,373.921,372.005,376.595,370.06z"/>
				<path style="fill:#EFD4D3;" d="M349.468,352.659c-1.958-0.017-3.905-0.428-5.736-1.114c-1.746-0.655-3.531-1.605-4.889-2.898
					c-1.481-1.41-2.248-3.208-2.738-5.118c2.103-1.119,8.375-3.541,13.986,3.512c1.026,1.845,2.11,3.507,3.226,5.027
					C352.091,352.492,350.781,352.671,349.468,352.659z"/>
				<path style="fill:#FFFFFF;" d="M181.746,340.641l-9.579,2.61c0,0-7.855-5.55-14.72,3.076
					c-9.517,17.103-23.735,19.33-27.087,23.652c-3.035,3.47-0.907,8.798,4.976,7.994l60.321-8.244L181.746,340.641z"/>
				<path style="fill:#EFD4D3;" d="M130.944,369.347c-0.219,0.207-0.417,0.417-0.584,0.633c-2.979,3.407-0.974,8.588,4.665,8.018
					C134.79,374.678,133.618,371.292,130.944,369.347z"/>
				<path style="fill:#EFD4D3;" d="M158.071,351.946c1.958-0.017,3.905-0.428,5.736-1.114c1.746-0.655,3.531-1.605,4.889-2.899
					c1.481-1.409,2.248-3.208,2.738-5.117c-2.103-1.119-8.375-3.541-13.986,3.512c-1.027,1.845-2.11,3.507-3.226,5.027
					C155.448,351.779,156.758,351.957,158.071,351.946z"/>
				<path style="fill:#5E1F3C;" d="M367.459,341.566l-178.554,30.876c-8.974-11.681-10.719-27.215-7.268-45.517L367.459,341.566z"/>
				<path style="fill:#5E1F3C;" d="M240.809,301.939c-8.366-4.696-12.1-10.39-15.395-15.414c-3.305-5.041-6.159-9.394-12.801-11.818
					l0.213-0.583c6.834,2.495,9.741,6.928,13.107,12.061c3.255,4.964,6.945,10.591,15.179,15.213L240.809,301.939z"/>
				<path style="fill:#5E1F3C;" d="M260.493,298.78l-0.304-0.541c6.31-3.542,9.139-7.856,11.635-11.663
					c2.484-3.789,4.831-7.368,10.102-9.292l0.213,0.583c-5.079,1.853-7.265,5.188-9.797,9.048
					C269.808,290.782,266.935,295.164,260.493,298.78z"/>
				<path style="fill:#5E1F3C;" d="M251.738,302.507c-0.355,0-0.728-0.011-1.12-0.035c-10.114-0.595-17.256-11.902-17.327-12.015
					l0.526-0.328c0.069,0.111,7.046,11.148,16.838,11.725c6.154,0.351,7.22-2.257,8.854-6.22c0.979-2.375,2.088-5.067,4.523-7.798
					l0.464,0.413c-2.366,2.651-3.454,5.291-4.413,7.62C258.51,299.686,257.347,302.507,251.738,302.507z"/>
				<polygon style="fill:#3A1025;" points="180.494,335.218 180.373,334.609 314.882,297.481 315.003,298.09 				"/>
				<polygon style="fill:#3A1025;" points="244.962,317.39 181.575,297.378 181.696,296.783 245.082,316.794 				"/>
				<polygon style="fill:#3A1025;" points="251.539,362 251.455,361.384 324.983,348.58 325.067,349.196 				"/>
				<path style="fill:#3A1025;" d="M242.464,316.586c-5.868-11.606-17.014-15.46-17.126-15.498l0.197-0.588
					c0.115,0.038,11.495,3.966,17.483,15.807L242.464,316.586z"/>
				<path style="fill:#3A1025;" d="M257.104,314.039l-0.588-0.196c0.04-0.123,4.254-12.317,18.8-17.312l0.202,0.586
					C261.272,302.008,257.144,313.919,257.104,314.039z"/>
				<g>
					<path style="fill:#5E1F3C;" d="M278.064,159.202c-1.203,5.781-4.067,10.502-9.546,13.552l0.551-8.578l5.397-8.679
						L278.064,159.202z"/>
					<path style="fill:#5E1F3C;" d="M279.35,144.755c0,19.26-13.199,31.105-29.311,31.105c-16.113,0-30.419-12.071-30.419-31.332
						c-3.872-20.555,9.98-38.416,30.419-38.416C270.478,106.112,283.479,123.632,279.35,144.755z"/>
					<g>
						<path style="fill:#F39170;" d="M273.318,146.419c0,0,4.445-4.311,8.611,0.085c4.166,4.397-0.543,21.237-8.507,17.72
							C265.46,160.706,273.318,146.419,273.318,146.419z"/>
						<path style="fill:#5E1F3C;" d="M274.968,158.291l-0.09-0.614c4.384-0.646,4.639-6.19,4.641-6.246l0.62,0.023
							C280.136,151.515,279.857,157.57,274.968,158.291z"/>
						<path style="fill:#5E1F3C;" d="M278.511,155.519c-1.514-1.456-3.411-0.645-3.43-0.637l-0.25-0.568
							c0.094-0.041,2.3-0.983,4.109,0.758L278.511,155.519z"/>
					</g>
					<path style="fill:#5E1F3C;" d="M221.705,159.202c1.203,5.781,4.067,10.502,9.546,13.552l-0.551-8.578l-5.397-8.679
						L221.705,159.202z"/>
					<path style="fill:#F39170;" d="M262.675,116.256c-7.431-4.884-17.151-4.98-24.676-0.245
						c-8.253,5.193-12.212,14.843-11.885,26.764l-0.157,15.92c1.05,14.421,12.192,22.896,23.733,23.011
						c11.54,0.114,22.847-8.139,24.182-22.536l0.157-15.92C274.592,131.338,270.824,121.612,262.675,116.256z"/>
					<g>
						<path style="fill:#F39170;" d="M226.751,145.958c0,0-4.359-4.399-8.611-0.085c-4.252,4.313,0.124,21.243,8.155,17.885
							C234.326,160.398,226.751,145.958,226.751,145.958z"/>
						<path style="fill:#5E1F3C;" d="M224.866,157.794c-4.874-0.817-5.034-6.876-5.035-6.938l0.62-0.011
							c0.004,0.228,0.154,5.605,4.518,6.338L224.866,157.794z"/>
					</g>
					<path style="fill:#5E1F3C;" d="M221.38,154.953l-0.422-0.455c1.845-1.704,4.032-0.719,4.124-0.676l-0.261,0.563
						C224.745,154.35,222.912,153.535,221.38,154.953z"/>
					<path style="fill:#5E1F3C;" d="M225.979,138.775c3.448-3.188,5.231-6.242,5.779-11.846c0,0,5.705,8.738,23.771,8.46
						c-1.906-1.403-3.339-3.082-4.3-5.033c0.137,0.283,5.454,5.511,15.318,5.74c-2.051-1.15-3.543-2.602-4.166-4.523
						c0,0,6.462,4.038,12.7,3.651l-1.496-5.877l-5.919-14.407l-14.905-6.451l-14.015,3.226l-6.952,5.951l-4.602,6.16
						L225.979,138.775z"/>
					<path style="fill:#5E1F3C;" d="M230.929,124.575c0,0,6.19-11.558,22.144-10.139c20.811,2.737,23.011,20.147,23.011,20.147
						c-1.224,0.946-3.437,0.783-6.091,0.126l-7.998-4.141l-9.725-0.167l-9.381-1.147L230.929,124.575z"/>
					<path style="fill:#E87556;" d="M226.736,163.553l-0.938-3.653l-0.323,4.133C225.917,163.924,226.338,163.766,226.736,163.553z"
						/>
					<path style="fill:#E87556;" d="M272.999,164.016l0.938-3.653l0.323,4.155C273.829,164.404,273.397,164.229,272.999,164.016z"/>
					<g>
						<path style="fill:#5E1F3C;" d="M251.471,160.369l-0.26-0.563c0.597-0.277,2.273-1.25,2.144-2.07
							c-0.08-0.505-1.067-1.81-1.937-2.962c-1.181-1.563-2.297-3.039-2.361-3.864c-0.115-1.469,1.23-3.731,1.287-3.826l0.531,0.319
							c-0.013,0.022-1.3,2.187-1.2,3.459c0.05,0.645,1.263,2.249,2.238,3.539c1.046,1.385,1.951,2.58,2.054,3.239
							C254.191,159.069,251.75,160.241,251.471,160.369z"/>
						<path style="fill:#5E1F3C;" d="M250.894,166.023c-1.694,0-3.11-0.274-4.211-0.609c-2.64-0.806-4.058-2.105-4.117-2.161
							l0.422-0.454c0.055,0.051,5.562,5,14.904,1.103l0.239,0.572C255.362,165.628,252.928,166.023,250.894,166.023z"/>
						<path style="fill:#5E1F3C;" d="M251.296,169.214c-0.047,0-0.094,0-0.142-0.001c-1.577-0.028-2.964-0.517-3.618-1.277
							l0.47-0.404c0.535,0.62,1.775,1.037,3.16,1.062c1.414,0.018,2.634-0.359,3.229-1.002l0.455,0.421
							C254.149,168.768,252.827,169.214,251.296,169.214z"/>
						<path style="fill:#5E1F3C;" d="M232.575,144.281c0.761-0.616,1.683-1.025,2.64-1.258c0.962-0.225,1.955-0.272,2.926-0.219
							c1.949,0.118,3.799,0.715,5.465,1.562c0.249,0.126,0.348,0.43,0.221,0.679c-0.111,0.218-0.357,0.321-0.584,0.258l-0.004-0.001
							c-1.731-0.477-3.459-0.843-5.168-0.885c-1.724-0.054-3.325,0.325-5.038,0.759l-0.008,0.002
							c-0.275,0.07-0.554-0.097-0.624-0.372C232.35,144.606,232.425,144.403,232.575,144.281z"/>
						<path style="fill:#5E1F3C;" d="M266.781,145.52c-1.661-0.465-3.204-0.875-4.884-0.855c-1.663,0.009-3.353,0.34-5.049,0.782
							l-0.004,0.001c-0.27,0.07-0.546-0.091-0.616-0.361c-0.061-0.236,0.054-0.476,0.264-0.58c1.637-0.813,3.455-1.376,5.367-1.456
							c0.951-0.034,1.924,0.034,2.861,0.279c0.932,0.253,1.823,0.681,2.546,1.31c0.214,0.186,0.237,0.511,0.05,0.725
							c-0.134,0.154-0.341,0.209-0.526,0.158L266.781,145.52z"/>
						<path style="fill:#5E1F3C;" d="M238.263,152.13c-1.389,0-2.827-0.332-4.335-0.995l0.25-0.568
							c2.841,1.251,5.411,1.253,7.855,0.008l0.281,0.552C241.001,151.796,239.657,152.13,238.263,152.13z"/>
						<path style="fill:#5E1F3C;" d="M261.697,152.13c-1.394,0-2.738-0.334-4.05-1.003l0.281-0.552
							c2.445,1.246,5.014,1.243,7.854-0.008l0.25,0.568C264.524,151.798,263.084,152.13,261.697,152.13z"/>
						<path style="fill:#E87556;" d="M232.622,154.726c0,0.661-0.915,1.197-2.043,1.197c-1.129,0-2.043-0.536-2.043-1.197
							c0-0.661,0.915-1.197,2.043-1.197C231.707,153.529,232.622,154.065,232.622,154.726z"/>
						<path style="fill:#E87556;" d="M271.34,154.726c0,0.661-0.915,1.197-2.043,1.197c-1.129,0-2.044-0.536-2.044-1.197
							c0-0.661,0.915-1.197,2.044-1.197C270.425,153.529,271.34,154.065,271.34,154.726z"/>
					</g>
				</g>
				<g>
					<path style="fill:#EFD4D3;" d="M245.4,234.745c5.448,6.407,6.218,15.29,6.219,19.78c0.002-4.49,0.771-13.374,6.219-19.78
						c1.004-1.18,2.118-2.214,3.293-3.125c-2.01-9.508-9.512-16.626-9.512-16.626s-7.502,7.118-9.512,16.626
						C243.282,232.531,244.396,233.564,245.4,234.745z"/>
					<path style="fill:#EFD4D3;" d="M235.554,245.967c5.123,0.897,9.325,4.024,12.145,6.768c-2.805-3.882-6.086-9.853-6.086-16.554
						c0-1.566,0.184-3.091,0.494-4.56c-7.694-5.969-18.055-6.532-18.055-6.532s-1.3,12.068,4.801,20.921
						C230.987,245.65,233.259,245.565,235.554,245.967z"/>
					<path style="fill:#EFD4D3;" d="M251.503,257.366c0,0-13.767-0.743-21.348-9.657c-0.468-0.55-0.9-1.119-1.302-1.701
						c-6.856,1.153-12.262,5.162-12.262,5.162s6.393,9.645,16.065,11.339c9.336,1.635,18.926-5.178,18.926-5.178
						s-0.04-0.039-0.07-0.069C251.507,257.325,251.503,257.366,251.503,257.366z"/>
					<path style="fill:#EFD4D3;" d="M255.539,252.734c2.82-2.744,7.022-5.871,12.145-6.768c2.295-0.402,4.567-0.317,6.701,0.042
						c6.101-8.852,4.801-20.921,4.801-20.921s-10.361,0.563-18.055,6.532c0.31,1.469,0.494,2.994,0.494,4.56
						C261.625,242.882,258.344,248.852,255.539,252.734z"/>
					<path style="fill:#EFD4D3;" d="M274.385,246.009c-0.401,0.582-0.834,1.151-1.302,1.701c-7.58,8.913-21.348,9.657-21.348,9.657
						s-0.004-0.041-0.01-0.103c-0.03,0.029-0.053,0.052-0.07,0.069c0.614,0.446,9.59,6.813,18.926,5.178
						c9.673-1.694,16.065-11.339,16.065-11.339S281.241,247.162,274.385,246.009z"/>
					<path style="fill:#E8C1C1;" d="M267.684,245.967c-5.123,0.897-9.325,4.024-12.145,6.768c2.805-3.882,6.086-9.853,6.086-16.554
						c0-1.566-0.184-3.091-0.494-4.56c-1.175,0.911-2.289,1.945-3.293,3.125c-5.247,6.17-6.152,14.625-6.213,19.253
						c-0.005,0.001-0.007,0.002-0.012,0.003c-0.061-4.627-0.965-13.084-6.213-19.255c-1.004-1.18-2.118-2.214-3.293-3.125
						c-0.311,1.469-0.494,2.994-0.494,4.56c0,6.701,3.281,12.672,6.086,16.554c-2.82-2.744-7.022-5.871-12.145-6.768
						c-2.295-0.402-4.567-0.317-6.701,0.042c0.401,0.582,0.834,1.151,1.302,1.701c7.58,8.913,21.372,9.661,21.372,9.661l0.181,0
						c0,0,13.794-0.747,21.374-9.661c0.468-0.55,0.901-1.119,1.302-1.701C272.252,245.65,269.98,245.565,267.684,245.967z"/>
				</g>
				<path style="fill:#5E1F3C;" d="M249.329,199.308c-0.863,0-1.724-0.035-2.584-0.105c-7.891-0.64-14.924-4.261-19.802-10.197
					l0.48-0.394c4.77,5.805,11.65,9.347,19.373,9.973c9.454,0.767,19.171-2.789,27.385-10.009l0.41,0.466
					C266.994,195.719,258.115,199.308,249.329,199.308z"/>
			</g>
		</g>
		<g>
			<g>
				<path style="fill:#FFFFFF;" d="M499.558,442.887c-0.982-0.072-1.972-0.111-2.972-0.111c-8.637,0-16.638,2.716-23.199,7.339
					c-3.852,2.714-10.522,2.49-12.713-3.658c-7.763-23.166-29.641-39.859-55.421-39.859c-27.958,0-51.327,19.633-57.08,45.864
					c-1.085,5.209-4.953,8.616-12.486,7.415c-2.067-0.419-4.206-0.639-6.397-0.639c-14.348,0-26.492,9.409-30.612,22.392
					c-1.085,3.442-4.47,4.513-7.882,2.475c-3.419-2.293-7.532-3.63-11.958-3.63c-11.208,0-20.409,8.576-21.408,19.524h242.129
					V442.887z"/>
				<path style="fill:#EFD4D3;" d="M451.337,474.478l-0.543-0.3c6.25-11.263,13.648-19.087,23.987-25.367l0.321,0.53
					C464.861,455.562,457.531,463.315,451.337,474.478z"/>
				<path style="fill:#EFD4D3;" d="M363.651,478.867c-10.713-16.545-26.91-18.541-27.072-18.559l0.069-0.617
					c0.165,0.019,16.644,2.037,27.523,18.838L363.651,478.867z"/>
				<path style="fill:#EFD4D3;" d="M383.911,486.713c-5.488-5.55-12.732-8.443-19.876-7.958c-6.035,0.417-11.289,3.232-14.796,7.926
					l-0.497-0.371c3.617-4.84,9.033-7.742,15.25-8.173c7.33-0.509,14.745,2.462,20.36,8.14L383.911,486.713z"/>
			</g>
			<g>
				<path style="fill:#FFFFFF;" d="M58.176,426.351c0.391,0,0.779,0.014,1.163,0.041c4.114,0.288,8.033-1.516,10.6-4.744
					c4.003-5.033,10.174-8.26,17.105-8.26c5.839,0,11.139,2.29,15.057,6.021c4.026,3.834,9.58,5.796,15.075,4.953
					c0.82-0.126,1.66-0.191,2.515-0.191c4.536,0,8.639,1.835,11.614,4.802c2.358,2.353,5.801,3.26,8.936,2.135
					c0.956-0.343,1.987-0.53,3.063-0.53c4.906,0,8.896,3.88,9.094,8.738h-16.301h-1.887H74.255h-8.683H42.098
					C43.702,431.905,50.287,426.351,58.176,426.351z"/>
				<path style="fill:#EFD4D3;" d="M104.418,433.17l-0.501-0.195c2.45-6.29,10.001-8.676,10.077-8.699l0.158,0.514
					C114.078,424.813,106.772,427.126,104.418,433.17z"/>
				<path style="fill:#EFD4D3;" d="M71.376,431.324c-0.034-0.045-3.538-4.448-12.113-4.667l0.014-0.538
					c8.849,0.226,12.379,4.687,12.525,4.877L71.376,431.324z"/>
				<path style="fill:#EFD4D3;" d="M67.659,434.308l-0.438-0.312c2.877-4.038,8.412-3.517,8.647-3.495l-0.054,0.535
					C75.758,431.03,70.351,430.53,67.659,434.308z"/>
				<path style="fill:#EFD4D3;" d="M137.264,435.095c-0.022-0.03-2.229-3.009-5.011-4.965l0.31-0.44
					c2.856,2.008,5.043,4.961,5.135,5.087L137.264,435.095z"/>
				<path style="fill:#EFD4D3;" d="M135.082,435.899l-0.276-0.462c1.704-1.016,4.349-1.002,5.553,0.027l-0.35,0.409
					C138.979,434.989,136.583,435.003,135.082,435.899z"/>
			</g>
		</g>
	</g>
</g>
</svg>
