<?xml version="1.0" encoding="utf-8"?>
<!-- Generator: Adobe Illustrator 27.5.0, SVG Export Plug-In . SVG Version: 6.00 Build 0)  -->
<svg version="1.1" xmlns="http://www.w3.org/2000/svg" xmlns:xlink="http://www.w3.org/1999/xlink" x="0px" y="0px"
	 viewBox="0 0 500 500" style="enable-background:new 0 0 500 500;" xml:space="preserve">
<g id="Background_Complete">
	<g>
		<rect y="382.398" style="fill:#EBEBEB;" width="500" height="0.25"/>
		<rect x="416.779" y="398.494" style="fill:#EBEBEB;" width="33.122" height="0.25"/>
		<rect x="322.527" y="401.208" style="fill:#EBEBEB;" width="8.693" height="0.25"/>
		<rect x="396.586" y="389.208" style="fill:#EBEBEB;" width="19.192" height="0.25"/>
		<rect x="52.459" y="390.888" style="fill:#EBEBEB;" width="43.193" height="0.25"/>
		<rect x="104.556" y="390.888" style="fill:#EBEBEB;" width="6.333" height="0.25"/>
		<rect x="131.471" y="395.111" style="fill:#EBEBEB;" width="93.676" height="0.25"/>
		<path style="fill:#EBEBEB;" d="M237.014,337.8H43.915c-3.147,0-5.708-2.561-5.708-5.708V60.66c0-3.147,2.561-5.708,5.708-5.708
			h193.099c3.146,0,5.707,2.561,5.707,5.708v271.432C242.721,335.239,240.16,337.8,237.014,337.8z M43.915,55.203
			c-3.01,0-5.458,2.448-5.458,5.458v271.432c0,3.01,2.448,5.458,5.458,5.458h193.099c3.009,0,5.457-2.448,5.457-5.458V60.66
			c0-3.009-2.448-5.458-5.457-5.458H43.915z"/>
		<path style="fill:#EBEBEB;" d="M453.31,337.8H260.212c-3.147,0-5.707-2.561-5.707-5.708V60.66c0-3.147,2.561-5.708,5.707-5.708
			H453.31c3.148,0,5.708,2.561,5.708,5.708v271.432C459.019,335.239,456.458,337.8,453.31,337.8z M260.212,55.203
			c-3.009,0-5.457,2.448-5.457,5.458v271.432c0,3.01,2.448,5.458,5.457,5.458H453.31c3.01,0,5.458-2.448,5.458-5.458V60.66
			c0-3.009-2.448-5.458-5.458-5.458H260.212z"/>
	</g>
	<g>
		<rect x="171.23" y="151.511" style="fill:#E6E6E6;" width="33.374" height="22.727"/>
		<rect x="192.101" y="159.132" style="fill:#EBEBEB;" width="26.277" height="17.894"/>
		<circle style="fill:#E6E6E6;" cx="151.29" cy="170.103" r="6.95"/>
		
			<rect x="119.969" y="141.893" transform="matrix(0.958 -0.2869 0.2869 0.958 -39.9392 41.153)" style="fill:#E0E0E0;" width="1" height="29.96"/>
		
			<rect x="106.868" y="155.714" transform="matrix(0.3077 -0.9515 0.9515 0.3077 -63.7279 224.8421)" style="fill:#E0E0E0;" width="31.552" height="1"/>
		
			<rect x="120.817" y="138.809" transform="matrix(0.9987 -0.0506 0.0506 0.9987 -7.7159 6.3372)" style="fill:#E0E0E0;" width="1" height="33.538"/>
		<rect x="115.601" y="159.666" style="fill:#EBEBEB;" width="13.13" height="15.865"/>
		
			<rect x="68.882" y="174.237" transform="matrix(-1 -1.224647e-16 1.224647e-16 -1 302.2855 556.8065)" style="fill:#F0F0F0;" width="164.521" height="208.332"/>
		<g>
			
				<rect x="74.697" y="181.83" transform="matrix(-1 -1.224647e-16 1.224647e-16 -1 302.2854 408.2097)" style="fill:#E0E0E0;" width="152.891" height="44.549"/>
			
				<rect x="218.903" y="189.042" transform="matrix(-1 -1.224647e-16 1.224647e-16 -1 446.491 415.4216)" style="fill:#EBEBEB;" width="8.685" height="37.337"/>
			
				<rect x="176.907" y="189.042" transform="matrix(-1 -1.224647e-16 1.224647e-16 -1 362.4986 415.4216)" style="fill:#EBEBEB;" width="8.685" height="37.337"/>
			
				<rect x="125.997" y="188.576" transform="matrix(-0.9855 -0.1698 0.1698 -0.9855 223.5898 433.6137)" style="fill:#EBEBEB;" width="8.685" height="37.337"/>
			
				<rect x="208.141" y="193.963" transform="matrix(-1 -1.224647e-16 1.224647e-16 -1 424.9675 420.3419)" style="fill:#EBEBEB;" width="8.685" height="32.417"/>
			
				<rect x="188.178" y="193.963" transform="matrix(-1 -1.224647e-16 1.224647e-16 -1 385.0417 420.3419)" style="fill:#EBEBEB;" width="8.685" height="32.417"/>
			
				<rect x="137.79" y="193.963" transform="matrix(-1 -1.224647e-16 1.224647e-16 -1 284.2644 420.3419)" style="fill:#EBEBEB;" width="8.685" height="32.417"/>
			
				<rect x="161.88" y="193.406" transform="matrix(-0.9762 -0.2169 0.2169 -0.9762 283.02 450.2944)" style="fill:#EBEBEB;" width="8.685" height="32.417"/>
			
				<rect x="200.631" y="187.189" transform="matrix(-1 -1.224647e-16 1.224647e-16 -1 405.6047 413.5679)" style="fill:#EBEBEB;" width="4.343" height="39.191"/>
			
				<rect x="148.971" y="187.189" transform="matrix(-1 -1.224647e-16 1.224647e-16 -1 302.2856 413.5679)" style="fill:#EBEBEB;" width="4.343" height="39.191"/>
		</g>
		<g>
			<rect x="74.697" y="233.433" style="fill:#E0E0E0;" width="152.891" height="44.549"/>
			<rect x="74.697" y="240.645" style="fill:#EBEBEB;" width="8.685" height="37.337"/>
			<rect x="116.694" y="240.645" style="fill:#EBEBEB;" width="8.685" height="37.337"/>
			
				<rect x="167.603" y="240.179" transform="matrix(0.9855 -0.1698 0.1698 0.9855 -41.4648 32.9641)" style="fill:#EBEBEB;" width="8.685" height="37.337"/>
			<rect x="85.459" y="245.566" style="fill:#EBEBEB;" width="8.685" height="32.417"/>
			<rect x="105.422" y="245.566" style="fill:#EBEBEB;" width="8.685" height="32.417"/>
			<rect x="155.811" y="245.566" style="fill:#EBEBEB;" width="8.685" height="32.417"/>
			
				<rect x="131.72" y="245.01" transform="matrix(0.9762 -0.2169 0.2169 0.9762 -53.4213 35.7325)" style="fill:#EBEBEB;" width="8.685" height="32.417"/>
			<rect x="97.312" y="238.792" style="fill:#EBEBEB;" width="4.343" height="39.191"/>
			<rect x="148.971" y="238.792" style="fill:#EBEBEB;" width="4.343" height="39.191"/>
			
				<rect x="218.903" y="240.645" transform="matrix(-1 -1.224647e-16 1.224647e-16 -1 446.491 518.6275)" style="fill:#EBEBEB;" width="8.685" height="37.337"/>
			
				<rect x="208.141" y="245.566" transform="matrix(-1 -1.224647e-16 1.224647e-16 -1 424.9675 523.5479)" style="fill:#EBEBEB;" width="8.685" height="32.417"/>
			
				<rect x="188.178" y="245.566" transform="matrix(-1 -1.224647e-16 1.224647e-16 -1 385.0417 523.5479)" style="fill:#EBEBEB;" width="8.685" height="32.417"/>
			
				<rect x="200.631" y="238.792" transform="matrix(-1 -1.224647e-16 1.224647e-16 -1 405.6047 516.7739)" style="fill:#EBEBEB;" width="4.343" height="39.191"/>
		</g>
		<g>
			
				<rect x="74.697" y="285.036" transform="matrix(-1 -1.224647e-16 1.224647e-16 -1 302.2854 614.6218)" style="fill:#E0E0E0;" width="152.891" height="44.549"/>
			<g>
				
					<rect x="131.149" y="292.248" transform="matrix(-1 -1.224647e-16 1.224647e-16 -1 270.9829 621.8338)" style="fill:#EBEBEB;" width="8.685" height="37.337"/>
				
					<rect x="80.239" y="291.782" transform="matrix(-0.9855 -0.1698 0.1698 -0.9855 115.2077 630.756)" style="fill:#EBEBEB;" width="8.685" height="37.337"/>
				
					<rect x="162.383" y="297.169" transform="matrix(-1 -1.224647e-16 1.224647e-16 -1 333.4517 626.7541)" style="fill:#EBEBEB;" width="8.685" height="32.417"/>
				
					<rect x="142.42" y="297.169" transform="matrix(-1 -1.224647e-16 1.224647e-16 -1 293.5257 626.7541)" style="fill:#EBEBEB;" width="8.685" height="32.417"/>
				
					<rect x="92.032" y="297.169" transform="matrix(-1 -1.224647e-16 1.224647e-16 -1 192.7488 626.7541)" style="fill:#EBEBEB;" width="8.685" height="32.417"/>
				
					<rect x="116.122" y="296.613" transform="matrix(-0.9762 -0.2169 0.2169 -0.9762 170.2036 644.3246)" style="fill:#EBEBEB;" width="8.685" height="32.417"/>
				
					<rect x="154.873" y="290.395" transform="matrix(-1 -1.224647e-16 1.224647e-16 -1 314.0887 619.98)" style="fill:#EBEBEB;" width="4.343" height="39.191"/>
				
					<rect x="103.214" y="290.395" transform="matrix(-1 -1.224647e-16 1.224647e-16 -1 210.7697 619.98)" style="fill:#EBEBEB;" width="4.343" height="39.191"/>
				
					<rect x="180.159" y="291.782" transform="matrix(-0.9855 -0.1698 0.1698 -0.9855 313.5969 647.7264)" style="fill:#EBEBEB;" width="8.685" height="37.337"/>
				
					<rect x="191.952" y="297.169" transform="matrix(-1 -1.224647e-16 1.224647e-16 -1 392.5896 626.7541)" style="fill:#EBEBEB;" width="8.685" height="32.417"/>
				
					<rect x="216.042" y="296.613" transform="matrix(-0.9762 -0.2169 0.2169 -0.9762 367.6652 665.9994)" style="fill:#EBEBEB;" width="8.685" height="32.417"/>
				
					<rect x="203.134" y="290.395" transform="matrix(-1 -1.224647e-16 1.224647e-16 -1 410.6105 619.98)" style="fill:#EBEBEB;" width="4.343" height="39.191"/>
			</g>
		</g>
	</g>
	<g>
		<g>
			<path style="fill:#EBEBEB;" d="M94.36,145.426c0,0,4.888-5.818,8.017-3.104c3.129,2.713,1.546,8.469-2.062,8.655
				c-3.608,0.185-5.955-1.819-5.955-1.819V145.426z"/>
			<path style="fill:#F0F0F0;" d="M74.416,130.671c0,0-4.106-4.301-6.648-3.572c-2.542,0.729-2.277,11.005,5.607,6.845
				L74.416,130.671z"/>
			<path style="fill:#F0F0F0;" d="M89.081,162.759c0,0,13.492-18.457,2.542-22.196c-10.95-3.739-12.905,14.85-9.776,20.025
				S89.081,162.759,89.081,162.759z"/>
			<path style="fill:#F0F0F0;" d="M82.824,124.97c0,0-8.369-19.432,4.028-20.019c12.397-0.587,13.747,19.268-0.518,22.148
				L82.824,124.97z"/>
			<path style="fill:#EBEBEB;" d="M85.793,140.88c0,0,4.07-17.158-3.752-18.527c-7.821-1.369-15.542,14.133,0.637,21.927
				C82.678,144.281,85.454,142.559,85.793,140.88z"/>
		</g>
		<g>
			<polygon style="fill:#E0E0E0;" points="98.792,160.141 76.14,160.141 78.032,174.634 96.901,174.634 			"/>
		</g>
		<path style="fill:#E0E0E0;" d="M87.011,123.582c3.395-3.572,6.296-8.329,5.572-13.425c-0.017-0.316-0.089-0.751-0.179-1.065
			c-0.663-2.689,1.038,2.153,0.78,3.211C93.222,116.785,90.513,120.964,87.011,123.582L87.011,123.582z"/>
		<path style="fill:#E0E0E0;" d="M89.98,106.906c-4.875,1.813-6.925,6.957-6.816,11.81c0.016,0.703,0.054,1.408,0.051,2.123
			c-0.144-0.695-0.247-1.4-0.372-2.107C82.226,113.692,84.59,107.989,89.98,106.906L89.98,106.906z"/>
		<path style="fill:#E0E0E0;" d="M80.499,123.582c-3.334,1.744-5.07,6.017-3.986,9.557c0.78,2.688,2.624,5.028,4.476,7.116
			c0.626,0.72,1.3,1.398,1.986,2.068c-1.551-1.133-2.957-2.467-4.199-3.95c-1.528-1.844-2.907-4.053-3.181-6.513
			C75.327,128.473,77.215,124.737,80.499,123.582L80.499,123.582z"/>
		<path style="fill:#E0E0E0;" d="M82.824,124.97c-0.291,2.472-0.879,5.407,0.335,7.646c0.78,1.164,1.059,2.609,1.088,3.945
			c0.03,1.356-0.117,2.702-0.446,4.002c0.043-2.549,0.259-5.411-1.198-7.598C81.308,130.479,81.996,127.484,82.824,124.97
			L82.824,124.97z"/>
		<path style="fill:#E0E0E0;" d="M88.327,142.322c-1.132,0.83-1.401,2.365-1.825,3.628c-1.088,4.038-1.793,8.173-2.474,12.301
			C83.931,154.679,85.107,144.135,88.327,142.322L88.327,142.322z"/>
		<path style="fill:#E0E0E0;" d="M92.16,142.918c2.098,4.163,1.473,9.591-1.656,13.08c-0.436,0.496-0.942,0.928-1.424,1.366
			C92.564,153.432,93.66,147.932,92.16,142.918L92.16,142.918z"/>
		<path style="fill:#E0E0E0;" d="M71.231,132.766c-1.4,0.589-3.467-0.174-3.708-1.792C68.587,132.018,69.797,132.359,71.231,132.766
			L71.231,132.766z"/>
		<path style="fill:#E0E0E0;" d="M72.069,129.931c-1.346-0.598-2.517-1.307-3.96-0.733
			C69.081,127.677,71.417,128.552,72.069,129.931L72.069,129.931z"/>
		<path style="fill:#E0E0E0;" d="M96.593,146.295c0.77-1.781,3.596-4.001,5.246-2.014C99.757,143.315,98.198,145.197,96.593,146.295
			L96.593,146.295z"/>
		<path style="fill:#E0E0E0;" d="M96.593,149.158c2.241-0.254,5.237,0.27,6.429-2.069
			C102.748,149.991,98.668,149.934,96.593,149.158L96.593,149.158z"/>
	</g>
</g>
<g id="Background_Simple" style="display:none;">
	<g style="display:inline;">
		<path style="fill:#407BFF;" d="M234.017,83.918c80.522,36.229,7.425,100.798,53.919,135.963
			c46.493,35.165,172.904-5.488,124.715,85.828c-56.605,107.264-304.482,92.369-357.927-39.197S153.495,47.689,234.017,83.918z"/>
		<path style="opacity:0.9;fill:#FFFFFF;" d="M234.017,83.918c80.522,36.229,7.425,100.798,53.919,135.963
			c46.493,35.165,172.904-5.488,124.715,85.828c-56.605,107.264-304.482,92.369-357.927-39.197S153.495,47.689,234.017,83.918z"/>
	</g>
</g>
<g id="Shadow_1_">
	<ellipse id="_x3C_Path_x3E__359_" style="fill:#F5F5F5;" cx="253.076" cy="416.238" rx="207.377" ry="11.323"/>
</g>
<g id="Window">
	<g>
		<rect x="278.178" y="104.939" style="fill:#407BFF;" width="157.99" height="149.041"/>
		<rect x="278.178" y="104.939" style="opacity:0.7;fill:#FFFFFF;enable-background:new    ;" width="157.99" height="149.041"/>
		<rect x="281.279" y="107.793" style="fill:#263238;" width="154.889" height="143.051"/>
		<g>
			<polygon style="opacity:0.2;fill:#FFFFFF;" points="287.001,198.564 287.001,186.548 290.434,186.548 290.434,178.538 
				295.011,178.538 295.011,166.522 296.155,166.522 296.155,178.538 300.733,178.538 300.733,186.548 304.166,186.548 
				304.166,198.564 310.459,198.564 310.459,201.997 313.32,201.997 313.32,215.156 313.892,215.156 313.892,196.275 
				315.609,196.275 315.609,208.29 317.325,208.29 317.325,179.682 318.47,179.682 318.47,191.698 323.047,191.698 323.047,187.693 
				324.764,187.693 324.764,171.1 328.197,171.1 328.197,154.507 329.341,154.507 329.341,156.796 352.8,156.796 352.8,149.93 
				356.805,149.93 356.805,123.61 358.521,123.61 358.521,149.93 364.243,149.93 364.243,156.796 366.532,156.796 366.532,191.126 
				378.547,191.126 378.547,180.827 374.542,180.827 374.542,179.11 378.547,179.11 378.547,176.249 389.99,176.249 389.99,149.93 
				392.851,149.93 392.851,145.924 406.583,145.924 406.583,149.93 408.3,149.93 408.3,186.548 414.594,186.548 414.594,203.141 
				418.026,203.141 418.026,189.981 420.887,189.981 420.887,186.548 427.181,186.548 427.181,174.533 430.614,174.533 
				430.614,166.522 434.619,166.522 434.619,154.507 436.168,154.507 436.168,250.844 281.279,250.844 281.279,198.564 			"/>
			<g style="opacity:0.2;">
				<rect x="342.418" y="158.59" style="fill:#FFFFFF;" width="1.621" height="1.621"/>
				<rect x="342.418" y="161.307" style="fill:#FFFFFF;" width="1.621" height="1.621"/>
				<rect x="342.418" y="172.178" style="fill:#FFFFFF;" width="1.621" height="1.621"/>
				<rect x="342.418" y="174.896" style="fill:#FFFFFF;" width="1.621" height="1.621"/>
				<rect x="342.418" y="177.614" style="fill:#FFFFFF;" width="1.621" height="1.621"/>
				<rect x="342.418" y="185.767" style="fill:#FFFFFF;" width="1.621" height="1.621"/>
				<rect x="342.418" y="188.485" style="fill:#FFFFFF;" width="1.621" height="1.621"/>
				<rect x="344.992" y="169.461" style="fill:#FFFFFF;" width="1.621" height="1.621"/>
				<rect x="344.992" y="172.178" style="fill:#FFFFFF;" width="1.621" height="1.621"/>
				<rect x="344.992" y="174.896" style="fill:#FFFFFF;" width="1.621" height="1.621"/>
				<rect x="344.992" y="177.614" style="fill:#FFFFFF;" width="1.621" height="1.621"/>
				<rect x="344.992" y="180.332" style="fill:#FFFFFF;" width="1.621" height="1.621"/>
				<rect x="344.992" y="185.767" style="fill:#FFFFFF;" width="1.621" height="1.621"/>
				<rect x="344.992" y="188.485" style="fill:#FFFFFF;" width="1.621" height="1.621"/>
				<rect x="347.567" y="158.59" style="fill:#FFFFFF;" width="1.621" height="1.621"/>
				<rect x="347.567" y="161.307" style="fill:#FFFFFF;" width="1.621" height="1.621"/>
				<rect x="347.567" y="164.025" style="fill:#FFFFFF;" width="1.621" height="1.621"/>
				<rect x="347.567" y="166.743" style="fill:#FFFFFF;" width="1.621" height="1.621"/>
				<rect x="347.567" y="169.461" style="fill:#FFFFFF;" width="1.621" height="1.621"/>
				<rect x="347.567" y="172.178" style="fill:#FFFFFF;" width="1.621" height="1.621"/>
				<rect x="347.567" y="174.896" style="fill:#FFFFFF;" width="1.621" height="1.621"/>
				<rect x="347.567" y="177.614" style="fill:#FFFFFF;" width="1.621" height="1.621"/>
				<rect x="347.567" y="180.332" style="fill:#FFFFFF;" width="1.621" height="1.621"/>
				<rect x="347.567" y="183.05" style="fill:#FFFFFF;" width="1.621" height="1.621"/>
				<rect x="347.567" y="188.485" style="fill:#FFFFFF;" width="1.621" height="1.621"/>
				<rect x="350.142" y="158.59" style="fill:#FFFFFF;" width="1.621" height="1.621"/>
				<rect x="350.142" y="161.307" style="fill:#FFFFFF;" width="1.621" height="1.621"/>
				<rect x="350.142" y="164.025" style="fill:#FFFFFF;" width="1.621" height="1.621"/>
				<rect x="350.142" y="166.743" style="fill:#FFFFFF;" width="1.621" height="1.621"/>
				<rect x="350.142" y="169.461" style="fill:#FFFFFF;" width="1.621" height="1.621"/>
				<rect x="350.142" y="172.178" style="fill:#FFFFFF;" width="1.621" height="1.621"/>
				<rect x="350.142" y="174.896" style="fill:#FFFFFF;" width="1.621" height="1.621"/>
				<rect x="350.142" y="199.356" style="fill:#FFFFFF;" width="1.621" height="1.621"/>
				<rect x="352.717" y="158.59" style="fill:#FFFFFF;" width="1.621" height="1.621"/>
				<rect x="352.717" y="161.307" style="fill:#FFFFFF;" width="1.621" height="1.621"/>
				<rect x="352.717" y="164.025" style="fill:#FFFFFF;" width="1.621" height="1.621"/>
				<rect x="352.717" y="166.743" style="fill:#FFFFFF;" width="1.621" height="1.621"/>
				<rect x="352.717" y="169.461" style="fill:#FFFFFF;" width="1.621" height="1.621"/>
				<rect x="352.717" y="172.178" style="fill:#FFFFFF;" width="1.621" height="1.621"/>
				<rect x="352.717" y="174.896" style="fill:#FFFFFF;" width="1.621" height="1.621"/>
				<rect x="352.717" y="177.614" style="fill:#FFFFFF;" width="1.621" height="1.621"/>
				<rect x="352.717" y="193.921" style="fill:#FFFFFF;" width="1.621" height="1.621"/>
				<rect x="352.717" y="196.639" style="fill:#FFFFFF;" width="1.621" height="1.621"/>
				<rect x="352.717" y="199.356" style="fill:#FFFFFF;" width="1.621" height="1.621"/>
				<rect x="352.717" y="202.074" style="fill:#FFFFFF;" width="1.621" height="1.621"/>
				<rect x="352.717" y="212.945" style="fill:#FFFFFF;" width="1.621" height="1.621"/>
				<rect x="355.291" y="158.59" style="fill:#FFFFFF;" width="1.621" height="1.621"/>
				<rect x="355.291" y="161.307" style="fill:#FFFFFF;" width="1.621" height="1.621"/>
				<rect x="355.291" y="164.025" style="fill:#FFFFFF;" width="1.621" height="1.621"/>
				<rect x="355.291" y="166.743" style="fill:#FFFFFF;" width="1.621" height="1.621"/>
				<rect x="355.291" y="169.461" style="fill:#FFFFFF;" width="1.621" height="1.621"/>
				<rect x="355.291" y="172.178" style="fill:#FFFFFF;" width="1.621" height="1.621"/>
				<rect x="355.291" y="174.896" style="fill:#FFFFFF;" width="1.621" height="1.621"/>
				<rect x="355.291" y="177.614" style="fill:#FFFFFF;" width="1.621" height="1.621"/>
				<rect x="355.291" y="180.332" style="fill:#FFFFFF;" width="1.621" height="1.621"/>
				<rect x="355.291" y="183.05" style="fill:#FFFFFF;" width="1.621" height="1.621"/>
				<rect x="355.291" y="191.203" style="fill:#FFFFFF;" width="1.621" height="1.621"/>
				<rect x="355.291" y="193.921" style="fill:#FFFFFF;" width="1.621" height="1.621"/>
				<rect x="355.291" y="196.639" style="fill:#FFFFFF;" width="1.621" height="1.621"/>
				<rect x="355.291" y="199.356" style="fill:#FFFFFF;" width="1.621" height="1.621"/>
				<rect x="355.291" y="202.074" style="fill:#FFFFFF;" width="1.621" height="1.621"/>
				<rect x="355.291" y="212.945" style="fill:#FFFFFF;" width="1.621" height="1.621"/>
				<rect x="357.866" y="158.59" style="fill:#FFFFFF;" width="1.621" height="1.621"/>
				<rect x="357.866" y="161.307" style="fill:#FFFFFF;" width="1.621" height="1.621"/>
				<rect x="357.866" y="164.025" style="fill:#FFFFFF;" width="1.621" height="1.621"/>
				<rect x="357.866" y="166.743" style="fill:#FFFFFF;" width="1.621" height="1.621"/>
				<rect x="357.866" y="169.461" style="fill:#FFFFFF;" width="1.621" height="1.621"/>
				<rect x="357.866" y="172.178" style="fill:#FFFFFF;" width="1.621" height="1.621"/>
				<rect x="357.866" y="174.896" style="fill:#FFFFFF;" width="1.621" height="1.621"/>
				<rect x="357.866" y="177.614" style="fill:#FFFFFF;" width="1.621" height="1.621"/>
				<rect x="357.866" y="180.332" style="fill:#FFFFFF;" width="1.621" height="1.621"/>
				<rect x="357.866" y="183.05" style="fill:#FFFFFF;" width="1.621" height="1.621"/>
				<rect x="357.866" y="185.767" style="fill:#FFFFFF;" width="1.621" height="1.621"/>
				<rect x="357.866" y="188.485" style="fill:#FFFFFF;" width="1.621" height="1.621"/>
				<rect x="357.866" y="191.203" style="fill:#FFFFFF;" width="1.621" height="1.621"/>
				<rect x="357.866" y="193.921" style="fill:#FFFFFF;" width="1.621" height="1.621"/>
				<rect x="357.866" y="196.639" style="fill:#FFFFFF;" width="1.621" height="1.621"/>
				<rect x="357.866" y="199.356" style="fill:#FFFFFF;" width="1.621" height="1.621"/>
				<rect x="357.866" y="202.074" style="fill:#FFFFFF;" width="1.621" height="1.621"/>
				<rect x="357.866" y="204.792" style="fill:#FFFFFF;" width="1.621" height="1.621"/>
				<rect x="360.441" y="158.59" style="fill:#FFFFFF;" width="1.621" height="1.621"/>
				<rect x="360.441" y="161.307" style="fill:#FFFFFF;" width="1.621" height="1.621"/>
				<rect x="360.441" y="164.025" style="fill:#FFFFFF;" width="1.621" height="1.621"/>
				<rect x="360.441" y="166.743" style="fill:#FFFFFF;" width="1.621" height="1.621"/>
				<rect x="360.441" y="169.461" style="fill:#FFFFFF;" width="1.621" height="1.621"/>
				<rect x="360.441" y="172.178" style="fill:#FFFFFF;" width="1.621" height="1.621"/>
				<rect x="360.441" y="174.896" style="fill:#FFFFFF;" width="1.621" height="1.621"/>
				<rect x="360.441" y="177.614" style="fill:#FFFFFF;" width="1.621" height="1.621"/>
				<rect x="360.441" y="180.332" style="fill:#FFFFFF;" width="1.621" height="1.621"/>
				<rect x="360.441" y="183.05" style="fill:#FFFFFF;" width="1.621" height="1.621"/>
				<rect x="360.441" y="191.203" style="fill:#FFFFFF;" width="1.621" height="1.621"/>
				<rect x="360.441" y="193.921" style="fill:#FFFFFF;" width="1.621" height="1.621"/>
				<rect x="360.441" y="196.639" style="fill:#FFFFFF;" width="1.621" height="1.621"/>
				<rect x="360.441" y="199.356" style="fill:#FFFFFF;" width="1.621" height="1.621"/>
				<rect x="363.016" y="158.59" style="fill:#FFFFFF;" width="1.621" height="1.621"/>
				<rect x="363.016" y="161.307" style="fill:#FFFFFF;" width="1.621" height="1.621"/>
				<rect x="363.016" y="164.025" style="fill:#FFFFFF;" width="1.621" height="1.621"/>
				<rect x="363.016" y="166.743" style="fill:#FFFFFF;" width="1.621" height="1.621"/>
				<rect x="363.016" y="169.461" style="fill:#FFFFFF;" width="1.621" height="1.621"/>
				<rect x="363.016" y="172.178" style="fill:#FFFFFF;" width="1.621" height="1.621"/>
				<rect x="363.016" y="174.896" style="fill:#FFFFFF;" width="1.621" height="1.621"/>
				<rect x="363.016" y="177.614" style="fill:#FFFFFF;" width="1.621" height="1.621"/>
				<rect x="363.016" y="180.332" style="fill:#FFFFFF;" width="1.621" height="1.621"/>
				<rect x="363.016" y="183.05" style="fill:#FFFFFF;" width="1.621" height="1.621"/>
				<rect x="363.016" y="191.203" style="fill:#FFFFFF;" width="1.621" height="1.621"/>
				<rect x="363.016" y="193.921" style="fill:#FFFFFF;" width="1.621" height="1.621"/>
				<rect x="363.016" y="196.639" style="fill:#FFFFFF;" width="1.621" height="1.621"/>
				<rect x="392.005" y="151.533" style="fill:#FFFFFF;" width="1.621" height="1.621"/>
				<rect x="392.005" y="154.251" style="fill:#FFFFFF;" width="1.621" height="1.621"/>
				<rect x="392.005" y="156.969" style="fill:#FFFFFF;" width="1.621" height="1.621"/>
				<rect x="392.005" y="159.686" style="fill:#FFFFFF;" width="1.621" height="1.621"/>
				<rect x="392.005" y="162.404" style="fill:#FFFFFF;" width="1.621" height="1.621"/>
				<rect x="392.005" y="165.122" style="fill:#FFFFFF;" width="1.621" height="1.621"/>
				<rect x="392.005" y="167.84" style="fill:#FFFFFF;" width="1.621" height="1.621"/>
				<rect x="392.005" y="170.557" style="fill:#FFFFFF;" width="1.621" height="1.621"/>
				<rect x="392.005" y="178.711" style="fill:#FFFFFF;" width="1.621" height="1.621"/>
				<rect x="392.005" y="181.428" style="fill:#FFFFFF;" width="1.621" height="1.621"/>
				<rect x="394.58" y="151.533" style="fill:#FFFFFF;" width="1.621" height="1.621"/>
				<rect x="394.58" y="154.251" style="fill:#FFFFFF;" width="1.621" height="1.621"/>
				<rect x="394.58" y="156.969" style="fill:#FFFFFF;" width="1.621" height="1.621"/>
				<rect x="394.58" y="159.686" style="fill:#FFFFFF;" width="1.621" height="1.621"/>
				<rect x="394.58" y="162.404" style="fill:#FFFFFF;" width="1.621" height="1.621"/>
				<rect x="394.58" y="165.122" style="fill:#FFFFFF;" width="1.621" height="1.621"/>
				<rect x="394.58" y="167.84" style="fill:#FFFFFF;" width="1.621" height="1.621"/>
				<rect x="394.58" y="170.557" style="fill:#FFFFFF;" width="1.621" height="1.621"/>
				<rect x="394.58" y="181.428" style="fill:#FFFFFF;" width="1.621" height="1.621"/>
				<rect x="397.155" y="151.533" style="fill:#FFFFFF;" width="1.621" height="1.621"/>
				<rect x="397.155" y="154.251" style="fill:#FFFFFF;" width="1.621" height="1.621"/>
				<rect x="397.155" y="156.969" style="fill:#FFFFFF;" width="1.621" height="1.621"/>
				<rect x="397.155" y="159.686" style="fill:#FFFFFF;" width="1.621" height="1.621"/>
				<rect x="397.155" y="162.404" style="fill:#FFFFFF;" width="1.621" height="1.621"/>
				<rect x="397.155" y="165.122" style="fill:#FFFFFF;" width="1.621" height="1.621"/>
				<rect x="397.155" y="167.84" style="fill:#FFFFFF;" width="1.621" height="1.621"/>
				<rect x="397.155" y="170.557" style="fill:#FFFFFF;" width="1.621" height="1.621"/>
				<rect x="399.729" y="151.533" style="fill:#FFFFFF;" width="1.621" height="1.621"/>
				<rect x="399.729" y="154.251" style="fill:#FFFFFF;" width="1.621" height="1.621"/>
				<rect x="399.729" y="156.969" style="fill:#FFFFFF;" width="1.621" height="1.621"/>
				<rect x="399.729" y="159.686" style="fill:#FFFFFF;" width="1.621" height="1.621"/>
				<rect x="399.729" y="162.404" style="fill:#FFFFFF;" width="1.621" height="1.621"/>
				<rect x="399.729" y="165.122" style="fill:#FFFFFF;" width="1.621" height="1.621"/>
				<rect x="399.729" y="170.557" style="fill:#FFFFFF;" width="1.621" height="1.621"/>
				<rect x="399.729" y="173.275" style="fill:#FFFFFF;" width="1.621" height="1.621"/>
				<rect x="399.729" y="181.428" style="fill:#FFFFFF;" width="1.621" height="1.621"/>
				<rect x="399.729" y="184.146" style="fill:#FFFFFF;" width="1.621" height="1.621"/>
				<rect x="399.729" y="186.864" style="fill:#FFFFFF;" width="1.621" height="1.621"/>
				<rect x="399.729" y="189.582" style="fill:#FFFFFF;" width="1.621" height="1.621"/>
				<rect x="399.729" y="192.3" style="fill:#FFFFFF;" width="1.621" height="1.621"/>
				<rect x="399.729" y="195.018" style="fill:#FFFFFF;" width="1.621" height="1.621"/>
				<rect x="399.729" y="197.735" style="fill:#FFFFFF;" width="1.621" height="1.621"/>
				<rect x="402.304" y="151.533" style="fill:#FFFFFF;" width="1.621" height="1.621"/>
				<rect x="402.304" y="154.251" style="fill:#FFFFFF;" width="1.621" height="1.621"/>
				<rect x="402.304" y="156.969" style="fill:#FFFFFF;" width="1.621" height="1.621"/>
				<rect x="402.304" y="159.686" style="fill:#FFFFFF;" width="1.621" height="1.621"/>
				<rect x="402.304" y="162.404" style="fill:#FFFFFF;" width="1.621" height="1.621"/>
				<rect x="402.304" y="165.122" style="fill:#FFFFFF;" width="1.621" height="1.621"/>
				<rect x="402.304" y="173.275" style="fill:#FFFFFF;" width="1.621" height="1.621"/>
				<rect x="402.304" y="175.993" style="fill:#FFFFFF;" width="1.621" height="1.621"/>
				<rect x="402.304" y="178.711" style="fill:#FFFFFF;" width="1.621" height="1.621"/>
				<rect x="402.304" y="181.428" style="fill:#FFFFFF;" width="1.621" height="1.621"/>
				<rect x="402.304" y="184.146" style="fill:#FFFFFF;" width="1.621" height="1.621"/>
				<rect x="402.304" y="186.864" style="fill:#FFFFFF;" width="1.621" height="1.621"/>
				<rect x="402.304" y="189.582" style="fill:#FFFFFF;" width="1.621" height="1.621"/>
				<rect x="402.304" y="192.3" style="fill:#FFFFFF;" width="1.621" height="1.621"/>
				<rect x="402.304" y="195.018" style="fill:#FFFFFF;" width="1.621" height="1.621"/>
				<rect x="402.304" y="197.735" style="fill:#FFFFFF;" width="1.621" height="1.621"/>
				<rect x="402.304" y="200.453" style="fill:#FFFFFF;" width="1.621" height="1.621"/>
				<rect x="402.304" y="205.889" style="fill:#FFFFFF;" width="1.621" height="1.621"/>
				<rect x="404.879" y="151.533" style="fill:#FFFFFF;" width="1.621" height="1.621"/>
				<rect x="404.879" y="154.251" style="fill:#FFFFFF;" width="1.621" height="1.621"/>
				<rect x="404.879" y="156.969" style="fill:#FFFFFF;" width="1.621" height="1.621"/>
				<rect x="404.879" y="159.686" style="fill:#FFFFFF;" width="1.621" height="1.621"/>
				<rect x="404.879" y="162.404" style="fill:#FFFFFF;" width="1.621" height="1.621"/>
				<rect x="404.879" y="165.122" style="fill:#FFFFFF;" width="1.621" height="1.621"/>
				<rect x="404.879" y="173.275" style="fill:#FFFFFF;" width="1.621" height="1.621"/>
				<rect x="404.879" y="175.993" style="fill:#FFFFFF;" width="1.621" height="1.621"/>
				<rect x="404.879" y="178.711" style="fill:#FFFFFF;" width="1.621" height="1.621"/>
				<rect x="404.879" y="181.428" style="fill:#FFFFFF;" width="1.621" height="1.621"/>
				<rect x="404.879" y="189.582" style="fill:#FFFFFF;" width="1.621" height="1.621"/>
				<rect x="404.879" y="192.3" style="fill:#FFFFFF;" width="1.621" height="1.621"/>
				<rect x="404.879" y="195.018" style="fill:#FFFFFF;" width="1.621" height="1.621"/>
				<rect x="404.879" y="197.735" style="fill:#FFFFFF;" width="1.621" height="1.621"/>
				<rect x="404.879" y="200.453" style="fill:#FFFFFF;" width="1.621" height="1.621"/>
				<rect x="404.879" y="205.889" style="fill:#FFFFFF;" width="1.621" height="1.621"/>
				<rect x="404.879" y="208.606" style="fill:#FFFFFF;" width="1.621" height="1.621"/>
				<rect x="428.242" y="176.804" style="fill:#FFFFFF;" width="1.621" height="1.621"/>
				<rect x="428.242" y="179.521" style="fill:#FFFFFF;" width="1.621" height="1.621"/>
				<rect x="428.242" y="182.239" style="fill:#FFFFFF;" width="1.621" height="1.621"/>
				<rect x="428.242" y="184.957" style="fill:#FFFFFF;" width="1.621" height="1.621"/>
				<rect x="428.242" y="187.675" style="fill:#FFFFFF;" width="1.621" height="1.621"/>
				<rect x="428.242" y="190.393" style="fill:#FFFFFF;" width="1.621" height="1.621"/>
				<rect x="428.242" y="193.11" style="fill:#FFFFFF;" width="1.621" height="1.621"/>
				<rect x="428.242" y="201.264" style="fill:#FFFFFF;" width="1.621" height="1.621"/>
				<rect x="428.242" y="203.981" style="fill:#FFFFFF;" width="1.621" height="1.621"/>
				<rect x="428.242" y="206.699" style="fill:#FFFFFF;" width="1.621" height="1.621"/>
				<rect x="430.817" y="176.804" style="fill:#FFFFFF;" width="1.621" height="1.621"/>
				<rect x="430.817" y="179.521" style="fill:#FFFFFF;" width="1.621" height="1.621"/>
				<rect x="430.817" y="182.239" style="fill:#FFFFFF;" width="1.621" height="1.621"/>
				<rect x="430.817" y="184.957" style="fill:#FFFFFF;" width="1.621" height="1.621"/>
				<rect x="430.817" y="187.675" style="fill:#FFFFFF;" width="1.621" height="1.621"/>
				<rect x="430.817" y="190.393" style="fill:#FFFFFF;" width="1.621" height="1.621"/>
				<rect x="430.817" y="193.11" style="fill:#FFFFFF;" width="1.621" height="1.621"/>
				<rect x="433.392" y="176.804" style="fill:#FFFFFF;" width="2.328" height="1.621"/>
				<rect x="433.392" y="179.521" style="fill:#FFFFFF;" width="2.328" height="1.621"/>
				<rect x="433.392" y="182.239" style="fill:#FFFFFF;" width="2.328" height="1.621"/>
				<rect x="433.392" y="184.957" style="fill:#FFFFFF;" width="2.328" height="1.621"/>
				<rect x="433.392" y="187.675" style="fill:#FFFFFF;" width="2.328" height="1.621"/>
				<rect x="433.392" y="190.393" style="fill:#FFFFFF;" width="2.328" height="1.621"/>
				<rect x="433.392" y="193.11" style="fill:#FFFFFF;" width="2.328" height="1.621"/>
				<rect x="291.781" y="180.332" style="fill:#FFFFFF;" width="1.621" height="1.621"/>
				<rect x="291.781" y="183.05" style="fill:#FFFFFF;" width="1.621" height="1.621"/>
				<rect x="291.781" y="185.767" style="fill:#FFFFFF;" width="1.621" height="1.621"/>
				<rect x="291.781" y="188.485" style="fill:#FFFFFF;" width="1.621" height="1.621"/>
				<rect x="291.781" y="191.203" style="fill:#FFFFFF;" width="1.621" height="1.621"/>
				<rect x="291.781" y="193.921" style="fill:#FFFFFF;" width="1.621" height="1.621"/>
				<rect x="291.781" y="196.639" style="fill:#FFFFFF;" width="1.621" height="1.621"/>
				<rect x="291.781" y="199.356" style="fill:#FFFFFF;" width="1.621" height="1.621"/>
				<rect x="291.781" y="202.074" style="fill:#FFFFFF;" width="1.621" height="1.621"/>
				<rect x="291.781" y="204.792" style="fill:#FFFFFF;" width="1.621" height="1.621"/>
				<rect x="291.781" y="207.51" style="fill:#FFFFFF;" width="1.621" height="1.621"/>
				<rect x="291.781" y="210.227" style="fill:#FFFFFF;" width="1.621" height="1.621"/>
				<rect x="291.781" y="212.945" style="fill:#FFFFFF;" width="1.621" height="1.621"/>
				<rect x="291.781" y="215.663" style="fill:#FFFFFF;" width="1.621" height="1.621"/>
				<rect x="291.781" y="218.381" style="fill:#FFFFFF;" width="1.621" height="1.621"/>
				<rect x="291.781" y="221.099" style="fill:#FFFFFF;" width="1.621" height="1.621"/>
				<rect x="291.781" y="223.816" style="fill:#FFFFFF;" width="1.621" height="1.621"/>
				<rect x="291.781" y="226.534" style="fill:#FFFFFF;" width="1.621" height="1.621"/>
				<rect x="291.781" y="229.252" style="fill:#FFFFFF;" width="1.621" height="1.621"/>
				<rect x="291.781" y="231.97" style="fill:#FFFFFF;" width="1.621" height="1.621"/>
				<rect x="294.356" y="180.332" style="fill:#FFFFFF;" width="1.621" height="1.621"/>
				<rect x="294.356" y="183.05" style="fill:#FFFFFF;" width="1.621" height="1.621"/>
				<rect x="294.356" y="185.767" style="fill:#FFFFFF;" width="1.621" height="1.621"/>
				<rect x="294.356" y="188.485" style="fill:#FFFFFF;" width="1.621" height="1.621"/>
				<rect x="294.356" y="191.203" style="fill:#FFFFFF;" width="1.621" height="1.621"/>
				<rect x="294.356" y="193.921" style="fill:#FFFFFF;" width="1.621" height="1.621"/>
				<rect x="294.356" y="196.639" style="fill:#FFFFFF;" width="1.621" height="1.621"/>
				<rect x="294.356" y="199.356" style="fill:#FFFFFF;" width="1.621" height="1.621"/>
				<rect x="294.356" y="202.074" style="fill:#FFFFFF;" width="1.621" height="1.621"/>
				<rect x="294.356" y="204.792" style="fill:#FFFFFF;" width="1.621" height="1.621"/>
				<rect x="294.356" y="207.51" style="fill:#FFFFFF;" width="1.621" height="1.621"/>
				<rect x="294.356" y="210.227" style="fill:#FFFFFF;" width="1.621" height="1.621"/>
				<rect x="294.356" y="212.945" style="fill:#FFFFFF;" width="1.621" height="1.621"/>
				<rect x="294.356" y="215.663" style="fill:#FFFFFF;" width="1.621" height="1.621"/>
				<rect x="294.356" y="218.381" style="fill:#FFFFFF;" width="1.621" height="1.621"/>
				<rect x="294.356" y="221.099" style="fill:#FFFFFF;" width="1.621" height="1.621"/>
				<rect x="294.356" y="223.816" style="fill:#FFFFFF;" width="1.621" height="1.621"/>
				<rect x="294.356" y="226.534" style="fill:#FFFFFF;" width="1.621" height="1.621"/>
				<rect x="296.931" y="180.332" style="fill:#FFFFFF;" width="1.621" height="1.621"/>
				<rect x="296.931" y="183.05" style="fill:#FFFFFF;" width="1.621" height="1.621"/>
				<rect x="296.931" y="185.767" style="fill:#FFFFFF;" width="1.621" height="1.621"/>
				<rect x="296.931" y="188.485" style="fill:#FFFFFF;" width="1.621" height="1.621"/>
				<rect x="296.931" y="191.203" style="fill:#FFFFFF;" width="1.621" height="1.621"/>
				<rect x="296.931" y="193.921" style="fill:#FFFFFF;" width="1.621" height="1.621"/>
				<rect x="296.931" y="196.639" style="fill:#FFFFFF;" width="1.621" height="1.621"/>
				<rect x="296.931" y="199.356" style="fill:#FFFFFF;" width="1.621" height="1.621"/>
				<rect x="296.931" y="202.074" style="fill:#FFFFFF;" width="1.621" height="1.621"/>
				<rect x="296.931" y="204.792" style="fill:#FFFFFF;" width="1.621" height="1.621"/>
				<rect x="296.931" y="207.51" style="fill:#FFFFFF;" width="1.621" height="1.621"/>
				<rect x="296.931" y="210.227" style="fill:#FFFFFF;" width="1.621" height="1.621"/>
				<rect x="296.931" y="212.945" style="fill:#FFFFFF;" width="1.621" height="1.621"/>
				<rect x="296.931" y="215.663" style="fill:#FFFFFF;" width="1.621" height="1.621"/>
				<rect x="296.931" y="218.381" style="fill:#FFFFFF;" width="1.621" height="1.621"/>
				<rect x="296.931" y="221.099" style="fill:#FFFFFF;" width="1.621" height="1.621"/>
				<rect x="296.931" y="223.816" style="fill:#FFFFFF;" width="1.621" height="1.621"/>
				<rect x="296.931" y="226.534" style="fill:#FFFFFF;" width="1.621" height="1.621"/>
				<rect x="282.15" y="200.167" style="fill:#FFFFFF;" width="1.621" height="1.621"/>
				<rect x="282.15" y="202.885" style="fill:#FFFFFF;" width="1.621" height="1.621"/>
				<rect x="282.15" y="205.602" style="fill:#FFFFFF;" width="1.621" height="1.621"/>
				<rect x="282.15" y="208.32" style="fill:#FFFFFF;" width="1.621" height="1.621"/>
				<rect x="282.15" y="211.038" style="fill:#FFFFFF;" width="1.621" height="1.621"/>
				<rect x="282.15" y="213.756" style="fill:#FFFFFF;" width="1.621" height="1.621"/>
				<rect x="282.15" y="216.474" style="fill:#FFFFFF;" width="1.621" height="1.621"/>
				<rect x="282.15" y="219.191" style="fill:#FFFFFF;" width="1.621" height="1.621"/>
				<rect x="282.15" y="221.909" style="fill:#FFFFFF;" width="1.621" height="1.621"/>
				<rect x="282.15" y="224.627" style="fill:#FFFFFF;" width="1.621" height="1.621"/>
				<rect x="282.15" y="227.345" style="fill:#FFFFFF;" width="1.621" height="1.621"/>
				<rect x="282.15" y="230.063" style="fill:#FFFFFF;" width="1.621" height="1.621"/>
				<rect x="282.15" y="232.78" style="fill:#FFFFFF;" width="1.621" height="1.621"/>
				<rect x="284.724" y="200.167" style="fill:#FFFFFF;" width="1.621" height="1.621"/>
				<rect x="284.724" y="202.885" style="fill:#FFFFFF;" width="1.621" height="1.621"/>
				<rect x="284.724" y="205.602" style="fill:#FFFFFF;" width="1.621" height="1.621"/>
				<rect x="284.724" y="208.32" style="fill:#FFFFFF;" width="1.621" height="1.621"/>
				<rect x="284.724" y="211.038" style="fill:#FFFFFF;" width="1.621" height="1.621"/>
				<rect x="284.724" y="213.756" style="fill:#FFFFFF;" width="1.621" height="1.621"/>
				<rect x="284.724" y="216.474" style="fill:#FFFFFF;" width="1.621" height="1.621"/>
				<rect x="284.724" y="219.191" style="fill:#FFFFFF;" width="1.621" height="1.621"/>
				<rect x="284.724" y="221.909" style="fill:#FFFFFF;" width="1.621" height="1.621"/>
				<rect x="284.724" y="224.627" style="fill:#FFFFFF;" width="1.621" height="1.621"/>
				<rect x="284.724" y="227.345" style="fill:#FFFFFF;" width="1.621" height="1.621"/>
				<rect x="284.724" y="230.063" style="fill:#FFFFFF;" width="1.621" height="1.621"/>
				<rect x="284.724" y="232.78" style="fill:#FFFFFF;" width="1.621" height="1.621"/>
				<rect x="287.299" y="200.167" style="fill:#FFFFFF;" width="1.621" height="1.621"/>
				<rect x="287.299" y="202.885" style="fill:#FFFFFF;" width="1.621" height="1.621"/>
				<rect x="287.299" y="205.602" style="fill:#FFFFFF;" width="1.621" height="1.621"/>
				<rect x="287.299" y="208.32" style="fill:#FFFFFF;" width="1.621" height="1.621"/>
				<rect x="287.299" y="211.038" style="fill:#FFFFFF;" width="1.621" height="1.621"/>
				<rect x="287.299" y="213.756" style="fill:#FFFFFF;" width="1.621" height="1.621"/>
				<rect x="287.299" y="216.474" style="fill:#FFFFFF;" width="1.621" height="1.621"/>
				<rect x="287.299" y="219.191" style="fill:#FFFFFF;" width="1.621" height="1.621"/>
				<rect x="287.299" y="221.909" style="fill:#FFFFFF;" width="1.621" height="1.621"/>
				<rect x="287.299" y="224.627" style="fill:#FFFFFF;" width="1.621" height="1.621"/>
				<rect x="287.299" y="227.345" style="fill:#FFFFFF;" width="1.621" height="1.621"/>
				<rect x="287.299" y="230.063" style="fill:#FFFFFF;" width="1.621" height="1.621"/>
				<rect x="287.299" y="232.78" style="fill:#FFFFFF;" width="1.621" height="1.621"/>
				<rect x="287.299" y="235.498" style="fill:#FFFFFF;" width="1.621" height="1.621"/>
				<rect x="301.603" y="200.978" style="fill:#FFFFFF;" width="1.621" height="1.621"/>
				<rect x="301.603" y="203.695" style="fill:#FFFFFF;" width="1.621" height="1.621"/>
				<rect x="301.603" y="206.413" style="fill:#FFFFFF;" width="1.621" height="1.621"/>
				<rect x="301.603" y="209.131" style="fill:#FFFFFF;" width="1.621" height="1.621"/>
				<rect x="301.603" y="211.849" style="fill:#FFFFFF;" width="1.621" height="1.621"/>
				<rect x="301.603" y="214.566" style="fill:#FFFFFF;" width="1.621" height="1.621"/>
				<rect x="301.603" y="217.284" style="fill:#FFFFFF;" width="1.621" height="1.621"/>
				<rect x="301.603" y="220.002" style="fill:#FFFFFF;" width="1.621" height="1.621"/>
				<rect x="301.603" y="222.72" style="fill:#FFFFFF;" width="1.621" height="1.621"/>
				<rect x="301.603" y="225.438" style="fill:#FFFFFF;" width="1.621" height="1.621"/>
				<rect x="301.603" y="233.591" style="fill:#FFFFFF;" width="1.621" height="1.621"/>
				<rect x="304.178" y="200.978" style="fill:#FFFFFF;" width="1.621" height="1.621"/>
				<rect x="304.178" y="203.695" style="fill:#FFFFFF;" width="1.621" height="1.621"/>
				<rect x="304.178" y="206.413" style="fill:#FFFFFF;" width="1.621" height="1.621"/>
				<rect x="304.178" y="209.131" style="fill:#FFFFFF;" width="1.621" height="1.621"/>
				<rect x="304.178" y="211.849" style="fill:#FFFFFF;" width="1.621" height="1.621"/>
				<rect x="304.178" y="214.566" style="fill:#FFFFFF;" width="1.621" height="1.621"/>
				<rect x="304.178" y="217.284" style="fill:#FFFFFF;" width="1.621" height="1.621"/>
				<rect x="304.178" y="220.002" style="fill:#FFFFFF;" width="1.621" height="1.621"/>
				<rect x="304.178" y="222.72" style="fill:#FFFFFF;" width="1.621" height="1.621"/>
				<rect x="304.178" y="230.873" style="fill:#FFFFFF;" width="1.621" height="1.621"/>
				<rect x="304.178" y="233.591" style="fill:#FFFFFF;" width="1.621" height="1.621"/>
				<rect x="306.753" y="200.978" style="fill:#FFFFFF;" width="1.621" height="1.621"/>
				<rect x="306.753" y="203.695" style="fill:#FFFFFF;" width="1.621" height="1.621"/>
				<rect x="306.753" y="206.413" style="fill:#FFFFFF;" width="1.621" height="1.621"/>
				<rect x="306.753" y="209.131" style="fill:#FFFFFF;" width="1.621" height="1.621"/>
				<rect x="306.753" y="211.849" style="fill:#FFFFFF;" width="1.621" height="1.621"/>
				<rect x="306.753" y="214.566" style="fill:#FFFFFF;" width="1.621" height="1.621"/>
				<rect x="306.753" y="217.284" style="fill:#FFFFFF;" width="1.621" height="1.621"/>
				<rect x="306.753" y="220.002" style="fill:#FFFFFF;" width="1.621" height="1.621"/>
				<rect x="306.753" y="228.155" style="fill:#FFFFFF;" width="1.621" height="1.621"/>
				<rect x="306.753" y="230.873" style="fill:#FFFFFF;" width="1.621" height="1.621"/>
				<rect x="306.753" y="233.591" style="fill:#FFFFFF;" width="1.621" height="1.621"/>
				<rect x="330.688" y="159.686" style="fill:#FFFFFF;" width="1.621" height="1.621"/>
				<rect x="330.688" y="162.404" style="fill:#FFFFFF;" width="1.621" height="1.621"/>
				<rect x="330.688" y="165.122" style="fill:#FFFFFF;" width="1.621" height="1.621"/>
				<rect x="330.688" y="167.84" style="fill:#FFFFFF;" width="1.621" height="1.621"/>
				<rect x="330.688" y="170.557" style="fill:#FFFFFF;" width="1.621" height="1.621"/>
				<rect x="330.688" y="173.275" style="fill:#FFFFFF;" width="1.621" height="1.621"/>
				<rect x="330.688" y="175.993" style="fill:#FFFFFF;" width="1.621" height="1.621"/>
				<rect x="330.688" y="178.711" style="fill:#FFFFFF;" width="1.621" height="1.621"/>
				<rect x="330.688" y="181.428" style="fill:#FFFFFF;" width="1.621" height="1.621"/>
				<rect x="330.688" y="184.146" style="fill:#FFFFFF;" width="1.621" height="1.621"/>
				<rect x="330.688" y="186.864" style="fill:#FFFFFF;" width="1.621" height="1.621"/>
				<rect x="330.688" y="189.582" style="fill:#FFFFFF;" width="1.621" height="1.621"/>
				<rect x="330.688" y="192.3" style="fill:#FFFFFF;" width="1.621" height="1.621"/>
				<rect x="330.688" y="195.018" style="fill:#FFFFFF;" width="1.621" height="1.621"/>
				<rect x="330.688" y="197.735" style="fill:#FFFFFF;" width="1.621" height="1.621"/>
				<rect x="330.688" y="200.453" style="fill:#FFFFFF;" width="1.621" height="1.621"/>
				<rect x="330.688" y="203.171" style="fill:#FFFFFF;" width="1.621" height="1.621"/>
				<rect x="330.688" y="208.606" style="fill:#FFFFFF;" width="1.621" height="1.621"/>
				<rect x="330.688" y="211.324" style="fill:#FFFFFF;" width="1.621" height="1.621"/>
				<rect x="330.688" y="214.042" style="fill:#FFFFFF;" width="1.621" height="1.621"/>
				<rect x="330.688" y="216.76" style="fill:#FFFFFF;" width="1.621" height="1.621"/>
				<rect x="330.688" y="219.477" style="fill:#FFFFFF;" width="1.621" height="1.621"/>
				<rect x="333.263" y="159.686" style="fill:#FFFFFF;" width="1.621" height="1.621"/>
				<rect x="333.263" y="162.404" style="fill:#FFFFFF;" width="1.621" height="1.621"/>
				<rect x="333.263" y="165.122" style="fill:#FFFFFF;" width="1.621" height="1.621"/>
				<rect x="333.263" y="167.84" style="fill:#FFFFFF;" width="1.621" height="1.621"/>
				<rect x="333.263" y="170.557" style="fill:#FFFFFF;" width="1.621" height="1.621"/>
				<rect x="333.263" y="173.275" style="fill:#FFFFFF;" width="1.621" height="1.621"/>
				<rect x="333.263" y="175.993" style="fill:#FFFFFF;" width="1.621" height="1.621"/>
				<rect x="333.263" y="178.711" style="fill:#FFFFFF;" width="1.621" height="1.621"/>
				<rect x="333.263" y="181.428" style="fill:#FFFFFF;" width="1.621" height="1.621"/>
				<rect x="333.263" y="184.146" style="fill:#FFFFFF;" width="1.621" height="1.621"/>
				<rect x="333.263" y="186.864" style="fill:#FFFFFF;" width="1.621" height="1.621"/>
				<rect x="333.263" y="189.582" style="fill:#FFFFFF;" width="1.621" height="1.621"/>
				<rect x="333.263" y="192.3" style="fill:#FFFFFF;" width="1.621" height="1.621"/>
				<rect x="333.263" y="195.018" style="fill:#FFFFFF;" width="1.621" height="1.621"/>
				<rect x="333.263" y="197.735" style="fill:#FFFFFF;" width="1.621" height="1.621"/>
				<rect x="333.263" y="200.453" style="fill:#FFFFFF;" width="1.621" height="1.621"/>
				<rect x="333.263" y="216.76" style="fill:#FFFFFF;" width="1.621" height="1.621"/>
				<rect x="333.263" y="219.477" style="fill:#FFFFFF;" width="1.621" height="1.621"/>
				<rect x="335.838" y="159.686" style="fill:#FFFFFF;" width="1.621" height="1.621"/>
				<rect x="335.838" y="162.404" style="fill:#FFFFFF;" width="1.621" height="1.621"/>
				<rect x="335.838" y="165.122" style="fill:#FFFFFF;" width="1.621" height="1.621"/>
				<rect x="335.838" y="167.84" style="fill:#FFFFFF;" width="1.621" height="1.621"/>
				<rect x="335.838" y="170.557" style="fill:#FFFFFF;" width="1.621" height="1.621"/>
				<rect x="335.838" y="173.275" style="fill:#FFFFFF;" width="1.621" height="1.621"/>
				<rect x="335.838" y="175.993" style="fill:#FFFFFF;" width="1.621" height="1.621"/>
				<rect x="335.838" y="178.711" style="fill:#FFFFFF;" width="1.621" height="1.621"/>
				<rect x="335.838" y="181.428" style="fill:#FFFFFF;" width="1.621" height="1.621"/>
				<rect x="335.838" y="184.146" style="fill:#FFFFFF;" width="1.621" height="1.621"/>
				<rect x="335.838" y="186.864" style="fill:#FFFFFF;" width="1.621" height="1.621"/>
				<rect x="335.838" y="189.582" style="fill:#FFFFFF;" width="1.621" height="1.621"/>
				<rect x="335.838" y="192.3" style="fill:#FFFFFF;" width="1.621" height="1.621"/>
				<rect x="335.838" y="195.018" style="fill:#FFFFFF;" width="1.621" height="1.621"/>
				<rect x="335.838" y="197.735" style="fill:#FFFFFF;" width="1.621" height="1.621"/>
				<rect x="335.838" y="200.453" style="fill:#FFFFFF;" width="1.621" height="1.621"/>
				<rect x="335.838" y="205.889" style="fill:#FFFFFF;" width="1.621" height="1.621"/>
				<rect x="335.838" y="208.606" style="fill:#FFFFFF;" width="1.621" height="1.621"/>
				<rect x="335.838" y="211.324" style="fill:#FFFFFF;" width="1.621" height="1.621"/>
				<rect x="335.838" y="214.042" style="fill:#FFFFFF;" width="1.621" height="1.621"/>
				<rect x="335.838" y="219.477" style="fill:#FFFFFF;" width="1.621" height="1.621"/>
				<rect x="321.343" y="193.921" style="fill:#FFFFFF;" width="1.621" height="1.621"/>
				<rect x="321.343" y="196.639" style="fill:#FFFFFF;" width="1.621" height="1.621"/>
				<rect x="321.343" y="199.356" style="fill:#FFFFFF;" width="1.621" height="1.621"/>
				<rect x="321.343" y="202.074" style="fill:#FFFFFF;" width="1.621" height="1.621"/>
				<rect x="321.343" y="204.792" style="fill:#FFFFFF;" width="1.621" height="1.621"/>
				<rect x="321.343" y="207.51" style="fill:#FFFFFF;" width="1.621" height="1.621"/>
				<rect x="321.343" y="210.227" style="fill:#FFFFFF;" width="1.621" height="1.621"/>
				<rect x="321.343" y="215.663" style="fill:#FFFFFF;" width="1.621" height="1.621"/>
				<rect x="321.343" y="218.381" style="fill:#FFFFFF;" width="1.621" height="1.621"/>
				<rect x="321.343" y="221.099" style="fill:#FFFFFF;" width="1.621" height="1.621"/>
				<rect x="321.343" y="223.816" style="fill:#FFFFFF;" width="1.621" height="1.621"/>
				<rect x="321.343" y="226.534" style="fill:#FFFFFF;" width="1.621" height="1.621"/>
				<rect x="321.343" y="229.252" style="fill:#FFFFFF;" width="1.621" height="1.621"/>
				<rect x="321.343" y="231.97" style="fill:#FFFFFF;" width="1.621" height="1.621"/>
				<rect x="321.343" y="234.688" style="fill:#FFFFFF;" width="1.621" height="1.621"/>
				<rect x="323.918" y="193.921" style="fill:#FFFFFF;" width="1.621" height="1.621"/>
				<rect x="323.918" y="196.639" style="fill:#FFFFFF;" width="1.621" height="1.621"/>
				<rect x="323.918" y="199.356" style="fill:#FFFFFF;" width="1.621" height="1.621"/>
				<rect x="323.918" y="202.074" style="fill:#FFFFFF;" width="1.621" height="1.621"/>
				<rect x="323.918" y="204.792" style="fill:#FFFFFF;" width="1.621" height="1.621"/>
				<rect x="323.918" y="207.51" style="fill:#FFFFFF;" width="1.621" height="1.621"/>
				<rect x="323.918" y="215.663" style="fill:#FFFFFF;" width="1.621" height="1.621"/>
				<rect x="323.918" y="218.381" style="fill:#FFFFFF;" width="1.621" height="1.621"/>
				<rect x="323.918" y="221.099" style="fill:#FFFFFF;" width="1.621" height="1.621"/>
				<rect x="323.918" y="223.816" style="fill:#FFFFFF;" width="1.621" height="1.621"/>
				<rect x="323.918" y="226.534" style="fill:#FFFFFF;" width="1.621" height="1.621"/>
				<rect x="323.918" y="229.252" style="fill:#FFFFFF;" width="1.621" height="1.621"/>
				<rect x="323.918" y="231.97" style="fill:#FFFFFF;" width="1.621" height="1.621"/>
				<rect x="323.918" y="234.688" style="fill:#FFFFFF;" width="1.621" height="1.621"/>
				<rect x="326.492" y="193.921" style="fill:#FFFFFF;" width="1.621" height="1.621"/>
				<rect x="326.492" y="196.639" style="fill:#FFFFFF;" width="1.621" height="1.621"/>
				<rect x="326.492" y="199.356" style="fill:#FFFFFF;" width="1.621" height="1.621"/>
				<rect x="326.492" y="202.074" style="fill:#FFFFFF;" width="1.621" height="1.621"/>
				<rect x="326.492" y="204.792" style="fill:#FFFFFF;" width="1.621" height="1.621"/>
				<rect x="326.492" y="207.51" style="fill:#FFFFFF;" width="1.621" height="1.621"/>
				<rect x="326.492" y="212.945" style="fill:#FFFFFF;" width="1.621" height="1.621"/>
				<rect x="326.492" y="215.663" style="fill:#FFFFFF;" width="1.621" height="1.621"/>
				<rect x="326.492" y="218.381" style="fill:#FFFFFF;" width="1.621" height="1.621"/>
				<rect x="326.492" y="221.099" style="fill:#FFFFFF;" width="1.621" height="1.621"/>
				<rect x="326.492" y="223.816" style="fill:#FFFFFF;" width="1.621" height="1.621"/>
				<rect x="326.492" y="226.534" style="fill:#FFFFFF;" width="1.621" height="1.621"/>
				<rect x="326.492" y="229.252" style="fill:#FFFFFF;" width="1.621" height="1.621"/>
				<rect x="326.492" y="231.97" style="fill:#FFFFFF;" width="1.621" height="1.621"/>
				<rect x="326.492" y="234.688" style="fill:#FFFFFF;" width="1.621" height="1.621"/>
				<rect x="380.753" y="178.711" style="fill:#FFFFFF;" width="1.621" height="1.621"/>
				<rect x="380.753" y="181.428" style="fill:#FFFFFF;" width="1.621" height="1.621"/>
				<rect x="380.753" y="184.146" style="fill:#FFFFFF;" width="1.621" height="1.621"/>
				<rect x="380.753" y="186.864" style="fill:#FFFFFF;" width="1.621" height="1.621"/>
				<rect x="380.753" y="189.582" style="fill:#FFFFFF;" width="1.621" height="1.621"/>
				<rect x="380.753" y="192.3" style="fill:#FFFFFF;" width="1.621" height="1.621"/>
				<rect x="380.753" y="195.018" style="fill:#FFFFFF;" width="1.621" height="1.621"/>
				<rect x="380.753" y="197.735" style="fill:#FFFFFF;" width="1.621" height="1.621"/>
				<rect x="380.753" y="200.453" style="fill:#FFFFFF;" width="1.621" height="1.621"/>
				<rect x="380.753" y="203.171" style="fill:#FFFFFF;" width="1.621" height="1.621"/>
				<rect x="380.753" y="205.889" style="fill:#FFFFFF;" width="1.621" height="1.621"/>
				<rect x="380.753" y="208.606" style="fill:#FFFFFF;" width="1.621" height="1.621"/>
				<rect x="380.753" y="211.324" style="fill:#FFFFFF;" width="1.621" height="1.621"/>
				<rect x="380.753" y="216.76" style="fill:#FFFFFF;" width="1.621" height="1.621"/>
				<rect x="380.753" y="219.477" style="fill:#FFFFFF;" width="1.621" height="1.621"/>
				<rect x="380.753" y="222.195" style="fill:#FFFFFF;" width="1.621" height="1.621"/>
				<rect x="380.753" y="224.913" style="fill:#FFFFFF;" width="1.621" height="1.621"/>
				<rect x="380.753" y="230.349" style="fill:#FFFFFF;" width="1.621" height="1.621"/>
				<rect x="380.753" y="233.066" style="fill:#FFFFFF;" width="1.621" height="1.621"/>
				<rect x="380.753" y="235.784" style="fill:#FFFFFF;" width="1.621" height="1.621"/>
				<rect x="383.328" y="178.711" style="fill:#FFFFFF;" width="1.621" height="1.621"/>
				<rect x="383.328" y="181.428" style="fill:#FFFFFF;" width="1.621" height="1.621"/>
				<rect x="383.328" y="184.146" style="fill:#FFFFFF;" width="1.621" height="1.621"/>
				<rect x="383.328" y="186.864" style="fill:#FFFFFF;" width="1.621" height="1.621"/>
				<rect x="383.328" y="189.582" style="fill:#FFFFFF;" width="1.621" height="1.621"/>
				<rect x="383.328" y="192.3" style="fill:#FFFFFF;" width="1.621" height="1.621"/>
				<rect x="383.328" y="195.018" style="fill:#FFFFFF;" width="1.621" height="1.621"/>
				<rect x="383.328" y="197.735" style="fill:#FFFFFF;" width="1.621" height="1.621"/>
				<rect x="383.328" y="200.453" style="fill:#FFFFFF;" width="1.621" height="1.621"/>
				<rect x="383.328" y="203.171" style="fill:#FFFFFF;" width="1.621" height="1.621"/>
				<rect x="383.328" y="205.889" style="fill:#FFFFFF;" width="1.621" height="1.621"/>
				<rect x="383.328" y="208.606" style="fill:#FFFFFF;" width="1.621" height="1.621"/>
				<rect x="383.328" y="211.324" style="fill:#FFFFFF;" width="1.621" height="1.621"/>
				<rect x="383.328" y="219.477" style="fill:#FFFFFF;" width="1.621" height="1.621"/>
				<rect x="383.328" y="222.195" style="fill:#FFFFFF;" width="1.621" height="1.621"/>
				<rect x="383.328" y="227.631" style="fill:#FFFFFF;" width="1.621" height="1.621"/>
				<rect x="383.328" y="230.349" style="fill:#FFFFFF;" width="1.621" height="1.621"/>
				<rect x="383.328" y="233.066" style="fill:#FFFFFF;" width="1.621" height="1.621"/>
				<rect x="383.328" y="235.784" style="fill:#FFFFFF;" width="1.621" height="1.621"/>
				<rect x="385.902" y="178.711" style="fill:#FFFFFF;" width="1.621" height="1.621"/>
				<rect x="385.902" y="181.428" style="fill:#FFFFFF;" width="1.621" height="1.621"/>
				<rect x="385.902" y="184.146" style="fill:#FFFFFF;" width="1.621" height="1.621"/>
				<rect x="385.902" y="186.864" style="fill:#FFFFFF;" width="1.621" height="1.621"/>
				<rect x="385.902" y="189.582" style="fill:#FFFFFF;" width="1.621" height="1.621"/>
				<rect x="385.902" y="192.3" style="fill:#FFFFFF;" width="1.621" height="1.621"/>
				<rect x="385.902" y="195.018" style="fill:#FFFFFF;" width="1.621" height="1.621"/>
				<rect x="385.902" y="197.735" style="fill:#FFFFFF;" width="1.621" height="1.621"/>
				<rect x="385.902" y="200.453" style="fill:#FFFFFF;" width="1.621" height="1.621"/>
				<rect x="385.902" y="203.171" style="fill:#FFFFFF;" width="1.621" height="1.621"/>
				<rect x="385.902" y="205.889" style="fill:#FFFFFF;" width="1.621" height="1.621"/>
				<rect x="385.902" y="208.606" style="fill:#FFFFFF;" width="1.621" height="1.621"/>
				<rect x="385.902" y="211.324" style="fill:#FFFFFF;" width="1.621" height="1.621"/>
				<rect x="385.902" y="214.042" style="fill:#FFFFFF;" width="1.621" height="1.621"/>
				<rect x="385.902" y="219.477" style="fill:#FFFFFF;" width="1.621" height="1.621"/>
				<rect x="385.902" y="224.913" style="fill:#FFFFFF;" width="1.621" height="1.621"/>
				<rect x="385.902" y="227.631" style="fill:#FFFFFF;" width="1.621" height="1.621"/>
				<rect x="385.902" y="230.349" style="fill:#FFFFFF;" width="1.621" height="1.621"/>
				<rect x="385.902" y="233.066" style="fill:#FFFFFF;" width="1.621" height="1.621"/>
				<rect x="385.902" y="235.784" style="fill:#FFFFFF;" width="1.621" height="1.621"/>
				<rect x="370.263" y="194.207" style="fill:#FFFFFF;" width="1.621" height="1.621"/>
				<rect x="370.263" y="196.925" style="fill:#FFFFFF;" width="1.621" height="1.621"/>
				<rect x="370.263" y="199.643" style="fill:#FFFFFF;" width="1.621" height="1.621"/>
				<rect x="370.263" y="202.36" style="fill:#FFFFFF;" width="1.621" height="1.621"/>
				<rect x="370.263" y="205.078" style="fill:#FFFFFF;" width="1.621" height="1.621"/>
				<rect x="370.263" y="207.796" style="fill:#FFFFFF;" width="1.621" height="1.621"/>
				<rect x="370.263" y="215.949" style="fill:#FFFFFF;" width="1.621" height="1.621"/>
				<rect x="370.263" y="218.667" style="fill:#FFFFFF;" width="1.621" height="1.621"/>
				<rect x="370.263" y="221.385" style="fill:#FFFFFF;" width="1.621" height="1.621"/>
				<rect x="370.263" y="224.103" style="fill:#FFFFFF;" width="1.621" height="1.621"/>
				<rect x="370.263" y="226.82" style="fill:#FFFFFF;" width="1.621" height="1.621"/>
				<rect x="370.263" y="229.538" style="fill:#FFFFFF;" width="1.621" height="1.621"/>
				<rect x="370.263" y="232.256" style="fill:#FFFFFF;" width="1.621" height="1.621"/>
				<rect x="372.838" y="194.207" style="fill:#FFFFFF;" width="1.621" height="1.621"/>
				<rect x="372.838" y="196.925" style="fill:#FFFFFF;" width="1.621" height="1.621"/>
				<rect x="372.838" y="199.643" style="fill:#FFFFFF;" width="1.621" height="1.621"/>
				<rect x="372.838" y="202.36" style="fill:#FFFFFF;" width="1.621" height="1.621"/>
				<rect x="372.838" y="205.078" style="fill:#FFFFFF;" width="1.621" height="1.621"/>
				<rect x="372.838" y="207.796" style="fill:#FFFFFF;" width="1.621" height="1.621"/>
				<rect x="372.838" y="215.949" style="fill:#FFFFFF;" width="1.621" height="1.621"/>
				<rect x="372.838" y="218.667" style="fill:#FFFFFF;" width="1.621" height="1.621"/>
				<rect x="372.838" y="221.385" style="fill:#FFFFFF;" width="1.621" height="1.621"/>
				<rect x="372.838" y="224.103" style="fill:#FFFFFF;" width="1.621" height="1.621"/>
				<rect x="372.838" y="226.82" style="fill:#FFFFFF;" width="1.621" height="1.621"/>
				<rect x="372.838" y="229.538" style="fill:#FFFFFF;" width="1.621" height="1.621"/>
				<rect x="372.838" y="234.974" style="fill:#FFFFFF;" width="1.621" height="1.621"/>
			</g>
			
				<ellipse transform="matrix(0.9239 -0.3827 0.3827 0.9239 -26.9469 129.594)" style="opacity:0.7;fill:#FFFFFF;" cx="312.284" cy="132.533" rx="10.681" ry="10.68"/>
		</g>
		<g>
			<rect x="432.949" y="105.339" style="fill:#407BFF;" width="3.219" height="148.641"/>
			<rect x="381.763" y="105.339" style="fill:#407BFF;" width="2.723" height="148.641"/>
			<rect x="330.577" y="105.339" style="fill:#407BFF;" width="2.723" height="148.641"/>
			<g style="opacity:0.7;enable-background:new    ;">
				<rect x="432.949" y="105.339" style="fill:#FFFFFF;" width="3.219" height="148.641"/>
				<rect x="381.763" y="105.339" style="fill:#FFFFFF;" width="2.723" height="148.641"/>
				<rect x="330.577" y="105.339" style="fill:#FFFFFF;" width="2.723" height="148.641"/>
			</g>
		</g>
	</g>
</g>
<g id="Puff">
	<g>
		<path style="fill:#407BFF;" d="M405.325,413.387H274.194c-24.502,0-26.073-28.847-5.936-42.427
			c3.385-2.299,7.391-4.152,11.999-5.364c39.876-10.486,95.912-80.993,135.322-51.487c0.039,0.019,0.068,0.048,0.107,0.078
			C455.105,343.898,427.625,413.387,405.325,413.387z"/>
		<path style="opacity:0.2;fill:#FFFFFF;" d="M415.578,314.109c-3.308-0.223-7.323,0.708-11.64,4.326
			c-11.213,9.409,5.84,54.673-20.976,73.503c-14.961,10.505-79.512,15.141-101.057,2.253c-15.91-9.517-16.111-15.481-13.647-23.231
			c3.385-2.299,7.391-4.152,11.999-5.364C320.132,355.111,376.168,284.603,415.578,314.109z"/>
	</g>
	<g>
		<path style="fill:#407BFF;" d="M261.592,337.615c5.848-5.975,38.872-6.311,49.133-6.226c10.26,0.086,24.217,35.071,28.375,40.593
			c4.158,5.522-29.951,21.855-46.454,19.776C276.144,389.68,252.387,347.022,261.592,337.615z"/>
		<path style="opacity:0.2;" d="M261.592,337.615c5.848-5.975,38.872-6.311,49.133-6.226c10.26,0.086,24.217,35.071,28.375,40.593
			c4.158,5.522-29.951,21.855-46.454,19.776C276.144,389.68,252.387,347.022,261.592,337.615z"/>
	</g>
</g>
<g id="Musical_notes">
	<g>
		<path style="fill:#407BFF;" d="M207.845,102.511l-5.124-11.061l-2.622-5.66l-1.175,1.401l-5.218,6.241l-7.269-0.356l-1.868-0.093
			l2.864,6.183l3.948,8.523c-0.669-0.012-1.399,0.138-2.109,0.467c-1.886,0.874-2.908,2.673-2.285,4.02
			c0.624,1.347,2.658,1.731,4.544,0.857c1.884-0.873,2.906-2.67,2.286-4.016l0.003-0.002l-4.562-9.848l7.605,0.007l4.724-6.233
			l3.821,8.248c-0.668-0.011-1.397,0.139-2.105,0.467c-1.885,0.873-2.908,2.673-2.284,4.02c0.624,1.347,2.658,1.731,4.544,0.857
			c1.886-0.873,2.908-2.673,2.285-4.02C207.847,102.514,207.846,102.513,207.845,102.511z"/>
		<path style="fill:#407BFF;" d="M203.5,198.906l-3.602-3.004l-0.937-0.783l-2.232,10.346c-0.344-0.269-0.784-0.478-1.283-0.586
			c-1.327-0.286-2.568,0.25-2.772,1.197c-0.204,0.947,0.705,1.948,2.032,2.234c1.325,0.286,2.565-0.249,2.771-1.195l0.002,0
			l1.495-6.928l3.655,2.762L203.5,198.906z"/>
		<path style="fill:#407BFF;" d="M186.639,138.165l-0.175-2.012l-6.223-2.601l-1.619-0.679l0.34,3.913l0.653,7.514l0.325,3.734
			c-0.587-0.224-1.28-0.325-2.011-0.261c-1.944,0.169-3.422,1.431-3.301,2.82c0.121,1.389,1.794,2.377,3.738,2.208
			c1.942-0.169,3.418-1.429,3.301-2.816l0.003,0l-0.506-5.819l-0.377-4.333l6.192,2.246l-0.175-2.012l-6.223-2.601l-0.134-1.546
			L186.639,138.165z"/>
		<path style="fill:#407BFF;" d="M220.331,174.259l1.622-8.063l0.83-4.126l-1.199,0.294l-5.329,1.316l-3.815-3.092l-0.979-0.796
			l-0.557,2.767v0l-1.104,5.487l0,0l-0.496,2.467c-0.359-0.273-0.817-0.483-1.334-0.587c-1.374-0.277-2.649,0.295-2.846,1.277
			c-0.198,0.982,0.757,2.002,2.131,2.278c1.373,0.276,2.646-0.294,2.846-1.274l0.002,0l1.444-7.179l4.137,3.036l5.057-1.509
			l-0.714,3.547l0,0l-0.496,2.465c-0.359-0.272-0.816-0.481-1.332-0.585c-1.374-0.277-2.649,0.295-2.846,1.277
			c-0.198,0.982,0.757,2.002,2.131,2.278c1.374,0.277,2.649-0.295,2.846-1.277C220.331,174.261,220.33,174.26,220.331,174.259z
			 M221.028,165.131l-5.329,1.316l-3.815-3.092l0.22-1.093l4.137,3.036l5.057-1.509L221.028,165.131L221.028,165.131z"/>
	</g>
</g>
<g id="Character">
	<g>
		<g>
			<g>
				<path style="fill:#263238;" d="M221.417,416.269h58.198c0.632,0,1.144-0.512,1.144-1.144v-3.712
					c0-0.632-0.512-1.144-1.144-1.144h-55.198V291.453h54.257c1.152,0,2.085-0.934,2.085-2.085v-3.915h-59.342c-1.657,0-3,1.343-3,3
					v124.816C218.417,414.926,219.761,416.269,221.417,416.269z"/>
			</g>
			<g style="opacity:0.3;enable-background:new    ;">
				<path style="fill:#FFFFFF;" d="M218.417,288.459v124.81c0,1.66,1.34,3,3,3h58.2c0.63,0,1.14-0.51,1.14-1.14v-3.71
					c0-0.63-0.51-1.15-1.14-1.15h-55.2v-118.81h54.26c1.15,0,2.08-0.94,2.08-2.09v-3.91h-59.34
					C219.756,285.459,218.417,286.799,218.417,288.459z"/>
			</g>
			<path style="opacity:0.2;" d="M218.417,288.455v31.83c2,0.51,4,1,6,1.47v-30.3h54.26c1.15,0,2.08-0.94,2.08-2.09v-3.91h-59.34
				C219.756,285.455,218.417,286.795,218.417,288.455z"/>
		</g>
		<g>
			<path style="fill:#263238;" d="M115.169,399.56l23.865-2.081v-31.343h8.39v31.335l23.951,2.089
				c2.11,0.207,3.719,1.982,3.719,4.102v3.179H144.05h-1.555H111.45v-3.179C111.45,401.541,113.059,399.767,115.169,399.56z"/>
			<path style="opacity:0.1;fill:#FFFFFF;enable-background:new    ;" d="M115.169,399.56l23.865-2.081v-31.343h8.39v31.335
				l23.951,2.089c2.11,0.207,3.719,1.982,3.719,4.102v3.179H144.05h-1.555H111.45v-3.179
				C111.45,401.541,113.059,399.767,115.169,399.56z"/>
			<path style="fill:#263238;" d="M167.368,410.784c0,3.03,2.456,5.485,5.486,5.485c3.029,0,5.485-2.456,5.485-5.485
				s-2.456-5.486-5.485-5.486C169.824,405.298,167.368,407.754,167.368,410.784z"/>
			<path style="fill:#263238;" d="M119.176,410.784c0,3.03-2.456,5.485-5.485,5.485c-3.03,0-5.485-2.456-5.485-5.485
				s2.456-5.486,5.485-5.486C116.72,405.298,119.176,407.754,119.176,410.784z"/>
			<path style="fill:#263238;" d="M141.303,372.53h3.852c2.051,0,3.714-1.663,3.714-3.714V341.85h-11.28v26.967
				C137.589,370.868,139.252,372.53,141.303,372.53z"/>
			<path style="opacity:0.2;fill:#FFFFFF;enable-background:new    ;" d="M141.303,372.53h3.852c2.051,0,3.714-1.663,3.714-3.714
				V341.85h-11.28v26.967C137.589,370.868,139.252,372.53,141.303,372.53z"/>
			<path style="fill:#263238;" d="M118.479,279.848c0,0,2.585,51.826,13.746,60.749h-11.937c0,0-10.645-17.656-11.439-60.749
				H118.479z"/>
			<path style="opacity:0.1;fill:#FFFFFF;enable-background:new    ;" d="M118.479,279.848c0,0,2.585,51.826,13.746,60.749h-11.937
				c0,0-10.645-17.656-11.439-60.749H118.479z"/>
			<path style="fill:#407BFF;" d="M170.432,336.302h-52.923c-2.481,0-4.493,2.011-4.493,4.493v4.096h61.908v-4.096
				C174.925,338.313,172.913,336.302,170.432,336.302z"/>
			<g>
				<path style="fill:#263238;" d="M175.473,340.596h-63.005c-0.998,0-1.807,0.809-1.807,1.807v0.68
					c0,0.998,0.809,1.807,1.807,1.807h63.005c0.998,0,1.807-0.809,1.807-1.807v-0.68
					C177.28,341.405,176.471,340.596,175.473,340.596z"/>
				<path style="opacity:0.6;fill:#FFFFFF;enable-background:new    ;" d="M175.473,340.596h-63.005
					c-0.998,0-1.807,0.809-1.807,1.807v0.68c0,0.998,0.809,1.807,1.807,1.807h63.005c0.998,0,1.807-0.809,1.807-1.807v-0.68
					C177.28,341.405,176.471,340.596,175.473,340.596z"/>
			</g>
			<path style="fill:#407BFF;" d="M106.756,291.194l19.123,0c5.602,0,9.648-5.034,9.036-11.243l-0.816-8.288
				c-0.611-6.209-5.648-11.243-11.25-11.243h-19.123c-5.602,0-9.648,5.034-9.037,11.243l0.816,8.288
				C96.117,286.161,101.154,291.194,106.756,291.194z"/>
		</g>
		<g id="_x3C_Group_x3E__16_">
			<path style="fill:#B65B52;" d="M172.742,245.548c5.402,6.291,10.944,12.91,16.962,18.548c1.723,1.48,3.175,2.987,5.224,3.656
				c5.077,1.436,10.657,1.642,16.001,1.988c5.681,0.271,11.484,0.447,17.223,0.565l0.503,5.621
				c-5.856,1.077-11.68,1.851-17.634,2.266c-4.519,0.314-9.113,0.469-13.708,0.106c-3.425-0.199-7.588-1.083-10.526-3.066
				c-9.076-6.074-16.049-14.212-22.902-22.517C163.885,252.716,172.742,245.548,172.742,245.548L172.742,245.548z"/>
			<path style="fill:#263238;" d="M188.84,259.77l-1.94,1.61l-5,4.16l-3.57,2.96l-1.34,1.12l-8.94-5.1l-3.97-2.27
				c0,0,0.96-2.9,2.55-6.18c1.81-3.72,4.44-7.95,7.4-9.01c1.11-0.39,2.26-0.34,3.44,0.33C183.79,251.02,188.84,259.77,188.84,259.77
				z"/>
			<path style="opacity:0.2;enable-background:new    ;" d="M184.3,273.55c-0.55-0.41-1.08-0.82-1.59-1.24
				c-1.54-1.25-2.99-2.52-4.38-3.81l-1.34,1.12l-8.94-5.1l2.18-4.32l3.6-7.14c0,0,4.85,5.04,8.07,12.48
				C182.96,267.98,183.84,270.68,184.3,273.55z"/>
			<g>
				<path style="fill:#407BFF;" d="M191.691,405.593c0.01,0.022,0.005,0.048,0.022,0.066c0.021,0.013,0.047,0.013,0.072,0.011
					c0.65,0.385,1.34,0.7,2.059,0.936c0.523,0.227,1.113,0.249,1.651,0.062c0.36-0.195,0.577-0.58,0.554-0.989
					c0.03-0.257-0.072-0.51-0.273-0.672c-0.474-0.369-1.486-0.285-2.38-0.116c0.66-0.514,1.243-1.166,1.291-1.696
					c0.028-0.348-0.166-0.671-0.497-0.783c-0.285-0.125-0.573-0.118-0.854,0.019c-1.043,0.544-1.495,2.912-1.528,3.039
					c0,0.001,0.15,0.004,0.15,0.005s0,0.002,0,0.003c0,0.001-0.153,0.004-0.153,0.005c-0.001,0.009-0.143,0.012-0.143,0.021
					C191.664,405.536,191.673,405.566,191.691,405.593z M192.335,405.134c-0.071,0.02-0.132,0.037-0.192,0.054
					c0.216-0.777,0.672-2.052,1.296-2.368c0.139-0.08,0.304-0.098,0.457-0.05l0.091,0.035c0.262,0.114,0.292,0.268,0.275,0.383
					C194.178,403.759,193.182,404.692,192.335,405.134z M192.357,405.572c1.128-0.315,2.689-0.588,3.159-0.218
					c0.1,0.079,0.15,0.204,0.133,0.33c0.006,0.257-0.123,0.498-0.34,0.635C194.811,406.577,193.727,406.299,192.357,405.572z"/>
			</g>
			<polygon style="fill:#B55B52;" points="187.033,388.394 182.041,404.381 190.519,405.195 195.057,390.629 			"/>
			<polygon style="opacity:0.2;enable-background:new    ;" points="187.032,388.393 184.552,396.311 192.915,397.501 
				195.058,390.629 			"/>
			<path style="fill:#263238;" d="M191.372,404.345l-9.142-2.764c-0.314-0.111-0.659,0.054-0.77,0.369
				c-0.001,0.003-0.002,0.006-0.003,0.009l-2.635,7.106c-0.238,0.788,0.202,1.622,0.987,1.87c3.206,0.913,4.782,1.189,8.814,2.373
				c2.471,0.74,7.285,2.437,10.822,2.917c3.537,0.48,3.917-3.029,2.462-3.544c-3.447-1.237-7.524-4.945-9.275-7.442
				C192.322,404.809,191.879,404.495,191.372,404.345z"/>
			<path style="fill:#407BFF;" d="M135.851,303.256c1.171,18.966,4.049,29.365,21.12,31.829c17.072,2.465,43.735,0,43.735,0
				l-16.325,58.408l16.313,5.469c0,0,27.263-70.558,23.646-78.217c-3.617-7.66-55.024-12.738-55.024-12.738l-4.671-9.688
				L135.851,303.256z"/>
			<path style="opacity:0.4;fill:#FFFFFF;enable-background:new    ;" d="M212.37,367.06c-5.89,16.91-11.68,31.9-11.68,31.9
				l-16.31-5.47l16.33-58.4c0,0-17.88,1.65-33.72,0.89c-3.51-0.16-6.93-0.44-10.02-0.89c-17.07-2.47-19.95-12.87-21.12-31.83
				l28.8-4.94l4.67,9.69c0,0,51.4,5.08,55.02,12.73C226.289,324.87,219.269,347.28,212.37,367.06z"/>
			<path style="opacity:0.2;enable-background:new    ;" d="M212.37,367.06c-5.89,16.91-11.68,31.9-11.68,31.9l-16.31-5.47
				l16.33-58.4c0,0-17.88,1.65-33.72,0.89l0.75-25.63c0,0,31.9-0.16,43.88,6.86C214.549,318.93,213.749,343.71,212.37,367.06z"/>
			<path style="fill:#407BFF;" d="M120.85,303.256c1.171,18.966,4.049,29.365,21.121,31.829c17.072,2.465,43.735,0,43.735,0
				l3.677,62.408l16.313-0.531c0,0,7.262-70.558,3.645-78.217c-3.617-7.66-50.023-8.738-50.023-8.738l-4.671-11.688L120.85,303.256z
				"/>
			<path style="opacity:0.4;fill:#FFFFFF;enable-background:new    ;" d="M120.85,303.256c1.171,18.966,4.049,29.365,21.121,31.829
				c17.072,2.465,43.735,0,43.735,0l3.677,62.408l16.313-0.531c0,0,7.262-70.558,3.645-78.217
				c-3.617-7.66-50.023-8.738-50.023-8.738l-4.671-11.688L120.85,303.256z"/>
			<g>
				<path style="fill:#407BFF;" d="M202.197,407.85c0.016,0.018,0.018,0.045,0.039,0.058c0.024,0.006,0.049,0,0.072-0.009
					c0.73,0.196,1.479,0.315,2.234,0.349c0.565,0.078,1.138-0.059,1.607-0.383c0.294-0.285,0.4-0.713,0.269-1.101
					c-0.04-0.255-0.206-0.473-0.443-0.574c-0.556-0.228-1.508,0.124-2.323,0.527c0.497-0.672,0.884-1.457,0.789-1.98
					c-0.067-0.343-0.34-0.602-0.689-0.62c-0.309-0.044-0.584,0.04-0.817,0.247c-0.859,0.804-0.659,3.207-0.657,3.337
					c0,0.001,0.146-0.036,0.146-0.035c0,0.001,0.001,0.001,0.001,0.002c0,0.001-0.146,0.045-0.146,0.046
					c0.001,0.009-0.135,0.05-0.132,0.059C202.155,407.803,202.172,407.83,202.197,407.85z M202.694,407.235
					c-0.063,0.038-0.117,0.071-0.17,0.104c0-0.807,0.097-2.157,0.613-2.629c0.112-0.114,0.267-0.176,0.427-0.171l0.097,0.009
					c0.283,0.039,0.354,0.18,0.368,0.295C204.1,405.417,203.391,406.582,202.694,407.235z M202.833,407.652
					c1.002-0.606,2.432-1.288,2.984-1.058c0.117,0.049,0.2,0.156,0.217,0.282c0.075,0.246,0.015,0.513-0.157,0.703
					C205.466,407.962,204.348,407.985,202.833,407.652z"/>
			</g>
			<polygon style="fill:#B55B52;" points="193.095,392.532 192.576,409.273 200.961,407.782 201.424,392.532 			"/>
			<polygon style="opacity:0.2;enable-background:new    ;" points="193.093,392.532 192.829,400.825 201.205,399.727 
				201.425,392.532 			"/>
			<path style="fill:#263238;" d="M201.554,406.734l-9.549-0.21c-0.333-0.022-0.62,0.229-0.643,0.562c0,0.003,0,0.007-0.001,0.01
				l-0.632,7.552c-0.018,0.823,0.629,1.508,1.452,1.536c3.333,0.019,4.925-0.138,9.128-0.079c2.579,0.05,7.672,0.392,11.208-0.094
				c3.536-0.487,2.96-3.969,1.42-4.075c-3.652-0.267-8.575-2.745-10.932-4.68C202.595,406.926,202.083,406.742,201.554,406.734z"/>
			<polygon style="fill:#407BFF;" points="188.378,397.52 205.972,397.967 207.171,390.392 187.857,390.273 			"/>
			<polygon style="opacity:0.2;fill:#FFFFFF;" points="188.378,397.52 205.972,397.967 207.171,390.392 187.857,390.273 			"/>
			<path style="fill:#263238;" d="M177.47,247.39c0,0-10.46,27.61-10.93,55.87h-45.69c0,0,0-26.09,7.75-46.62
				c1.46-3.87,3.2-7.54,5.27-10.8c1.01-1.62,2.12-3.15,3.31-4.54c0,0,9.43-2.93,18.99-1.98
				C165.72,240.28,177.47,247.39,177.47,247.39z"/>
			<g>
				<path style="fill:#B55B52;" d="M149.628,239.983l11.225,8.531l1.721-3.457c-0.517-2.576-0.374-4.044,1.506-6.211l-5.219-12.522
					C157.431,231.376,154.266,237.871,149.628,239.983z"/>
				<path style="opacity:0.2;enable-background:new    ;" d="M160.986,231.429l3.086,7.413c-0.672,0.755-1.279,1.567-1.813,2.425
					c-1.905-1.337-3.577-5.026-2.706-7.286C159.868,233.049,160.354,232.184,160.986,231.429z"/>
			</g>
			<g>
				<path d="M179.662,228.149c-0.649,3.482-3.492,5.874-6.349,5.341c-2.858-0.533-4.648-3.787-3.999-7.27
					c0.649-3.482,3.492-5.874,6.349-5.341C178.52,221.412,180.311,224.667,179.662,228.149z"/>
				<path style="fill:#263238;" d="M180.969,218.273c0.284,3.023-1.452,8.735-5.002,5.995
					C172.417,221.529,180.481,213.078,180.969,218.273z"/>
				<path style="fill:#B55B52;" d="M159.747,217.724c-1.996,7.184-3.531,11.291-1.206,16.097c3.497,7.231,13.341,6.925,17.455,0.463
					c3.703-5.816,6.345-16.588,0.388-21.703C170.515,207.541,161.742,210.54,159.747,217.724z"/>
				<path style="fill:#263238;" d="M156.876,209.405l8.295,0.254l-0.146,4.761c-0.15-0.101-0.319-0.2-0.459-0.302
					c0,0-1.056,6.888-5.189,8.955C154.329,218.574,153.271,211.773,156.876,209.405z"/>
				<path style="fill:#B55B52;" d="M155.007,222.651c-0.063,2.005,0.813,3.846,1.969,5.021c1.739,1.768,3.862,0.509,4.428-1.776
					c0.51-2.057,0.218-5.455-2.032-6.366C157.154,218.632,155.079,220.358,155.007,222.651z"/>
				<path style="fill:#263238;" d="M169.796,223.277c-0.198,0.573-0.053,1.14,0.323,1.266c0.377,0.126,0.842-0.237,1.04-0.81
					c0.198-0.573,0.053-1.14-0.324-1.266C170.459,222.341,169.994,222.704,169.796,223.277z"/>
				<path style="fill:#263238;" d="M176.306,225.452c-0.198,0.573-0.053,1.14,0.323,1.266c0.376,0.126,0.842-0.237,1.04-0.81
					c0.198-0.573,0.053-1.14-0.323-1.266C176.969,224.517,176.504,224.879,176.306,225.452z"/>
				<path style="fill:#A02724;" d="M174.137,225.046c0,0,0.243,3.632,1.165,5.663c-1.314,0.559-2.896-0.454-2.896-0.454
					L174.137,225.046z"/>
				<path style="fill:#263238;" d="M168.563,231.417c0.225,0.111,0.469,0.212,0.733,0.3c0.093,0.031,0.195-0.019,0.227-0.112
					c0.033-0.093-0.02-0.194-0.111-0.225c-2.529-0.848-3.101-2.996-3.107-3.018c-0.024-0.095-0.122-0.151-0.217-0.127
					c-0.096,0.025-0.154,0.122-0.13,0.217C165.98,228.537,166.474,230.391,168.563,231.417z"/>
				<path style="fill:#263238;" d="M168.511,220.514c0.111,0.055,0.249,0.05,0.36-0.025c1.324-0.893,2.543-0.405,2.555-0.4
					c0.182,0.075,0.392-0.01,0.469-0.191c0.077-0.181-0.009-0.389-0.19-0.464c-0.064-0.027-1.591-0.639-3.233,0.469
					c-0.164,0.111-0.208,0.331-0.097,0.493C168.41,220.448,168.458,220.488,168.511,220.514z"/>
				<path style="fill:#263238;" d="M179.88,224.162c0.061,0.03,0.131,0.043,0.204,0.034c0.196-0.025,0.336-0.203,0.312-0.398
					c-0.24-1.951-1.714-2.667-1.776-2.707c-0.177-0.085-0.392-0.011-0.479,0.166c-0.087,0.176-0.014,0.387,0.161,0.473
					c0.063,0.027,1.192,0.593,1.384,2.159C179.7,224.011,179.777,224.111,179.88,224.162z"/>
				<path style="fill:#263238;" d="M161.878,215.7c0,0,0.169,0.18,0.474,0.388c0.609,0.416,1.759,0.946,3.182,0.376
					c2.136-0.854,3.228-6.647,8.847-3.226c0,0,2.049-0.45,3.414,1.509c1.365,1.959-0.191,8.614,3.094,7.929
					c3.285-0.685,2.801-1.719,2.801-1.719s-0.943,0.5-1.444,0.009c0,0,1.791-1.27,1.132-3.289c0,0-0.851,0.862-1.36,0.64
					c0,0,1.237-3.364-0.266-8.152c-1.503-4.788-12.991-4.624-12.991-4.624s-1.255-2.512-6.536-1.231
					c-5.281,1.282-8.109,7.309-7.499,10.079L161.878,215.7z"/>
				<g>
					<path d="M163.312,223.997c-0.649,3.482-3.492,5.874-6.349,5.341c-2.858-0.533-4.648-3.787-3.999-7.27
						c0.649-3.482,3.492-5.874,6.349-5.341C162.171,217.26,163.961,220.515,163.312,223.997z"/>
					<path style="fill:#263238;" d="M158.816,218.66c2.109-7.755,5.481-13.255,16.486-12.482l-0.654-0.794l-6.014-1.085
						c0,0-10.933-0.351-13.411,14.362H158.816z"/>
					<path style="opacity:0.3;fill:#FFFFFF;enable-background:new    ;" d="M158.816,218.66c2.109-7.755,5.481-13.255,16.486-12.482
						l-0.654-0.794l-6.014-1.085c0,0-10.933-0.351-13.411,14.362H158.816z"/>
					<path style="fill:#263238;" d="M161.064,223.436c-0.55,2.95-2.957,4.975-5.378,4.524s-3.937-3.208-3.387-6.157
						c0.55-2.95,2.958-4.975,5.378-4.524C160.097,217.73,161.614,220.486,161.064,223.436z"/>
					<path style="opacity:0.4;fill:#FFFFFF;enable-background:new    ;" d="M161.064,223.436c-0.55,2.95-2.957,4.975-5.378,4.524
						s-3.937-3.208-3.387-6.157c0.55-2.95,2.958-4.975,5.378-4.524C160.097,217.73,161.614,220.486,161.064,223.436z"/>
				</g>
			</g>
			<path style="opacity:0.2;fill:#FFFFFF;" d="M201.554,406.734l-9.549-0.21c-0.333-0.022-0.62,0.229-0.643,0.562
				c0,0.003,0,0.007-0.001,0.01l-0.632,7.552c-0.018,0.823,0.629,1.508,1.452,1.536c3.333,0.019,4.925-0.138,9.128-0.079
				c2.579,0.05,7.672,0.392,11.208-0.094c3.536-0.487,2.96-3.969,1.42-4.075c-3.652-0.267-8.575-2.745-10.932-4.68
				C202.595,406.926,202.083,406.742,201.554,406.734z"/>
			<g>
				<path style="fill:#B55B52;" d="M224.669,270.014l7.622,0.043l-4.135,8.713c0,0-6.466-1.481-6.032-5.01L224.669,270.014z"/>
				<polygon style="fill:#B55B52;" points="237.195,273.928 233.442,280.973 228.156,278.77 232.291,270.057 				"/>
			</g>
			<g>
				<path style="fill:#263238;" d="M198.938,254.553l-15.295-7.761c-0.307-0.156-0.429-0.53-0.273-0.837l0.115-0.227
					c0.156-0.307,0.53-0.429,0.837-0.273l15.295,7.761l1.091,1.327L198.938,254.553z"/>
			</g>
			<g>
				<path style="fill:#B55B52;" d="M182.227,255.105l5.141-5.627l3.695,8.909c0,0-5.433,3.806-7.761,1.118L182.227,255.105z"/>
				<polygon style="fill:#B55B52;" points="193.528,248.434 196.24,255.94 191.063,258.388 187.368,249.479 				"/>
			</g>
			<path style="opacity:0.2;enable-background:new    ;" d="M154.11,267l-18.62,2.14c-3.3-3.91-5.49-8.54-6.89-12.5
				c1.46-3.87,3.2-7.54,5.27-10.8c4.34-0.44,9.66,0.12,13.46,4.13C154.86,257.92,154.11,267,154.11,267z"/>
			<path style="fill:#B65B52;" d="M142.434,246.817c2.353,4.938,4.99,10.111,7.763,14.845c2.285,3.739,4.65,7.741,7.921,10.257
				c6.178-0.056,19.398-12.647,24.423-17.16c0,0,4.32,3.631,4.32,3.631c-5.939,8.277-19.031,25.039-30.413,23.647
				c-9.182-1.66-16.264-14.924-20.451-22.37c-1.4-2.709-2.737-5.329-3.974-8.219L142.434,246.817L142.434,246.817z"/>
			<path style="fill:#263238;" d="M137.183,241.3c-6.141,2.126-8.356,12.254-1.334,25.7l16.044-7.234c0,0-4.426-10.166-6.809-13.891
				S137.183,241.3,137.183,241.3z"/>
		</g>
		<g>
			<g>
				<path style="fill:#263238;" d="M246.02,244.475l-12.517,27.477c-0.35,0.769-1.365,1.393-2.264,1.393h-44.79
					c-0.9,0-1.346-0.624-0.995-1.393l12.517-27.477c0.35-0.769,1.365-1.393,2.265-1.393h44.79
					C245.925,243.082,246.371,243.706,246.02,244.475z"/>
				<path style="opacity:0.4;fill:#FFFFFF;enable-background:new    ;" d="M246.02,244.477l-12.517,27.477
					c-0.35,0.769-1.365,1.393-2.265,1.393h-44.79c-0.9,0-1.346-0.624-0.995-1.393l12.517-27.477c0.35-0.769,1.365-1.393,2.265-1.393
					h44.79C245.924,243.084,246.37,243.708,246.02,244.477z"/>
				<path style="opacity:0.4;fill:#FFFFFF;enable-background:new    ;" d="M246.02,244.475l-12.517,27.477
					c-0.35,0.769-1.365,1.393-2.264,1.393h-43.79c-0.9,0-1.346-0.624-0.995-1.393l12.517-27.477c0.35-0.769,1.365-1.393,2.265-1.393
					h43.79C245.925,243.082,246.371,243.706,246.02,244.475z"/>
				<path style="opacity:0.4;fill:#FFFFFF;enable-background:new    ;" d="M220.162,258.214c-0.981,2.154-3.492,3.901-5.607,3.901
					c-2.115,0-3.034-1.746-2.053-3.901s3.492-3.901,5.607-3.901S221.143,256.059,220.162,258.214z"/>
				<path style="opacity:0.4;enable-background:new    ;" d="M197.704,252.699l-5.026,11.034c-0.257,0.564-1.007,1.026-1.677,1.026
					h-2.27l5.965-13.093h2.27C197.635,251.664,197.965,252.126,197.704,252.699z"/>
				<g>
					<path style="fill:#263238;" d="M211.509,276.89h-14.63c-1.31,0-2.11-1.44-1.43-2.56l7.71-12.66c0.11-0.17,0.31-0.28,0.52-0.27
						l0.76,0.05l1.08,0.06c0.38,0.02,0.63,0.4,0.5,0.76l-4.26,11.85c-0.28,0.8,0.31,1.65,1.17,1.65h7.23c0.32,0,0.61,0.15,0.8,0.4
						L211.509,276.89z"/>
					<path style="opacity:0.2;fill:#FFFFFF;enable-background:new    ;" d="M211.509,276.89h-13.63c-1.31,0-2.11-1.44-1.43-2.56
						l7.71-12.66c0.07-0.1,0.17-0.18,0.28-0.22l1.08,0.06c0.38,0.02,0.63,0.4,0.5,0.76l-4.26,11.85c-0.28,0.8,0.31,1.65,1.17,1.65
						h7.23c0.32,0,0.61,0.15,0.8,0.4L211.509,276.89z"/>
				</g>
				<g>
					<path style="fill:#263238;" d="M233.511,276.89h-14.63c-1.31,0-2.11-1.44-1.43-2.56l7.71-12.66c0.11-0.17,0.31-0.28,0.52-0.27
						l0.76,0.05l1.08,0.06c0.38,0.02,0.63,0.4,0.5,0.76l-4.26,11.85c-0.28,0.8,0.31,1.65,1.17,1.65h7.23c0.32,0,0.61,0.15,0.8,0.4
						L233.511,276.89z"/>
					<path style="opacity:0.2;fill:#FFFFFF;enable-background:new    ;" d="M233.511,276.89h-13.63c-1.31,0-2.11-1.44-1.43-2.56
						l7.71-12.66c0.07-0.1,0.17-0.18,0.28-0.22l1.08,0.06c0.38,0.02,0.63,0.4,0.5,0.76l-4.26,11.85c-0.28,0.8,0.31,1.65,1.17,1.65
						h7.23c0.32,0,0.61,0.15,0.8,0.4L233.511,276.89z"/>
				</g>
			</g>
			<g>
				<path style="fill:#263238;" d="M267.527,276.888h-17.035v-4.242c0-0.562,0.455-1.017,1.017-1.017h15
					c0.562,0,1.017,0.455,1.017,1.017V276.888z"/>
				<path style="opacity:0.2;fill:#FFFFFF;enable-background:new    ;" d="M267.527,276.888h-17.035v-4.242
					c0-0.562,0.455-1.017,1.017-1.017h15c0.562,0,1.017,0.455,1.017,1.017V276.888z"/>
				<path style="fill:#263238;" d="M264.671,275.343h-11.322c-0.432,0-0.782-0.35-0.782-0.781v-21.465
					c0-0.432,0.35-0.781,0.781-0.781h11.322c0.432,0,0.781,0.35,0.781,0.781v21.465
					C265.452,274.993,265.103,275.343,264.671,275.343z"/>
				<path style="fill:#407BFF;" d="M264.671,275.343h-11.322c-0.432,0-0.782-0.35-0.782-0.781v-21.465
					c0-0.432,0.35-0.781,0.781-0.781h11.322c0.432,0,0.781,0.35,0.781,0.781v21.465
					C265.452,274.993,265.103,275.343,264.671,275.343z"/>
				<path style="opacity:0.2;enable-background:new    ;" d="M264.671,275.343h-11.322c-0.432,0-0.782-0.35-0.782-0.781v-21.465
					c0-0.432,0.35-0.781,0.781-0.781h11.322c0.432,0,0.781,0.35,0.781,0.781v21.465
					C265.452,274.993,265.103,275.343,264.671,275.343z"/>
				<rect x="253.394" y="253.894" style="fill:#263238;" width="11.232" height="19.87"/>
				<rect x="253.394" y="253.894" style="fill:#407BFF;" width="11.232" height="2.609"/>
				<rect x="253.394" y="253.894" style="opacity:0.2;fill:#FFFFFF;" width="11.232" height="2.609"/>
				<rect x="253.394" y="270.111" style="fill:#407BFF;" width="11.232" height="3.653"/>
				<rect x="253.394" y="270.111" style="opacity:0.2;fill:#FFFFFF;" width="11.232" height="3.653"/>
				<g>
					<rect x="254.108" y="261.95" style="fill:#407BFF;enable-background:new    ;" width="0.351" height="2.44"/>
					<rect x="257.653" y="261.95" style="fill:#407BFF;enable-background:new    ;" width="0.351" height="2.44"/>
					<rect x="254.699" y="262.772" style="fill:#407BFF;enable-background:new    ;" width="0.351" height="0.796"/>
					<rect x="261.198" y="262.772" style="fill:#407BFF;enable-background:new    ;" width="0.351" height="0.796"/>
					<rect x="257.062" y="262.573" style="fill:#407BFF;enable-background:new    ;" width="0.351" height="1.194"/>
					<rect x="263.561" y="262.573" style="fill:#407BFF;enable-background:new    ;" width="0.351" height="1.194"/>
					<rect x="260.607" y="262.573" style="fill:#407BFF;enable-background:new    ;" width="0.351" height="1.194"/>
					<rect x="255.289" y="261.95" style="fill:#407BFF;enable-background:new    ;" width="0.351" height="2.44"/>
					<rect x="260.016" y="261.95" style="fill:#407BFF;enable-background:new    ;" width="0.351" height="2.44"/>
					<rect x="261.788" y="261.95" style="fill:#407BFF;enable-background:new    ;" width="0.351" height="2.44"/>
					<rect x="256.471" y="261.724" style="fill:#407BFF;enable-background:new    ;" width="0.351" height="2.892"/>
					<rect x="262.97" y="261.724" style="fill:#407BFF;enable-background:new    ;" width="0.351" height="2.892"/>
					<rect x="258.834" y="261.724" style="fill:#407BFF;enable-background:new    ;" width="0.351" height="2.892"/>
					<rect x="255.88" y="261.179" style="fill:#407BFF;enable-background:new    ;" width="0.351" height="3.982"/>
					<rect x="259.425" y="261.179" style="fill:#407BFF;enable-background:new    ;" width="0.351" height="3.982"/>
					<rect x="258.243" y="261.179" style="fill:#407BFF;enable-background:new    ;" width="0.351" height="3.982"/>
					<rect x="262.379" y="261.179" style="fill:#407BFF;enable-background:new    ;" width="0.351" height="3.982"/>
				</g>
				<g style="opacity:0.5;">
					<rect x="254.108" y="261.95" style="fill:#FFFFFF;enable-background:new    ;" width="0.351" height="2.44"/>
					<rect x="257.653" y="261.95" style="fill:#FFFFFF;enable-background:new    ;" width="0.351" height="2.44"/>
					<rect x="254.699" y="262.772" style="fill:#FFFFFF;enable-background:new    ;" width="0.351" height="0.796"/>
					<rect x="261.198" y="262.772" style="fill:#FFFFFF;enable-background:new    ;" width="0.351" height="0.796"/>
					<rect x="257.062" y="262.573" style="fill:#FFFFFF;enable-background:new    ;" width="0.351" height="1.194"/>
					<rect x="263.561" y="262.573" style="fill:#FFFFFF;enable-background:new    ;" width="0.351" height="1.194"/>
					<rect x="260.607" y="262.573" style="fill:#FFFFFF;enable-background:new    ;" width="0.351" height="1.194"/>
					<rect x="255.289" y="261.95" style="fill:#FFFFFF;enable-background:new    ;" width="0.351" height="2.44"/>
					<rect x="260.016" y="261.95" style="fill:#FFFFFF;enable-background:new    ;" width="0.351" height="2.44"/>
					<rect x="261.788" y="261.95" style="fill:#FFFFFF;enable-background:new    ;" width="0.351" height="2.44"/>
					<rect x="256.471" y="261.724" style="fill:#FFFFFF;enable-background:new    ;" width="0.351" height="2.892"/>
					<rect x="262.97" y="261.724" style="fill:#FFFFFF;enable-background:new    ;" width="0.351" height="2.892"/>
					<rect x="258.834" y="261.724" style="fill:#FFFFFF;enable-background:new    ;" width="0.351" height="2.892"/>
					<rect x="255.88" y="261.179" style="fill:#FFFFFF;enable-background:new    ;" width="0.351" height="3.982"/>
					<rect x="259.425" y="261.179" style="fill:#FFFFFF;enable-background:new    ;" width="0.351" height="3.982"/>
					<rect x="258.243" y="261.179" style="fill:#FFFFFF;enable-background:new    ;" width="0.351" height="3.982"/>
					<rect x="262.379" y="261.179" style="fill:#FFFFFF;enable-background:new    ;" width="0.351" height="3.982"/>
				</g>
				<g>
					<g>
						<polygon style="fill:#FFFFFF;" points="261.473,271.168 261.473,272.578 262.37,271.873 						"/>
						<rect x="262.42" y="271.168" style="fill:#FFFFFF;" width="0.211" height="1.41"/>
					</g>
					<g>
						<polygon style="fill:#FFFFFF;" points="256.547,272.578 256.547,271.168 255.649,271.873 						"/>
						
							<rect x="255.389" y="271.168" transform="matrix(-1 -1.224647e-16 1.224647e-16 -1 510.9886 543.7456)" style="fill:#FFFFFF;" width="0.211" height="1.41"/>
					</g>
				</g>
				<g>
					<path style="fill:#FFFFFF;" d="M259.896,271.873c0,0.549-0.397,0.994-0.886,0.994c-0.49,0-0.886-0.445-0.886-0.994
						c0-0.549,0.397-0.994,0.886-0.994C259.499,270.879,259.896,271.324,259.896,271.873z"/>
					<g>
						
							<rect x="258.683" y="271.353" transform="matrix(-1 -1.224647e-16 1.224647e-16 -1 517.5772 543.7456)" style="fill:#407BFF;" width="0.211" height="1.039"/>
						
							<rect x="259.125" y="271.353" transform="matrix(-1 -1.224647e-16 1.224647e-16 -1 518.4618 543.7456)" style="fill:#407BFF;" width="0.211" height="1.039"/>
					</g>
				</g>
			</g>
			<g>
				<path style="fill:#263238;" d="M146.365,416.269h58.198c0.632,0,1.144-0.512,1.144-1.144v-3.712
					c0-0.632-0.512-1.144-1.144-1.144h-55.198V291.453h54.257c1.152,0,2.085-0.934,2.085-2.085v-3.915h-59.342c-1.657,0-3,1.343-3,3
					v124.816C143.365,414.926,144.708,416.269,146.365,416.269z"/>
			</g>
			<g style="opacity:0.4;enable-background:new    ;">
				<path style="fill:#FFFFFF;" d="M146.365,416.269h58.198c0.632,0,1.144-0.512,1.144-1.144v-3.712
					c0-0.632-0.512-1.144-1.144-1.144h-55.198V291.453h54.257c1.152,0,2.085-0.934,2.085-2.085v-3.915h-59.342c-1.657,0-3,1.343-3,3
					v124.816C143.365,414.926,144.708,416.269,146.365,416.269z"/>
			</g>
			<g>
				<path style="fill:#407BFF;" d="M138.911,286.443H292.33c1.073,0,1.943-0.87,1.943-1.943v-4.725H136.969v4.725
					C136.969,285.573,137.839,286.443,138.911,286.443z"/>
			</g>
			
				<rect x="136.969" y="279.775" transform="matrix(-1 -1.224647e-16 1.224647e-16 -1 431.241 562.8836)" style="opacity:0.2;enable-background:new    ;" width="157.304" height="3.334"/>
			<g>
				<path style="fill:#407BFF;" d="M133.67,280.644h163.901c1.037,0,1.878-0.841,1.878-1.878l0,0c0-1.037-0.841-1.878-1.878-1.878
					H133.67c-1.037,0-1.878,0.841-1.878,1.878l0,0C131.792,279.803,132.633,280.644,133.67,280.644z"/>
			</g>
		</g>
	</g>
</g>
<g id="Trash_bin">
	<g>
		<g>
			<path style="fill:#407BFF;" d="M90.421,395.993c-0.826-1.386,0.339-3.471,1.952-3.495c-0.707-1.988-0.009-4.392,1.652-5.694
				c0.209-0.164,0.45-0.318,0.717-0.319c0.286-0.001,0.538,0.173,0.77,0.34c1.52,1.092,3.04,2.184,4.559,3.276
				c0.348,0.25,0.708,0.514,0.905,0.895c0.932,1.805-2.428,4.119-1.046,5.609c0.396,0.428,1.035,0.516,1.53,0.826
				c1.085,0.678,1.216,2.168,1.722,3.344c0.506,1.176,2.269,2.088,2.944,1c-0.498-1.128,1.009-2.099,2.233-2.242
				c1.208-0.141,2.503-0.21,3.179-1.359c1.737,1.518,5.626-2.718,5.537-4.426c1.428,0.109,2.4,1.446,2.713,2.783
				c0.324,1.388,0.124,2.834,0.146,4.257c0.044,2.765,0.936,5.474,0.887,8.239c-0.038,2.152-0.869,4.541-2.84,5.407
				c-0.948,0.417-2.02,0.417-3.056,0.41c-7.478-0.048-14.956-0.096-22.434-0.144c-0.538-0.004-1.1-0.012-1.577-0.262
				c-1.012-0.529-1.226-1.858-1.32-2.996c-0.402-4.874-0.803-9.747-1.204-14.621C89.067,396.545,89.744,396.269,90.421,395.993z"/>
			<path style="opacity:0.3;fill:#FFFFFF;enable-background:new    ;" d="M90.421,395.993c-0.826-1.386,0.339-3.471,1.952-3.495
				c-0.707-1.988-0.009-4.392,1.652-5.694c0.209-0.164,0.45-0.318,0.717-0.319c0.286-0.001,0.538,0.173,0.77,0.34
				c1.52,1.092,3.04,2.184,4.559,3.276c0.348,0.25,0.708,0.514,0.905,0.895c0.932,1.805-2.428,4.119-1.046,5.609
				c0.396,0.428,1.035,0.516,1.53,0.826c1.085,0.678,1.216,2.168,1.722,3.344c0.506,1.176,2.269,2.088,2.944,1
				c-0.498-1.128,1.009-2.099,2.233-2.242c1.208-0.141,2.503-0.21,3.179-1.359c1.737,1.518,5.626-2.718,5.537-4.426
				c1.428,0.109,2.4,1.446,2.713,2.783c0.324,1.388,0.124,2.834,0.146,4.257c0.044,2.765,0.936,5.474,0.887,8.239
				c-0.038,2.152-0.869,4.541-2.84,5.407c-0.948,0.417-2.02,0.417-3.056,0.41c-7.478-0.048-14.956-0.096-22.434-0.144
				c-0.538-0.004-1.1-0.012-1.577-0.262c-1.012-0.529-1.226-1.858-1.32-2.996c-0.402-4.874-0.803-9.747-1.204-14.621
				C89.067,396.545,89.744,396.269,90.421,395.993z"/>
		</g>
		<g>
			<g>
				<path style="fill:#407BFF;" d="M85.193,372.281l0.286,3.517l0.205,2.511l0.523,6.543l0.303,3.746l0.409,4.997l0.172,2.143
					l0.049,0.638l0.205,2.511l0.278,3.46l0.172,2.143l0.18,2.167l0.204,2.519l0.155,1.922l0.172,2.135l0.074,0.932h4.588h3.868
					h5.586h3.868h5.586h3.869h4.58l0.074-0.932l0.172-2.143l0.155-1.906l0.205-2.519l0.18-2.176l0.172-2.143l0.278-3.451
					l0.204-2.519l0.057-0.638l0.172-2.143l0.401-4.997l0.303-3.754l0.532-6.535l0.204-2.511l0.286-3.517h-3.918h-2.527h-6.927
					h-2.527h-6.927h-2.527H91.63h-2.519H85.193z M86.96,373.916h0.728l-0.671,0.671l0,0L86.96,373.916z M89.994,373.916h0.753
					l3.198,3.198l-3.574,3.574l-3.116-3.116l-0.065-0.85L89.994,373.916z M87.901,385.473l2.47-2.47l3.574,3.566l-3.574,3.574
					l-2.282-2.282L87.901,385.473z M121.017,387.861l-2.274,2.282l-3.574-3.574l3.574-3.566l2.47,2.47l0,0L121.017,387.861z
					 M95.098,378.268l3.574,3.574l-3.574,3.574l-3.574-3.574L95.098,378.268z M95.098,375.961l-2.045-2.045h4.089L95.098,375.961z
					 M99.825,383.003l3.574,3.566l-3.574,3.574l-3.566-3.574L99.825,383.003z M104.553,394.87l-3.566-3.574l3.566-3.566l3.574,3.566
					L104.553,394.87z M109.28,392.458l3.574,3.574l-3.566,3.566l-3.574-3.574L109.28,392.458z M103.399,396.024l-3.574,3.574
					l-3.566-3.566l3.566-3.574L103.399,396.024z M100.987,381.842l3.566-3.574l3.574,3.574l-3.574,3.574L100.987,381.842z
					 M109.28,383.003l3.574,3.566l-3.574,3.574l-3.566-3.574L109.28,383.003z M110.441,381.842l3.574-3.574l3.566,3.574
					l-3.566,3.574L110.441,381.842z M117.581,391.296l-3.566,3.574l-3.574-3.574l3.574-3.566L117.581,391.296z M114.016,397.185
					l3.566,3.574l-3.566,3.566l-3.574-3.566L114.016,397.185z M112.854,405.486l-3.574,3.574l-3.566-3.574l3.574-3.574
					L112.854,405.486z M104.553,404.325l-3.566-3.566l3.566-3.574l3.574,3.574L104.553,404.325z M103.399,405.486l-3.574,3.574
					l-3.566-3.574l3.566-3.574L103.399,405.486z M98.672,410.214l-2.314,2.315h-2.519l-2.315-2.315l3.574-3.574L98.672,410.214z
					 M95.098,404.325l-3.574-3.566l3.574-3.574l3.574,3.574L95.098,404.325z M95.098,394.87l-3.574-3.574l3.574-3.566l3.574,3.566
					L95.098,394.87z M99.449,373.916h0.753l3.198,3.198l-3.574,3.574l-3.566-3.574L99.449,373.916z M102.516,373.916h4.081
					l-2.045,2.045L102.516,373.916z M108.904,373.916h0.752l3.198,3.198l-3.574,3.574l-3.566-3.574L108.904,373.916z
					 M116.052,373.916l-2.036,2.045l-2.045-2.045H116.052z M119.119,373.916l2.797,2.806l-0.065,0.851l-3.108,3.116l-3.574-3.574
					l3.198-3.198H119.119z M122.145,373.916l-0.057,0.663l0,0l-0.663-0.663H122.145z M121.385,383.33l-1.489-1.489l1.75-1.75
					L121.385,383.33z M120.673,392.073l-0.777-0.777l0.916-0.916l0,0L120.673,392.073L120.673,392.073z M120.182,398.158
					l-1.439,1.439l-3.574-3.566l3.574-3.574l1.759,1.766L120.182,398.158z M119.97,400.833l-0.074-0.074l0.082-0.082L119.97,400.833
					L119.97,400.833z M119.348,408.447l-0.605,0.605l-3.574-3.566l3.574-3.574l1.055,1.055L119.348,408.447L119.348,408.447z
					 M117.581,412.528l1.161-1.161l0.344,0.344l-0.065,0.818H117.581z M115.275,412.528h-2.519l-2.314-2.315l3.574-3.574
					l3.566,3.574L115.275,412.528z M108.118,412.528l1.161-1.161l1.161,1.161H108.118z M103.293,412.528l-2.306-2.315l3.566-3.574
					l3.574,3.574l-2.314,2.315H103.293z M98.664,412.528l1.161-1.161l1.161,1.161H98.664z M90.027,411.711l0.344-0.344l1.161,1.161
					h-1.439L90.027,411.711z M89.316,402.967l1.055-1.055l3.574,3.574l-3.574,3.566l-0.613-0.605L89.316,402.967z M89.128,400.669
					l0.09,0.09l-0.074,0.074L89.128,400.669L89.128,400.669z M88.604,394.224l1.767-1.766l3.574,3.574l-3.574,3.566l-1.448-1.439
					L88.604,394.224z M88.293,390.38l0.924,0.916l-0.785,0.785L88.293,390.38z M87.459,380.083l1.759,1.758l-1.497,1.497
					L87.459,380.083L87.459,380.083z"/>
			</g>
			<g style="opacity:0.6;enable-background:new    ;">
				<path style="fill:#FFFFFF;" d="M85.193,372.281l0.286,3.517l0.205,2.511l0.523,6.543l0.303,3.746l0.409,4.997l0.172,2.143
					l0.049,0.638l0.205,2.511l0.278,3.46l0.172,2.143l0.18,2.167l0.204,2.519l0.155,1.922l0.172,2.135l0.074,0.932h4.588h3.868
					h5.586h3.868h5.586h3.869h4.58l0.074-0.932l0.172-2.143l0.155-1.906l0.205-2.519l0.18-2.176l0.172-2.143l0.278-3.451
					l0.204-2.519l0.057-0.638l0.172-2.143l0.401-4.997l0.303-3.754l0.532-6.535l0.204-2.511l0.286-3.517h-3.918h-2.527h-6.927
					h-2.527h-6.927h-2.527H91.63h-2.519H85.193z M86.96,373.916h0.728l-0.671,0.671l0,0L86.96,373.916z M89.994,373.916h0.753
					l3.198,3.198l-3.574,3.574l-3.116-3.116l-0.065-0.85L89.994,373.916z M87.901,385.473l2.47-2.47l3.574,3.566l-3.574,3.574
					l-2.282-2.282L87.901,385.473z M121.017,387.861l-2.274,2.282l-3.574-3.574l3.574-3.566l2.47,2.47l0,0L121.017,387.861z
					 M95.098,378.268l3.574,3.574l-3.574,3.574l-3.574-3.574L95.098,378.268z M95.098,375.961l-2.045-2.045h4.089L95.098,375.961z
					 M99.825,383.003l3.574,3.566l-3.574,3.574l-3.566-3.574L99.825,383.003z M104.553,394.87l-3.566-3.574l3.566-3.566l3.574,3.566
					L104.553,394.87z M109.28,392.458l3.574,3.574l-3.566,3.566l-3.574-3.574L109.28,392.458z M103.399,396.024l-3.574,3.574
					l-3.566-3.566l3.566-3.574L103.399,396.024z M100.987,381.842l3.566-3.574l3.574,3.574l-3.574,3.574L100.987,381.842z
					 M109.28,383.003l3.574,3.566l-3.574,3.574l-3.566-3.574L109.28,383.003z M110.441,381.842l3.574-3.574l3.566,3.574
					l-3.566,3.574L110.441,381.842z M117.581,391.296l-3.566,3.574l-3.574-3.574l3.574-3.566L117.581,391.296z M114.016,397.185
					l3.566,3.574l-3.566,3.566l-3.574-3.566L114.016,397.185z M112.854,405.486l-3.574,3.574l-3.566-3.574l3.574-3.574
					L112.854,405.486z M104.553,404.325l-3.566-3.566l3.566-3.574l3.574,3.574L104.553,404.325z M103.399,405.486l-3.574,3.574
					l-3.566-3.574l3.566-3.574L103.399,405.486z M98.672,410.214l-2.314,2.315h-2.519l-2.315-2.315l3.574-3.574L98.672,410.214z
					 M95.098,404.325l-3.574-3.566l3.574-3.574l3.574,3.574L95.098,404.325z M95.098,394.87l-3.574-3.574l3.574-3.566l3.574,3.566
					L95.098,394.87z M99.449,373.916h0.753l3.198,3.198l-3.574,3.574l-3.566-3.574L99.449,373.916z M102.516,373.916h4.081
					l-2.045,2.045L102.516,373.916z M108.904,373.916h0.752l3.198,3.198l-3.574,3.574l-3.566-3.574L108.904,373.916z
					 M116.052,373.916l-2.036,2.045l-2.045-2.045H116.052z M119.119,373.916l2.797,2.806l-0.065,0.851l-3.108,3.116l-3.574-3.574
					l3.198-3.198H119.119z M122.145,373.916l-0.057,0.663l0,0l-0.663-0.663H122.145z M121.385,383.33l-1.489-1.489l1.75-1.75
					L121.385,383.33z M120.673,392.073l-0.777-0.777l0.916-0.916l0,0L120.673,392.073L120.673,392.073z M120.182,398.158
					l-1.439,1.439l-3.574-3.566l3.574-3.574l1.759,1.766L120.182,398.158z M119.97,400.833l-0.074-0.074l0.082-0.082L119.97,400.833
					L119.97,400.833z M119.348,408.447l-0.605,0.605l-3.574-3.566l3.574-3.574l1.055,1.055L119.348,408.447L119.348,408.447z
					 M117.581,412.528l1.161-1.161l0.344,0.344l-0.065,0.818H117.581z M115.275,412.528h-2.519l-2.314-2.315l3.574-3.574
					l3.566,3.574L115.275,412.528z M108.118,412.528l1.161-1.161l1.161,1.161H108.118z M103.293,412.528l-2.306-2.315l3.566-3.574
					l3.574,3.574l-2.314,2.315H103.293z M98.664,412.528l1.161-1.161l1.161,1.161H98.664z M90.027,411.711l0.344-0.344l1.161,1.161
					h-1.439L90.027,411.711z M89.316,402.967l1.055-1.055l3.574,3.574l-3.574,3.566l-0.613-0.605L89.316,402.967z M89.128,400.669
					l0.09,0.09l-0.074,0.074L89.128,400.669L89.128,400.669z M88.604,394.224l1.767-1.766l3.574,3.574l-3.574,3.566l-1.448-1.439
					L88.604,394.224z M88.293,390.38l0.924,0.916l-0.785,0.785L88.293,390.38z M87.459,380.083l1.759,1.758l-1.497,1.497
					L87.459,380.083L87.459,380.083z"/>
			</g>
		</g>
		<path style="fill:#407BFF;" d="M124.505,375.375H84.606c-0.908,0-1.643-0.736-1.643-1.643v-1.267c0-0.908,0.736-1.643,1.643-1.643
			h39.899c0.908,0,1.643,0.736,1.643,1.643v1.267C126.149,374.639,125.413,375.375,124.505,375.375z"/>
		<path style="fill:#407BFF;" d="M87.72,416.269h33.672c0.908,0,1.643-0.736,1.643-1.643v-1.267c0-0.908-0.736-1.643-1.643-1.643
			H87.72c-0.908,0-1.643,0.736-1.643,1.643v1.267C86.077,415.533,86.813,416.269,87.72,416.269z"/>
	</g>
</g>
</svg>
