<svg width="110" height="109" viewBox="0 0 110 109" fill="none" xmlns="http://www.w3.org/2000/svg">
<path d="M77.7448 62.946C77.3736 63.5483 76.9952 64.1511 76.6081 64.752C74.9109 67.3586 73.0727 69.9041 71.3207 72.4741C69.5812 75.0451 67.9004 77.6349 66.5831 80.2949C65.2495 82.943 64.2476 85.6656 63.82 88.345C63.5995 89.6256 63.4955 90.9073 63.4816 92.175C63.4657 93.2144 63.5485 102.38 71.325 105.567C78.9128 108.677 82.2474 104.598 82.7347 103.924C80.4217 91.3334 82.3095 79.1577 86.9474 67.2676C89.3047 61.2214 92.2835 54.4892 94.3754 47.5822C90.816 54.3664 84.9354 59.8156 77.7448 62.946Z" fill="url(#paint0_radial_189_582)"/>
<path d="M34.6566 103.946C34.6566 103.946 36.2912 107.094 44.8621 108.867C58.2713 110.689 58.5356 93.2332 58.5356 93.2332L58.5414 93.2472C58.6102 91.3444 58.85 89.3994 59.3184 87.4586C60.0507 84.2959 61.4118 81.2887 63.057 78.4953C64.6906 75.6845 66.6318 73.0995 68.5788 70.5935C70.2023 68.5218 71.8455 66.5108 73.3978 64.5026C70.3049 65.3861 67.0305 65.8613 63.641 65.8613C44.6094 65.8613 29.1815 50.9249 29.1815 32.4995C29.1815 16.6999 40.5285 3.47563 55.7605 0.0235673C46.4379 -0.233051 37.3258 1.60709 30.6388 5.4915C18.3168 12.6508 8.41514 26.8958 12.2288 41.4739C14.197 48.9977 6.52974 55.4179 1.86776 59.3303C-2.79518 63.2426 2.38533 64.8979 5.33861 66.7029C8.2914 68.5088 11.2967 70.1135 8.83593 73.0986C7.42237 74.8135 12.7983 76.7846 12.7983 76.7846C12.7983 76.7846 8.21436 80.0205 9.76803 82.202C11.3222 84.3835 12.9543 84.1587 11.6332 88.6728C10.3121 93.187 11.9438 98.1523 22.1242 95.8962C32.0394 93.6973 36.7173 95.641 34.6566 103.946Z" fill="url(#paint1_radial_189_582)"/>
<path opacity="0.2" d="M63.6417 65.8613C44.61 65.8613 29.1821 50.9249 29.1821 32.4995C29.1821 16.6999 40.5292 3.47563 55.7611 0.0235673C46.4386 -0.233051 37.3265 1.60709 30.6395 5.4915C30.563 5.53628 30.4879 5.58395 30.4108 5.62968C27.5616 7.31961 24.7373 11.0158 22.9655 13.7505C20.6521 17.3229 19.3796 21.4312 19.0007 25.6565C17.9405 37.4811 23.0281 49.1729 29.2881 58.9027C34.4589 66.9417 42.3303 73.8208 46.0982 82.6575C48.1733 87.525 49.2908 92.7773 48.9071 98.0777C48.8209 99.263 47.6914 109.06 46.1175 108.983C58.2874 109.581 58.5363 93.2332 58.5363 93.2332L58.5421 93.2472C58.6109 91.3445 58.8507 89.3994 59.3191 87.4586C60.0514 84.2959 61.4125 81.2887 63.0577 78.4953C64.6913 75.6845 66.6325 73.0995 68.5795 70.5935C70.0928 68.6624 71.6204 66.7842 73.0793 64.9114C73.1399 64.7838 73.1967 64.6624 73.2545 64.5416C70.2035 65.3986 66.9787 65.8613 63.6417 65.8613Z" fill="white"/>
<path d="M55.9927 55.3775C52.6653 66.6018 60.932 72.778 60.932 72.778C60.932 72.778 62.2396 74.193 65.2516 75.0731C66.32 73.5338 67.4476 72.0495 68.5795 70.5931C69.5525 69.3509 70.5356 68.1314 71.5005 66.92C79.4234 45.4214 52.83 37.4234 52.83 37.4234C57.3889 40.0907 59.3196 44.1528 55.9927 55.3775Z" fill="url(#paint2_radial_189_582)"/>
<path d="M71.1251 16.3886C67.2744 16.3886 63.8079 17.9827 61.3269 20.5484C58.846 17.9827 55.379 16.3886 51.5278 16.3886C43.9934 16.3886 37.8851 22.4974 37.8851 30.0317C37.8851 37.5666 45.3757 50.5241 61.3269 54.267C77.2787 50.5236 84.7687 37.5661 84.7687 30.0317C84.7687 22.4974 78.66 16.3886 71.1251 16.3886Z" fill="url(#paint3_radial_189_582)"/>
<path opacity="0.2" d="M47.9553 42.568C42.1278 30.7843 50.7849 19.5552 53.4392 16.5253C52.8147 16.4372 52.1777 16.3886 51.5278 16.3886C43.9934 16.3886 37.8851 22.4974 37.8851 30.0317C37.8851 36.5396 43.4778 47.0874 55.2783 52.2554C52.7367 50.0672 50.1306 46.9666 47.9553 42.568Z" fill="white"/>
<path d="M67.5799 32.2545H64.5544V29.228C64.5544 28.5121 63.9743 27.9319 63.2574 27.9319H59.463C58.7471 27.9319 58.1659 28.5121 58.1659 29.228V32.2545H55.1395C54.424 32.2545 53.8434 32.8351 53.8434 33.552V37.3459C53.8434 38.0619 54.424 38.6435 55.1395 38.6435H58.1659V41.6685C58.1659 42.3854 58.7471 42.966 59.463 42.966H63.2574C63.9743 42.966 64.5544 42.3854 64.5544 41.6685V38.6435H67.5799C68.2963 38.6435 68.877 38.0619 68.877 37.3459V33.552C68.8775 32.8351 68.2968 32.2545 67.5799 32.2545Z" fill="white"/>
<path d="M85.6808 3.2514C89.805 10.9899 88.8743 18.4858 73.8393 31.7851C58.8052 45.085 65.0584 61.0439 65.0584 61.0439C65.0584 61.0439 65.7219 64.6505 69.9554 68.8556C71.458 66.9707 72.9534 65.1233 74.3448 63.2683C76.1513 60.8403 77.8147 58.38 79.2918 55.927C80.7511 53.4624 82.0265 51.0132 83.1348 48.6468C83.651 47.4494 84.195 46.2968 84.625 45.149C84.8469 44.5775 85.079 44.0205 85.2821 43.4639C85.4767 42.9059 85.6688 42.3585 85.8556 41.8216C87.3409 37.5183 88.1728 33.8212 88.7169 31.2343C89.1666 28.6272 89.4222 27.1443 89.4222 27.1443C89.4222 27.1443 89.2696 28.6422 89.0024 31.2777C88.637 33.9011 88.0621 37.6652 86.8623 42.11C86.7106 42.6656 86.5542 43.2328 86.3963 43.811C86.2297 44.3873 86.0337 44.9665 85.8479 45.5611C85.4906 46.7556 85.0212 47.9588 84.5783 49.2135C83.6173 51.6944 82.4873 54.2794 81.1657 56.8971C79.8267 59.5052 78.2933 62.1388 76.6067 64.7512C75.7016 66.1416 74.7555 67.5138 73.8046 68.8826C75.0165 68.2692 76.5408 67.4753 78.0959 66.6057C121.168 42.5193 85.6808 3.2514 85.6808 3.2514Z" fill="url(#paint4_linear_189_582)"/>
<path opacity="0.2" d="M85.6808 3.2514C89.805 10.9899 88.8743 18.4858 73.8393 31.7851C58.8052 45.085 65.0584 61.0439 65.0584 61.0439C65.0584 61.0439 65.7219 64.6505 69.9554 68.8556C71.458 66.9707 72.9534 65.1233 74.3448 63.2683C76.1513 60.8403 77.8147 58.38 79.2918 55.927C79.7872 55.0902 80.2538 54.2568 80.7078 53.4258C82.34 50.368 83.7049 47.4306 84.8339 44.6204C84.9885 44.2323 85.1425 43.8467 85.2821 43.4634C85.4767 42.9054 85.6688 42.358 85.8556 41.8212C87.3409 37.5179 88.1728 33.8207 88.7169 31.2338C89.0438 29.3383 89.2677 28.0403 89.3654 27.4717C91.2094 11.9307 85.6808 3.2514 85.6808 3.2514Z" fill="white"/>
<path d="M81.6071 55.9961C81.4598 56.2965 81.3187 56.596 81.1666 56.8974C79.8277 59.5055 78.2942 62.1391 76.6077 64.7515C74.9105 67.3581 73.0723 69.9036 71.3203 72.4736C71.2933 72.5131 71.2683 72.5526 71.2404 72.5916C73.8229 74.4625 75.8243 74.6267 75.8243 74.6267C75.8243 74.6267 85.8892 77.3209 93.1646 68.0061C100.438 58.6928 104.954 57.7486 109.893 59.6774C109.893 59.6774 94.3316 48.7911 81.6071 55.9961Z" fill="url(#paint5_radial_189_582)"/>
<path opacity="0.2" d="M81.6069 55.9961C81.4595 56.2966 81.3185 56.596 81.1663 56.8974C79.9227 59.3206 78.5048 61.7645 76.9579 64.1949C93.2072 51.2672 109.894 59.6769 109.894 59.6769C109.894 59.6769 94.3314 48.7911 81.6069 55.9961Z" fill="white"/>
<defs>
<radialGradient id="paint0_radial_189_582" cx="0" cy="0" r="1" gradientUnits="userSpaceOnUse" gradientTransform="translate(83.5446 62.7534) scale(37.2816 36.096)">
<stop offset="0.0096" stop-color="#8C0053"/>
<stop offset="0.2477" stop-color="#860557"/>
<stop offset="0.5696" stop-color="#751460"/>
<stop offset="0.9378" stop-color="#592C71"/>
<stop offset="1" stop-color="#533174"/>
</radialGradient>
<radialGradient id="paint1_radial_189_582" cx="0" cy="0" r="1" gradientUnits="userSpaceOnUse" gradientTransform="translate(47.6673 27.9613) scale(69.9251 67.7015)">
<stop offset="0.0096" stop-color="#8C0053"/>
<stop offset="0.2477" stop-color="#860557"/>
<stop offset="0.5696" stop-color="#751460"/>
<stop offset="0.9378" stop-color="#592C71"/>
<stop offset="1" stop-color="#533174"/>
</radialGradient>
<radialGradient id="paint2_radial_189_582" cx="0" cy="0" r="1" gradientUnits="userSpaceOnUse" gradientTransform="translate(74.2135 51.1362) scale(39.8284 38.5619)">
<stop stop-color="#7EDCB9"/>
<stop offset="0.0203" stop-color="#7CD8B9"/>
<stop offset="0.2147" stop-color="#68B4B7"/>
<stop offset="0.4109" stop-color="#5998B6"/>
<stop offset="0.607" stop-color="#4F84B6"/>
<stop offset="0.8032" stop-color="#4878B5"/>
<stop offset="1" stop-color="#4674B5"/>
</radialGradient>
<radialGradient id="paint3_radial_189_582" cx="0" cy="0" r="1" gradientUnits="userSpaceOnUse" gradientTransform="translate(42.1567 20.2296) scale(42.3444 42.3444)">
<stop stop-color="#E9AD2B"/>
<stop offset="0.2372" stop-color="#DE7C3F"/>
<stop offset="0.4742" stop-color="#D5524F"/>
<stop offset="0.6877" stop-color="#CE345B"/>
<stop offset="0.8701" stop-color="#CA2262"/>
<stop offset="1" stop-color="#C91B65"/>
</radialGradient>
<linearGradient id="paint4_linear_189_582" x1="69.3958" y1="32.7304" x2="113.887" y2="50.2844" gradientUnits="userSpaceOnUse">
<stop stop-color="#7EDCB9"/>
<stop offset="0.0169" stop-color="#7CD8B9"/>
<stop offset="0.179" stop-color="#68B4B7"/>
<stop offset="0.3424" stop-color="#5998B6"/>
<stop offset="0.5058" stop-color="#4F84B6"/>
<stop offset="0.6694" stop-color="#4878B5"/>
<stop offset="0.8333" stop-color="#4674B5"/>
</linearGradient>
<radialGradient id="paint5_radial_189_582" cx="0" cy="0" r="1" gradientUnits="userSpaceOnUse" gradientTransform="translate(112.271 61.3464) scale(22.9901 22.2591)">
<stop stop-color="#7EDCB9"/>
<stop offset="0.0203" stop-color="#7CD8B9"/>
<stop offset="0.2147" stop-color="#68B4B7"/>
<stop offset="0.4109" stop-color="#5998B6"/>
<stop offset="0.607" stop-color="#4F84B6"/>
<stop offset="0.8032" stop-color="#4878B5"/>
<stop offset="1" stop-color="#4674B5"/>
</radialGradient>
</defs>
</svg>
